<svg id="Layer_1" data-name="Layer 1" xmlns="http://www.w3.org/2000/svg" viewBox="0 0 831.6 828.13"><defs><style>.cls-1{fill:#ff6d00;}</style></defs><path class="cls-1" d="M699.89,346.29c-3.77-11.42-7.2-22.11-10.88-32.73a13.06,13.06,0,0,0-3.59-5.34c-35-30.8-70.12-61.52-106-92.93L471.82,305.41c2.42,7.09,4.38,13.76,7.06,20.13a11.6,11.6,0,0,0,5.59,5.38c6.6,3,13.41,5.52,20.22,8s10.36,7.24,10.37,14.53q0,25.56,0,51.13c0,6.93-3.18,12.62-9.84,13.91-19.42,3.77-28.06,16.25-34.73,34.07-4.7,12.54-6,22,.38,33.9,8.27,15.55,7.26,17-5.42,29.64-9.88,9.88-19.84,19.66-29.6,29.66-5.58,5.72-12.07,7.81-18.82,3.42-15.2-9.9-29.82-10.47-45.3-.41-5.46,3.55-12.41,4.81-20.67,7.85,10.82,41.19,21.68,82.49,32.8,124.82,12.85-.45,25.14,1,34.81,10.61,9.46,9.43,11.42,21.25,11,34.32h58.47v-8.89q0-57,0-114c0-14,4-18.06,17.8-18.07q66.63,0,133.26,0c12.79,0,17.16,4.3,17.18,17q.11,57,0,114v9.79h31.21V717q0-57,0-114c0-13.37,4.19-17.62,17.39-17.63q66.63,0,133.26,0c13.37,0,17.57,4.14,17.59,17.46q.07,60.33,0,120.68c0,3-.39,6-.62,9.29,27.52,11.45,47.09,31,56.23,60,18.36,58.22-24,118.44-85.05,121.08-2.79.12-5.58.15-8.38.15q-318,0-636.1,0c-38.86,0-68.69-16.36-87-50.75-24.4-45.84-5.74-102.36,40.58-126,2.71-1.38,5.43-2.72,8.53-4.27.58-12.73-1.41-25.89,7.29-37,8.45-10.77,19.89-14.62,33.89-14.86l-7.53-127.07c-14.23-14.79-27.17-28.64-40.58-42-6.21-6.19-8.37-12.91-3.78-20.26,9.2-14.69,8-27.7,1.06-44-6.48-15.15-14.35-24-29.72-28.23-11.22-3.12-13-6.82-13-18.41q-.09-22.62,0-45.25c.07-10.72,1.95-14.77,12-17.43,16.41-4.32,27.71-12.74,30.47-30.3a1.65,1.65,0,0,1,.32-.77c10.25-13.37,7.2-26.26-.27-39.86-5.89-10.72-4.56-14.27,4-22.87,10.67-10.67,21.5-21.18,31.93-32.07,6.06-6.32,12.89-8.45,20.24-3.78,14.7,9.36,27.77,7.93,44,1.1,15.25-6.41,23.94-14.39,28.15-29.82,3-11.21,6.61-12.73,18.52-12.76q22.22-.06,44.42,0c12.33,0,14.41,1.54,19,13.44,1.11,2.86,2.57,5.64,3.24,8.6,2.11,9.25,7.34,14.53,16.85,17,5.88,1.52,10.2,1.56,15.52-1.63,47.87-28.7,95.94-57.07,143.87-85.67a34.66,34.66,0,0,0,9.43-8c16.31-20.76,41.71-30,66.34-22.8,26.44,7.78,41.33,26.09,46,53.14a20.67,20.67,0,0,0,4.74,10q44.88,48.66,90.28,96.86a20.61,20.61,0,0,0,10.36,5.81c42.5,8.28,60.73,51.66,36.51,87.37-.76,1.11-1.46,2.25-2.42,3.73,17.84,8.26,32.63,19.81,44,35.58,35.53,49.22,21.84,118.87-29.71,151-5.56,3.47-11.1,6.79-17.89,3.13s-7.12-10-7.1-16.63c.1-22.89,0-45.78,0-69.37l-31.87-18.44-31.65,18.27c0,23.08.15,46-.15,68.85a25.74,25.74,0,0,1-3.19,12.61c-3.7,6.09-11.37,6.88-18.59,2.37-28.46-17.76-45.87-43.26-49.86-76.57-5.66-47.31,16.18-86.65,58.84-108.77C699.39,346.7,700.52,345.9,699.89,346.29ZM446.25,496.64c-3.14-7.09-6-14-9.27-20.82-2.78-5.8-2-10.89.63-16.71,6.23-13.65,11.95-27.55,17.22-41.6,2.34-6.24,5.63-10.62,12-12.86,7.05-2.49,14-5.37,20.95-8.08V361.21c-7.4-2.91-14.81-5-21.26-8.67-4.42-2.54-8.83-6.78-11-11.33-6.59-14.09-11.78-28.81-18.16-43-2.51-5.58-3.08-10.49-.53-16,3.26-7,6.32-14.17,9.3-20.89L421,236.21c-6.49,2.84-13.4,5.73-20.2,8.87-6,2.79-11.44,2.21-17.56-.61-13.62-6.29-27.51-12.08-41.59-17.26-6.05-2.23-10.15-5.37-12.36-11.31-2.69-7.27-5.55-14.46-8.26-21.46H285.76c-2.86,7.25-5.82,14.16-8.31,21.24-2.12,6.06-6.16,9.26-12.15,11.52-14.29,5.41-28.11,12.07-42.49,17.2a29.72,29.72,0,0,1-16.57.41c-7.15-1.86-13.77-5.76-19.69-8.38l-25.51,26c2.53,5.72,5.33,12.41,8.45,18.94,3,6.36,2.12,11.94-.87,18.29A421.23,421.23,0,0,0,152,339.7c-2.48,7-6.17,11.47-13.06,13.86s-13.46,5.21-20,7.79v35.26c7.17,2.75,14.13,5.52,21.16,8.1,5.92,2.17,9.3,6.11,11.56,12.16,5.36,14.31,11.27,28.44,17.56,42.37,2.64,5.83,3.17,11,.48,16.79-3.17,6.8-6.1,13.71-8.79,19.79l25.29,25.74c6.05-2.66,12.59-5.13,18.73-8.36,6.91-3.62,12.87-2.63,19.77.66,12.78,6.09,26,11.47,39.27,16.27,6.89,2.48,11.63,5.94,14,13,2.28,6.87,5.19,13.52,7.77,20.14h35.45c2.84-7.37,5.65-14.34,8.19-21.41,2.17-6,6.47-9.13,12.38-11.36,14-5.31,28-10.9,41.62-17.18,6.12-2.82,11.38-3.54,17.46-.55,6.72,3.3,13.71,6,20.14,8.85Zm53,390.6H815.14c3.08,0,6.16.12,9.22-.09,27.87-1.9,48.4-15.25,59.23-41s6.08-50-12.51-70.83c-14.78-16.59-34.22-21.69-55.88-21.68q-315.11.21-630.2.12a142.71,142.71,0,0,0-15.05.78C137.5,758,112,785.81,111.21,818.42c-.95,38.57,29,68.74,68.71,68.78Q339.57,887.38,499.21,887.24ZM356,681c-8.06-30.45-16-60.26-23.94-90.43-17.5,0-34.5,0-51.5,0-10.88,0-14.09-2.26-18.1-12.48-2-5.19-4.16-10.35-5.85-15.65-1.57-4.93-4.38-7.55-9.53-9.18a143.74,143.74,0,0,1-25.46-10.42c-6.44-3.5-11.68-4.36-17.7,1.28,2.73,45.38,5.48,91.16,8.23,136.9Zm452.73-68.4c0,14.54.1,28.17,0,41.8-.1,10.6-4.65,15.26-15.31,15.45-12.83.22-25.67.08-38.5.06-16.87,0-20.21-3.32-20.22-19.91,0-12.44,0-24.88,0-37.07H715V726.7H828.54V612.61Zm-199.5,0c0,14.73.14,28.64,0,42.56-.12,9.61-4.76,14.43-14.42,14.61q-22.62.41-45.24,0c-9.55-.18-14-5.15-14.33-14.79-.09-3.35,0-6.7,0-10V612.67h-19.6V726.3H629.09V612.64ZM801.46,494.52c28.86-27.83,26.85-79.42-2.85-108.33a78.67,78.67,0,0,0-113.66,4c-30.6,34.17-21.62,82.66-.65,101.74,0-16.49.18-32.28-.08-48.06-.12-7.22,2.64-12.18,8.89-15.7q20.39-11.52,40.54-23.43c6.15-3.65,11.91-3.73,18.08-.07,12.22,7.26,24.35,14.74,37,21.24,9.37,4.83,13.36,11.44,12.92,22C801,462.93,801.46,478,801.46,494.52ZM431,205.67c11.75,12.28,22.7,24.21,34.21,35.58,7.69,7.6,15.36,14.68,9.09,27.09l78.08-65.44c-18.7-11.85-28.84-28.33-31.58-50.52ZM401.82,726.5c2.17-14.93-.57-18.15-14.95-18.15h-200c-14.53,0-17.71,4-14.65,18.15ZM713.53,258.69l-73.42-78.78-29.24,27.2,82.37,72.2ZM619.13,149a35.63,35.63,0,1,0-36,35.36C602.51,184.74,618.94,168.63,619.13,149Zm96.61,159.5a28,28,0,1,0,28.4-27.94A28.07,28.07,0,0,0,715.74,308.54Zm-153.21,304v30H581.8v-30Zm199.46,0v30h19.32v-30Z" transform="translate(-84.2 -85.94)"/><path class="cls-1" d="M410.24,378.88c.1,58.92-48.24,107.23-107.07,107s-106.53-48-106.65-106.56C196.39,320.09,244.14,272,303.13,272A107,107,0,0,1,410.24,378.88Zm-26.88,1.19c.87-43.58-34.45-80.45-77.77-81.2-44.59-.77-81.39,34-82.19,77.59-.84,45.41,33.73,81.53,79,82.52C346,459.94,382.47,424.41,383.36,380.07Z" transform="translate(-84.2 -85.94)"/><path class="cls-1" d="M448.23,820.56a55.56,55.56,0,1,1-55.14-55.67A55.32,55.32,0,0,1,448.23,820.56Zm-26.82.14a28.73,28.73,0,0,0-57.46-.79c-.26,16.52,12.31,29.36,28.73,29.35A28.46,28.46,0,0,0,421.41,820.7Z" transform="translate(-84.2 -85.94)"/><path class="cls-1" d="M822.33,876.09a55.61,55.61,0,1,1,55.61-56A55.58,55.58,0,0,1,822.33,876.09Zm1-84.37a28.78,28.78,0,1,0-1.55,57.54,28.78,28.78,0,0,0,1.55-57.54Z" transform="translate(-84.2 -85.94)"/><path class="cls-1" d="M177.43,876.09a55.6,55.6,0,1,1,56.08-54.77A55.33,55.33,0,0,1,177.43,876.09Zm.63-84.38a28.78,28.78,0,1,0,28.63,28.86A28.94,28.94,0,0,0,178.06,791.71Z" transform="translate(-84.2 -85.94)"/><path class="cls-1" d="M663,820.5a55.56,55.56,0,1,1-55.15-55.61A55.23,55.23,0,0,1,663,820.5ZM607.8,791.71a28.78,28.78,0,1,0,28.41,28.91A28.65,28.65,0,0,0,607.8,791.71Z" transform="translate(-84.2 -85.94)"/><path class="cls-1" d="M715.16,791.67c-10,0-20.09.15-30.13,0-9-.17-15.07-5.71-15.07-13.41s6-13.27,15-13.32q30.12-.18,60.25,0c8.69.07,14.33,5.29,14.6,12.86.27,7.79-5.63,13.63-14.57,13.84C735.25,791.85,725.2,791.67,715.16,791.67Z" transform="translate(-84.2 -85.94)"/><path class="cls-1" d="M284.91,791.68c-9.76,0-19.53.12-29.29,0-9.27-.16-15.12-5.31-15.32-13.11-.2-8.17,5.77-13.59,15.5-13.64q29.7-.17,59.42,0c9,.06,15,5.64,15,13.39s-6.11,13.18-15.15,13.34C305,791.81,295,791.68,284.91,791.68Z" transform="translate(-84.2 -85.94)"/><path class="cls-1" d="M500,876.11c-10,0-20.08.15-30.11-.05-8.83-.17-14.45-5.17-14.8-12.66s5.54-13.8,14.53-13.94q30.52-.48,61.07,0c8.63.14,14.31,5.92,14.4,13.25.1,7.73-5.8,13.17-15,13.35C520.07,876.26,510,876.11,500,876.11Z" transform="translate(-84.2 -85.94)"/><path class="cls-1" d="M499.78,791.68c-9.76,0-19.53.12-29.29,0-9.15-.15-15.19-5.43-15.41-13.1-.23-8,5.91-13.6,15.56-13.65q29.72-.15,59.43,0c9,.06,15,5.62,15,13.38s-6.12,13.19-15.16,13.35C519.87,791.82,509.83,791.68,499.78,791.68Z" transform="translate(-84.2 -85.94)"/><path class="cls-1" d="M285.1,876.11c-10,0-20.08.15-30.11-.05-8.82-.18-14.4-5.2-14.69-12.71-.3-7.71,5.44-13.75,14.52-13.89q30.51-.47,61.05,0c8.68.14,14.28,5.9,14.35,13.29.06,7.79-5.76,13.13-15,13.31C305.17,876.25,295.13,876.11,285.1,876.11Z" transform="translate(-84.2 -85.94)"/><path class="cls-1" d="M714.64,876.11c-10,0-20.07.16-30.11-.06-8.78-.19-14.37-5.33-14.59-12.85s5.33-13.53,13.9-13.68q30.93-.57,61.88,0c8.62.14,14.18,6,14.15,13.43,0,7.76-5.87,13-15.12,13.15C734.72,876.24,724.68,876.11,714.64,876.11Z" transform="translate(-84.2 -85.94)"/><path class="cls-1" d="M583.85,166.78a17.87,17.87,0,0,1-18.54-17.44,18.21,18.21,0,0,1,17.88-19.12c10-.21,18.87,8.48,18.8,18.47A18.36,18.36,0,0,1,583.85,166.78Z" transform="translate(-84.2 -85.94)"/></svg>