<svg id="Layer_1" data-name="Layer 1" xmlns="http://www.w3.org/2000/svg" viewBox="0 0 923.44 881.38"><defs><style>.cls-1{fill:#ff6d00;}</style></defs><path class="cls-1" d="M959.83,868c-4,7.68-10.36,9.67-18.7,9.47-22.85-.57-43.79-6.8-62.78-19.45-7.75-5.16-15.31-10.61-23-15.87-37-25.38-80.1-25.3-117.21.17-9.17,6.28-17.94,13.3-27.65,18.6-43,23.48-86.09,22.91-128.58-1.49C573.09,854.4,565,848,556.59,842.24c-37.27-25.44-79.93-25.39-117.19.1-9.17,6.27-17.93,13.33-27.65,18.6-43.69,23.71-87.27,23-130.13-2.36-8.25-4.88-15.86-10.86-23.79-16.29-36.41-24.92-77.92-25.44-114.94-1.38-9.32,6.06-18.37,12.54-27.73,18.51a112.61,112.61,0,0,1-65,17.94c-7.93-.22-13.41-5.49-13.76-12.64-.33-6.83,4.22-12.42,11.57-13.9a38.23,38.23,0,0,1,7.18-.57c19.29-.17,36.47-6.53,52.07-17.59,1.18-.83,2.24-1.85,3.62-3-10.13-29.75-5.7-60.32-5.59-90.46.08-22.07-3.51-42.47-11.9-62.92-18.69-45.52-35.94-91.62-53.78-137.49-.65-1.68-1.36-3.34-1.91-5-3.45-10.62,2-18.84,13.19-19.13,13.44-.34,26.9-.08,41.32-.08,0-10.65,0-20.48,0-30.31,0-3-.15-6,.08-9,.6-7.78,6.06-13,13.32-13.08a13.09,13.09,0,0,1,13.48,12.94c.46,9.6.15,19.23.17,28.85,0,3.23,0,6.45,0,10.13h60.09c.21-2.42.62-5,.64-7.51.07-12.92-.17-25.85.11-38.77.33-15,8.83-23.43,23.67-23.62q23-.28,46,0c14.44.18,23,8.42,23.53,22.83.41,12.31.12,24.64.14,37v8l60.2,23.6V354.51h-214c-.13,2.84-.37,5.7-.38,8.57,0,17.74,0,35.47,0,53.21a36.64,36.64,0,0,1-.51,8.06,13.52,13.52,0,0,1-13.88,10.54,13.33,13.33,0,0,1-12.45-12.15c-.45-4.77-.19-9.61-.19-14.42,0-17.13-.12-34.27,0-51.4.16-18,12-29.73,30.09-30,7.48-.1,15,0,23.73,0V316.81c0-42.38.61-84.78-.26-127.15-.4-19.36,13.19-34.12,33-32.75,11,.77,22.12.14,33.79.14v-37.4c-4.25,0-8.37.22-12.46-.05-7.9-.53-13.2-5.92-13.28-13.16s5.21-12.89,13-13.62c4.1-.39,8.27-.07,13.39-.07,0-6.76-.16-12.69,0-18.62.29-9.15,5.56-14.75,13.56-14.72s13.1,5.63,13.43,14.83c.11,3,0,6,0,9v9.43c4.19,0,8-.15,11.7,0,8.93.45,14.89,6.11,14.74,13.79s-6,12.88-15.19,13.18c-3.27.11-6.55,0-10.54,0v36.81c2.4.16,5,.48,7.58.5,10.52.09,21.05-.19,31.56.19,15.25.56,26.41,11.83,27.18,27,.21,4.2.1,8.41.1,12.62q0,59.52,0,119v11c8.06,0,15.45-.06,22.84,0,19.18.15,30.92,11.73,30.94,30.9q.14,89.28,0,178.56v10.79l38.73,16V265.28L369.59,277.1c-5.39,2.11-10.81,1.24-13.85-3.21-2.43-3.56-4.31-9.2-3.22-13s5.63-7.68,9.59-9.51C374.34,245.73,387,241,400.45,235.6v-9.66q0-47.34,0-94.69c0-3.88-.08-7.93.91-11.62C406.15,102,428.25,95.19,441.8,108c16.17,15.24,31.45,31.46,46.7,47.64,6.57,7,9.42,16,9.58,25.62.07,4.49,0,9,0,14.79,6.75-2.64,12.53-4.85,18.26-7.16Q641.54,138.24,766.72,87.6c1.39-.56,2.78-1.15,4.21-1.58,7.44-2.24,14.65.85,17.27,7.34a13.27,13.27,0,0,1-7,17.37c-7.85,3.71-16.05,6.71-24.09,10-3.84,1.59-7.67,3.21-11.54,4.83v90.81c3.28.15,6.19.4,9.1.4,15.63,0,31.27,0,46.9,0,16.87,0,20.37,3.56,20.39,20.79q0,38.33,0,76.65a61.82,61.82,0,0,1-.21,7.21c-1,8.21-5.32,12.73-13.45,12.85q-27.06.39-54.11,0c-8.07-.11-13.27-5.45-13.51-12.78s4.76-12.8,12.62-13.93a47.21,47.21,0,0,1,6.3-.21q12.61,0,25.25,0h9.48v-63H669.17v63c8.28,0,16.55-.12,24.81.06a37.76,37.76,0,0,1,10.64,1.29c6.2,2,9.26,7.63,8.46,14.18-.74,6-4.9,11-11.08,11.18q-24.33.64-48.68.06c-6.42-.15-10.31-4.45-11.42-10.83a42,42,0,0,1-.48-7.18c0-27.06-.08-54.11,0-81.16.05-14,4.37-18.14,18.44-18.17,18.93,0,37.85,0,57.52,0v-80L498.6,225.16V477.47H599.21v-9.65c0-21-.05-42.09,0-63.13,0-12.78,4.69-17.74,17.26-17.75q149.7-.1,299.4,0c12.75,0,17.14,4.66,17.15,17.65q.08,76.67,0,153.31v10.43c10.33.5,21-1.51,26.77,9.31v9c-3.24,3.5-6.36,7.1-9.72,10.47-8.69,8.72-17.7,17.13-26.2,26-36.36,38-67.61,79.55-87.3,128.88-6,15-10.89,30.25-13.44,46.72a122.59,122.59,0,0,1,47.77,21.16c6.08,4.39,12.15,8.81,18.31,13.09,15.67,10.9,32.92,17.3,52.16,17.14,7.84-.07,13.8,2.76,18.42,8.88ZM120.42,672H837c2.11,0,4.22-.16,6.31,0,4,.37,6.4-1.43,9-4.55,18.26-22.29,36.8-44.35,55.23-66.5,1.18-1.42,2.12-3,3.7-5.33h-12q-237.59,0-475.18.1a80,80,0,0,1-31.51-6.17q-54.82-22.86-109.88-45.18a35.51,35.51,0,0,0-13-2.74q-96-.27-192-.1c-2.26,0-4.52.34-7.75.59C86.81,585.67,103.42,628.37,120.42,672Zm710.75,27.5H132V742.8h12.59q215.52,0,431.05,0a91.2,91.2,0,0,1,11.7.38c7.11.92,11.53,5.88,11.76,12.59.25,7.13-4.18,12.55-11.63,13.67a74.65,74.65,0,0,1-10.8.38q-216.42,0-432.85,0h-12c.69,15.23-1.83,29.24,2.47,42.82a6.39,6.39,0,0,0,1.49,0c1.11-.46,2.2-.94,3.28-1.46,46.61-22.45,91.56-20.51,134.63,9.19,7.91,5.45,15.6,11.3,23.86,16.17,29.21,17.25,60,18.8,90.75,5.68,12.8-5.46,24.5-14,35.75-22.45,41.8-31.3,106.32-31.25,147.7,0C580,825.91,588.28,832,597.15,837c32.32,18.14,65.3,18.62,98.07,1.43,9.78-5.14,18.61-12.11,27.72-18.48,15.21-10.63,31.55-18.61,50-21.57,7.36-1.18,14.83-1.66,22.63-2.49,1.94-8.39,3.82-16.48,6-26H790.23q-71.7,0-143.39,0a46.73,46.73,0,0,1-10.72-.87,13.09,13.09,0,0,1,.7-25.49,58.49,58.49,0,0,1,10.77-.63q76.2-.06,152.4,0h10.39Zm-403-563.78V568h42.89V404.23q0-108.61-.15-217.23c0-4.82-.72-11.12-3.71-14.2C454.51,159.73,440.83,147.61,428.17,135.75ZM173.72,184.63V326.45h106V184.63ZM627,414.49v63H751.88v-63Zm153,62.85H905.47V414.62H780ZM626.78,567.89H751.89V505.53H626.78Zm153.33.22H905.49V505.64H780.11Zm-181.39.1V505.62H498.61v62.59Zm-391-96.7V513.9h37.81V471.51Z" transform="translate(-36.39 -59.41)"/><path class="cls-1" d="M252.45,940.7c-8.41.22-17.19-4-25.59-9.56-15.83-10.53-21.87-10.58-37.47.11-8.66,5.93-17.87,9.64-28.46,9.54-8.42-.09-13.82-4.3-14.7-11.46-1-7.86,3.29-14,11.86-15,8.11-1,14.68-4.52,21.24-8.88,19.3-12.82,38.59-12.09,58.15-.06a74.16,74.16,0,0,0,19.44,8.33c9,2.4,14.36,7.48,13.59,15C269.72,936.36,263.61,940.94,252.45,940.7Z" transform="translate(-36.39 -59.41)"/><path class="cls-1" d="M498,896.58c11.19-.53,20.35,3.27,29.34,8.72a83.9,83.9,0,0,0,20.36,8.57c8.44,2.4,13.28,7.32,12.53,14.91s-6.38,12-15.22,12c-10.66.05-19.79-3.94-28.47-9.81-15.28-10.35-21.79-10.38-36.83,0-8.92,6.15-18.4,10-29.36,9.82-8.25-.17-13.61-4.67-14.33-12s3.61-13.51,11.67-14.41c8.49-.94,15.39-4.6,22.06-9.37C478.29,898.86,487.88,895.88,498,896.58Z" transform="translate(-36.39 -59.41)"/><path class="cls-1" d="M819.69,940.71c-8,.2-16.84-4-25.25-9.63-15.67-10.51-21.88-10.51-37.58.26-8.69,6-18,9.6-28.57,9.44-8.35-.12-13.68-4.45-14.53-11.76-.88-7.6,3.9-12.75,12.25-15.08,6.78-1.9,13.76-4.25,19.65-8,20.56-13,39.94-13,60.72.21,5.65,3.58,12.31,5.93,18.82,7.68,8.53,2.3,13.38,7.16,12.76,14.72C837.33,936.42,831.38,941,819.69,940.71Z" transform="translate(-36.39 -59.41)"/><path class="cls-1" d="M170.91,399.89a72.44,72.44,0,0,1-.93,8.87,12.83,12.83,0,0,1-13,10.14c-6.23-.06-11.69-4.1-12.67-10.43a64.87,64.87,0,0,1-.42-15.13c.65-8.09,5.88-12.71,13.38-12.65s12.32,4.76,13.2,12.93a59.2,59.2,0,0,1,0,6.25Z" transform="translate(-36.39 -59.41)"/><path class="cls-1" d="M240.12,400.11c0,12.51-4.8,19.05-13.84,18.8-8.74-.23-13.15-6.46-13.17-18.64,0-2.09-.11-4.19.06-6.27.66-8.25,6.17-13.51,13.85-13.32,7.29.17,12.44,5.3,13.08,13.16C240.26,395.92,240.12,398,240.12,400.11Z" transform="translate(-36.39 -59.41)"/><path class="cls-1" d="M309.92,400.63a57.66,57.66,0,0,1-1,8.47,12.83,12.83,0,0,1-13.23,9.8,12.63,12.63,0,0,1-12.39-10.77,70.86,70.86,0,0,1-.35-14.27c.53-8.28,5.38-13,12.87-13.16s12.6,4.36,13.72,12.4C309.79,395.16,309.75,397.26,309.92,400.63Z" transform="translate(-36.39 -59.41)"/><path class="cls-1" d="M764,622.53c4.19,0,8.4-.26,12.56.06,7.25.57,11.79,5,12.48,11.77.71,7-3.36,13.76-10.5,14.38a166.64,166.64,0,0,1-30.38-.09c-7.2-.69-11.08-7.37-10.29-14.49.71-6.51,5.51-11.09,12.67-11.59,4.47-.31,9-.06,13.46-.06Z" transform="translate(-36.39 -59.41)"/><path class="cls-1" d="M240.07,223.81a63.3,63.3,0,0,1,0,7.16c-.8,7.19-6.19,12.33-12.95,12.58-7,.27-13.05-5.1-13.81-12.62a78,78,0,0,1-.1-11.64c.42-8.79,6.2-14.63,14-14.32,7.45.29,12.56,5.91,13,14.35.08,1.5,0,3,0,4.49Z" transform="translate(-36.39 -59.41)"/><path class="cls-1" d="M240.14,278c0,1.79.1,3.59,0,5.38-.57,8.26-6.07,13.76-13.61,13.68s-12.85-5.63-13.33-14a89.66,89.66,0,0,1,0-10.75c.55-8.19,6.26-13.85,13.62-13.77s12.8,5.8,13.32,14.08C240.23,274.44,240.14,276.24,240.14,278Z" transform="translate(-36.39 -59.41)"/></svg>