<svg id="Layer_1" data-name="Layer 1" xmlns="http://www.w3.org/2000/svg" viewBox="0 0 792.33 847.34"><defs><style>.cls-1{fill:#ff6d00;}</style></defs><path class="cls-1" d="M775.63,587.28c5-4.89,9.54-9.27,14-13.69,9.47-9.31,16.06-9.41,25.42-.1q26.32,26.21,52.5,52.55c8.55,8.6,8.56,15.55,0,24.18-4.39,4.43-9.13,8.53-14,13,2.36,5.94,4.4,11.12,6.7,16.92,7.09,0,14.18-.13,21.25,0,10.12.22,15.32,5.21,15.38,15.28q.22,39.27,0,78.55c-.05,10.1-5.22,15.14-15.29,15.38-6.81.17-13.64,0-21.09,0-2.19,5.15-4.38,10.26-7.38,17.29,5,4.4,10.56,8.81,15.53,13.82,7,7.12,7.1,14.64.11,21.71q-27.58,27.94-55.54,55.54c-7.13,7-14.51,7-21.71,0-4.89-4.73-9.35-9.92-14.22-15.13l-17,6.72c0,7.07.13,14.15,0,21.23-.23,10.11-5.23,15.32-15.29,15.38q-39.27.22-78.55,0c-10.12,0-15.07-5.2-15.39-15.28-.1-3.42,0-6.83,0-10.25V889.61l-17.22-7.52c-4.23,4.83-8.44,10.2-13.24,15-7.81,7.8-15.08,7.72-22.95,0C585.9,885.6,574.22,874,562.48,862.36a4.63,4.63,0,0,0-1-.51q-35.28,27.21-70.76,54.54c-17.07,13.14-17.49,13.29-34.27,0-32.1-25.43-65.3-49.67-95.84-76.86-105.94-94.29-179.44-209.86-221.7-345.22A758.14,758.14,0,0,1,104.75,276c-.18-15.1,3.89-19,19-19.38q166.12-3.72,285.62-119.23c17.37-16.82,34.25-34.16,51.4-51.23,9.62-9.57,15.72-9.55,25.37-.14,24.45,23.83,47.88,48.83,73.58,71.23,56.54,49.28,122.32,80.37,196.41,92.63,22.92,3.8,46.31,4.9,69.53,6.68,12,.92,16.71,5.13,16.64,17.6a758.17,758.17,0,0,1-63.52,300.78c-1.36,3.13-2.73,6.25-4,9.41C774.67,584.7,775.06,585.29,775.63,587.28Zm-29-248.6c-5.27-.5-9.51-.95-13.75-1.29-70-5.68-132.92-30-187.11-74.6-23-18.93-43.42-41-65-61.59-2.37-2.26-4.75-4.51-8.3-7.87C454.83,211.42,438.6,229.42,421,246q-75,70.59-176.87,87.69c-14.22,2.38-28.63,3.64-43.41,5.48a100,100,0,0,0,0,10.26c2.52,23.74,3.94,47.68,8,71.15,20.38,118,73.17,219.5,159.06,302.83,29.72,28.84,63.12,53.9,94.88,80.66,3.43,2.89,7.05,5.55,11,8.65l40.81-33.09c0-28.24-.06-55.56,0-82.88,0-11.69,4.92-16.43,16.7-16.55,6.75-.08,13.5,0,20,0L558.07,663c-5.18-4.72-10.69-9.24-15.61-14.33-6.61-6.84-6.66-14.32,0-21.08q27.87-28.26,56.14-56.14c6.72-6.62,14.23-6.54,21.08.1,5.08,4.93,9.59,10.45,14.29,15.65l16.51-6.84a12.5,12.5,0,0,0,.52-2.24c.06-6,0-12,.12-17.93.16-11.73,4.91-16.53,16.64-16.63,11.35-.09,22.7,0,34.28,0C729.89,478.09,744.53,410.26,746.58,338.68Zm-196,449.22c-4.11,2.44-7.6,4-10.49,6.31-18.21,14.57-36.28,29.33-54.42,44-9.93,8-14.2,8-24,.11-19.93-16.09-39.6-32.49-59.76-48.26-68.2-53.37-123.19-117.76-163.07-194.77Q173.91,470,173.19,328.79c0-4.47,1.26-10.33,4.23-13.05,3.27-3,9.16-4.21,14-4.33,75.57-1.86,142.8-26.32,200-75.78,24.27-21,46.17-44.71,69.12-67.23,10.11-9.91,16-10,26-.12,18,17.86,35.6,36.05,53.85,53.61,60.06,57.77,132,87.23,215.22,89.34,14.46.37,18.64,4.49,18.49,19.12a581.13,581.13,0,0,1-38.57,203.32c-1.15,3-2.14,6.09-3.36,9.58,10.17,1.06,20.22-2.39,27.23,7.41,35.42-86.27,53.78-174.54,55.53-266-17.94-1.94-34.68-3.23-51.27-5.63C686.79,267.9,617.33,238.8,557,190.14c-27.15-21.89-51.29-47.5-76.8-71.42L472,111c-17.76,18.47-34.13,37.14-52.19,54Q313.9,263.93,169.65,280.84c-12.31,1.45-24.69,2.32-38.38,3.58,12.79,261,129.47,462.44,342.91,610.28l67.3-51.94c-5.89-12.27-5.38-15.75,4.3-25.16,4.05-3.94,8.68-7.28,12.59-10.51Zm-8.28-25.78c5.91,0,11.26-.07,16.61,0,9.09.14,12.63,2.89,15.88,11.23Q580,786.83,585.87,800c3.59,8.1,3.09,12.74-3.29,19.25-3.9,4-8.16,7.59-11.12,10.32l39.44,39.71c1.15-1.44,2.65-3.53,4.37-5.43,1.9-2.11,4-4.08,6-6,6.59-6.27,11.1-6.84,19.26-3.21,8.54,3.8,17.17,7.46,25.91,10.78,9.17,3.48,11.87,7,12,17.12.05,5.27,0,10.54,0,15.75H733.1c0-6.3,0-12.2,0-18.1.06-7.08,3.55-11.54,10.19-14.09,9.53-3.66,19-7.51,28.29-11.7,6.79-3.07,12.68-2.49,17.93,2.79,4.16,4.18,8.15,8.53,11.54,12.08l39.58-39.2c-4.09-3.76-8.63-7.65-12.84-11.87-5-5-5.5-10.75-2.63-17.22,4.14-9.33,8.13-18.74,11.71-28.29,2.63-7,7.24-10.59,14.69-10.58h17.49V707.47c-6,0-11.41.09-16.8,0-8.58-.17-12.23-3-15.32-10.8q-5.48-13.85-11.43-27.49c-3.39-7.75-2.92-12.39,3.15-18.51,4-4,8.47-7.54,12.36-11l-40.16-40.35c-3.47,4-6.94,8.53-11,12.51-6.16,6.12-10.82,6.61-18.51,3.26q-13.65-5.93-27.49-11.42c-7.83-3.09-10.64-6.75-10.8-15.33-.11-5.6,0-11.21,0-16.93H678.44v17.5c0,7.44-3.57,12.05-10.61,14.68-9.55,3.58-19,7.57-28.27,11.73-6.49,2.88-12.23,2.3-17.22-2.66-4.22-4.21-8.1-8.77-11-12L571.7,640.08c3.25,3,7.36,6.53,11.12,10.4,6.25,6.43,6.67,11.1,3,19.3-3.92,8.8-7.58,17.72-11.11,26.69-3.1,7.89-6.78,10.79-15.22,11-5.62.12-11.23,0-17.25,0Z" transform="translate(-104.74 -78.96)"/><path class="cls-1" d="M446.26,537.43c2.55-2.41,4.84-4.46,7-6.62q78.18-78.15,156.34-156.32c11.6-11.59,16.82-11.61,28.39-.05,11.28,11.25,22.58,22.48,33.79,33.81,9.09,9.18,9.11,15.57-.08,24.77Q565.2,539.6,458.63,646.08c-9.2,9.2-15.59,9.2-24.74.06q-52-51.85-103.82-103.81c-9.25-9.27-9.27-15.54-.17-24.72q18-18.19,36.22-36.22c8.45-8.35,15.1-8.42,23.53-.08,16.78,16.61,33.41,33.38,50.12,50.07C441.74,533.34,443.84,535.18,446.26,537.43Zm-66.7-27.63-20.81,20.07L445.82,617,642.66,420.16,623.21,399.9c-2.06,2-4.33,4-6.5,6.19q-78.5,78.46-157,157c-10.69,10.69-16.36,10.63-27.19-.19C414.64,545,396.76,527,379.56,509.8Z" transform="translate(-104.74 -78.96)"/><path class="cls-1" d="M610.16,734.72a95.87,95.87,0,0,1,96.35-95.54c52.4.16,95,43.36,94.84,96.13S757.9,830.7,704.62,830.4C652.71,830.1,609.92,786.76,610.16,734.72Zm27.31.11A68.36,68.36,0,0,0,706,803.07c37.28,0,68-30.68,68-67.87a68.29,68.29,0,1,0-136.58-.37Z" transform="translate(-104.74 -78.96)"/><path class="cls-1" d="M705.12,693.84A40.94,40.94,0,1,1,664.82,735C664.63,712.72,683,694,705.12,693.84Zm1,54.55a13.61,13.61,0,1,0-14-13A13.73,13.73,0,0,0,706.11,748.39Z" transform="translate(-104.74 -78.96)"/></svg>