<svg id="Layer_1" data-name="Layer 1" xmlns="http://www.w3.org/2000/svg" viewBox="0 0 934.61 934.71"><defs><style>.cls-1{fill:#ff6d00;}</style></defs><path class="cls-1" d="M971.4,953.8c-3.92,7.26-10,9.46-18.16,9.46q-448.92-.19-897.86-.12c-14.11,0-18.57-4.43-18.57-18.47q0-218.53,0-437.06c0-12.57,2.47-15.72,14.72-19.39q142.23-42.62,284.41-85.35a42.49,42.49,0,0,1,25.78.05Q457.56,432,553.59,460.57c3.15.94,6.39,1.58,10.73,2.64,0-15,0-29.18,0-43.38,0-15.68,4.2-20,20-20q149.64-.09,299.29,0c15.39,0,19.72,4.33,19.74,19.49q.12,69.81,0,139.61a33.9,33.9,0,0,1-1,9c-1.78,6.28-6.42,9.71-12.76,9.83-6.76.12-11.69-3.39-13.42-10.1a43.58,43.58,0,0,1-1-10.84q-.1-58.39,0-116.79V428.64H774.4v8.49c0,18.24.06,36.49,0,54.74-.06,12.78-4.92,17.87-17.52,18-15.21.2-30.42.18-45.62,0-13-.14-17.66-4.81-17.74-17.62-.1-17.94,0-35.88,0-53.83v-9.72H592.68V472c11.14,3.43,22.64,7,34.16,10.51,6.67,2,13.42,3.86,20.09,5.93,11.08,3.44,14,7.33,14,19.23q.09,73.45,0,146.91V666.8H875.14c0-14.07-.06-27.65,0-41.24a60,60,0,0,1,.8-11.78c1.43-6.76,6-10.38,12.94-10.65s12.21,3.81,13.73,10.82a48.69,48.69,0,0,1,.75,10c.08,14,0,27.94,0,43.5H921c10.64,0,21.3.3,31.93-.1,8-.31,14.15,2.4,18.52,9.1Zm-828.52-19h35.47V923.49q0-44.72,0-89.42c0-4.56-.15-9.14.15-13.68.64-9.57,5.53-14.32,15.11-14.58,7.9-.21,15.82,0,23.72,0h39V794c0-32.85-.05-65.7,0-98.54,0-14.68,4.58-19.23,19-19.24q73.44,0,146.9,0c14.08,0,18.45,4.39,18.47,18.55q.08,50.19,0,100.37v9.3c1.6.69,2.13,1.12,2.66,1.12,19.16.1,38.32.13,57.47.23,13.5.06,18.09,4.59,18.11,18q.08,50.64,0,101.28v9.54h35.29v-342H142.88v10.49c0,19.47.12,38.94-.07,58.4-.1,9.68-5.79,16-13.83,16.09-8.24.14-13.93-5.91-14-15.66-.15-23.73-.25-47.45.06-71.17.19-14.43,9.55-24.55,23.83-26.65a69.36,69.36,0,0,1,10-.45q199.83,0,399.65,0c24.48,0,34.26,9.82,34.27,34.28V935h49.42V513.63c-2.56-.92-4.52-1.73-6.53-2.33q-135.24-40.51-270.56-80.79c-4.52-1.33-10.19-.73-14.83.64q-114.84,34-229.52,68.49c-15.34,4.59-30.65,9.28-45.57,13.81V934.56h49.71V922.94q0-99,0-198a83.78,83.78,0,0,1,.25-10C116,708,120.14,704,127,703a13,13,0,0,1,14.78,9.38,38.44,38.44,0,0,1,1.08,10.79q.09,99.9,0,199.82Zm518.6-238.7V934.73H943.33V696.34H842.65v10.84c0,18.25.15,36.49-.1,54.73-.14,10-4.89,15.12-14.2,15.26q-26.45.41-52.9,0c-7.6-.12-12.45-4.77-13.56-12.23a66.74,66.74,0,0,1-.3-10c0-19.41,0-38.81,0-58.83Zm-298,137.8V934.72H490.67V834.21H440.78c0,6,.09,11.45,0,16.86-.22,10-5.18,16-13.39,16.22-8.46.28-14.21-6.12-14.46-16.26-.14-5.64,0-11.28,0-17.16Zm-.89-129.61c0,6.4.12,11.82,0,17.23-.27,10.08-5.23,16-13.42,16.25-8.41.26-14.2-6.14-14.52-16.31-.18-5.63,0-11.27,0-16.7H285.51V805h126.6V704.26ZM207,934.62H333.82V834.35h-49.2c0,6.22.22,11.69-.05,17.12-.48,9.9-5.89,15.83-14.05,15.81s-13.62-6-14-15.85c-.26-5.66-.05-11.34-.05-17.25H207ZM790.3,696v52.82h23.56V696ZM745.88,481.19V428.67H722v52.52Z" transform="translate(-36.79 -28.55)"/><path class="cls-1" d="M513.33,28.55C521.22,35,529.77,40.79,536.87,48c21.52,21.89,42.6,44.22,63.62,66.59,11.71,12.47,7.84,30.51-7.39,35.41-3.1,1-6.58,1-9.89,1.07-7.22.15-14.44.05-22.89.05V162.7q0,51.53,0,103.05a82.56,82.56,0,0,1-.54,10.9c-1.84,13.5-10.88,22-24.54,22.22q-31,.51-62,0c-13.61-.22-23.31-8.73-24.43-22.22a290.94,290.94,0,0,1-.31-36.41c.36-8.3,6-13.07,13.48-13.2,7.88-.13,13.61,4.83,14.13,13.56.56,9.67.13,19.4.13,29.82h55.29c.17-3.27.5-6.75.5-10.24,0-34.95.68-69.92-.2-104.86-.61-24.18,10.75-34.45,31.88-32.09,1.38.15,2.82-.18,6.07-.43L504.24,54.17l-66,69.13c6.72,0,11.16-.17,15.58,0,12.17.55,21.15,8,21.94,20.13,1,14.82.77,29.76.31,44.63a13.78,13.78,0,0,1-14.2,13.7c-7-.24-12.85-5.65-13.4-13.6-.59-8.47-.27-17-.33-25.52,0-3.55,0-7.09,0-11.56-9.08,0-16.91-.1-24.74,0-9.47.15-16.65-3.75-20.49-12.38-4-9-1.75-17.14,5-24.21,23.95-25,47.72-50.26,71.89-75.08,4.3-4.42,10.17-7.32,15.31-10.92Z" transform="translate(-36.79 -28.55)"/><path class="cls-1" d="M166.64,262.65c-7,7.53-12.31,13.37-17.79,19-6.75,7-14.83,9.67-24,5.76s-12.94-11.33-13.12-21.07c-.65-34-1.53-68.09-2.1-102.13-.39-23,13-36.16,36.22-35.75,33.74.61,67.48,1.48,101.22,2.09,10.09.19,17.79,4,21.66,13.59,3.77,9.33.69,17.24-6.25,23.92-5.46,5.27-11,10.45-17.22,16.31,2.85,3.08,5,5.5,7.23,7.77q38,38.09,76.09,76.13c15,15,14.89,28-.21,43.16Q310,329.9,291.56,348.21c-14,13.83-27.36,13.9-41.19.14q-38.16-38-76.12-76.11C171.91,269.89,170.08,267,166.64,262.65Zm103.14,65.18,39.15-39.13c-1.21-1.31-3-3.36-4.88-5.27q-40-40-79.93-80c-12.22-12.3-12.05-24.09.1-36.58,2.33-2.39,4.61-4.83,6.9-7.25-.39-.7-.78-1.4-1.16-2.1H137.21c.78,31.23,1.55,61.6,2.35,93.58,3-2.79,4.59-4.16,6.08-5.63,15.88-15.58,25.88-15.5,41.78.38q38.07,38,76.11,76.08C265.85,324.22,268.29,326.42,269.78,327.83Z" transform="translate(-36.79 -28.55)"/><path class="cls-1" d="M765,185.87c-7.81-7.28-13.38-12.43-18.89-17.64-7.3-6.91-10.35-15.14-6.18-24.71,3.94-9,11.47-12.75,21.2-12.93,33.75-.61,67.49-1.48,101.23-2.09,23.72-.43,36.85,12.69,36.43,36.45-.59,33.74-1.46,67.48-2.08,101.23-.18,9.73-3.94,17.28-13,21.19-9.56,4.13-17.8,1.09-24.73-6.19-5.23-5.5-10.43-11-16.18-17.11-3.11,2.94-5.54,5.12-7.85,7.42q-38.07,38-76.13,76.1c-14.72,14.67-27.84,14.69-42.5.11-12.72-12.65-25.46-25.28-38-38.07-12.92-13.13-12.9-26.74.15-39.88q38.25-38.5,76.77-76.74C757.6,190.68,760.64,189,765,185.87Zm11.13-27.44c2.57,2.76,3.56,3.88,4.61,4.95,17,17.44,17,26.65-.06,43.75Q743,244.84,705.26,282.55c-2.31,2.31-4.51,4.72-5.63,5.9L740,328.81c2.69-3.23,5.7-7.47,9.31-11.11q36.63-36.88,73.47-73.54c13.64-13.59,24.94-13.61,38.54-.29,2.07,2,4.28,3.91,8.28,7.56v-95.3Z" transform="translate(-36.79 -28.55)"/></svg>