<svg id="Layer_1" data-name="Layer 1" xmlns="http://www.w3.org/2000/svg" viewBox="0 0 871.41 872.49"><defs><style>.cls-1{fill:#ff6d00;}</style></defs><path class="cls-1" d="M499,157.72c10.92,5.4,21.39,9.24,30.35,15.3,19,12.83,31.19,31.48,32,54.18,1.33,37.49,2,75.27-1.08,112.59-3.39,40.54-26.17,70.84-60.58,92.44-3.78,2.37-7.53,6.23-9.2,10.27A147.05,147.05,0,0,1,444,503.66c-2.71,2.11-5.85,5.82-5.91,8.85-.49,23-.27,46-.27,69.59,22.64,6.54,45,12.95,67.27,19.42,15.26,4.43,20.93,11.23,18,21.39-2.84,9.92-11.45,12.58-26.82,8.2-20.53-5.84-41.1-11.57-61.56-17.68-5.19-1.55-8.75-.94-12.87,3-12.79,12.09-28.54,18.75-46.28,22.78q0,42.29,0,84.49c0,3.56.18,7.15-.11,10.69-.73,8.92-6.59,14.63-15,14.85-8.67.23-15.52-5.76-15.78-15-.42-14.89-.14-29.81-.17-44.71q0-23.82-.14-47.63a13.35,13.35,0,0,0-.7-2.6A103.4,103.4,0,0,1,294.87,614c-1.54-1.42-5.42-1.33-7.84-.65-38.92,11-78,21.45-116.59,33.48-44.21,13.78-74.23,55.53-74.83,102-.25,19.76,0,39.53-.09,59.29-.06,12.12-6.13,19.33-15.8,19.12-9.34-.2-15.26-7.19-15.14-18.76.27-25.25-1.61-50.83,1.76-75.68,8.15-60,42.94-99.24,100.59-117.28,35.79-11.2,72.09-20.78,108.16-31.11,2.15-.62,4.27-1.4,7.2-2.37,0-23.59.13-47.17-.21-70.74,0-2.27-2.51-5.09-4.6-6.65a143.8,143.8,0,0,1-48.25-63.28c-1.48-3.72-5.46-7-9-9.24-39.6-25.18-60.61-61.05-62.18-108-.45-13.21,10.82-20.84,22.08-15.67,6.75,3.1,8.71,8.91,8.85,15.93.34,17.54,5.45,33.87,14.27,48.85,3.82,6.48,9.28,12,14,17.95l2.24-1c.22-2.69.61-5.38.61-8.07.05-27.22-.09-54.44.06-81.66.25-46.07,33.78-79.56,79.94-79.74q60.27-.24,120.54,0c45.5.22,79.06,33.81,79.38,79.33.19,26.89,0,53.79.06,80.68A20.77,20.77,0,0,0,502.43,391c4.29-5,9.3-9.52,12.74-15,10.3-16.5,16.09-34.52,16.06-54.18,0-27.87.09-55.74,0-83.61-.13-27.52-17.79-46.49-45.1-48.77-11.76-1-16.45-5.89-17.15-17.95-2.56-43.86-35.42-75.34-79.43-75.31-27.18,0-54.63-1.22-81.49,2-66.44,8-117.95,67.32-119.09,134.22-.05,3.24,0,6.49-.06,9.72-.33,10.89-6.08,17.37-15.39,17.43s-15.39-6.34-15.58-17.2c-.92-52.47,17.37-97.09,56-132.61,32.06-29.44,70.41-44.26,114-44.62,25.26-.21,50.79-1.8,75.73,1.14C454.71,72.28,487.85,105.64,499,157.72ZM360.54,251.65c-21,0-42.08-.25-63.12.07-26,.39-46,20.43-46.22,46.49-.3,31.4-.49,62.81.08,94.2.45,24.87,7.82,47.75,23.4,67.55,27.62,35.12,77.08,48.85,122.07,34,42.68-14.13,71.07-53.18,72.06-100.51.66-31.39.34-62.8.12-94.2-.18-27.64-20.28-47.33-48.18-47.53C400.68,251.52,380.61,251.64,360.54,251.65ZM313.36,523.47c0,21.19-.1,41.23.14,61.26,0,2.23,1.52,4.89,3.14,6.6,22.93,24.24,64.28,23.92,87-.59,1.25-1.35,2.86-3.14,2.88-4.73.2-20.51.13-41,.13-62.37C375.26,533.91,345.08,534.18,313.36,523.47Z" transform="translate(-64.3 -63.76)"/><path class="cls-1" d="M816.74,884.16l-36.19,15c-.18,2.36-.35,5.19-.6,8C778.51,923.24,766,935.4,749.86,936c-9.71.38-19.44.15-29.16.09-20.22-.13-32.78-12-34-32-.1-1.59-.21-3.19-.32-4.87l-36.5-15.18c-1.88,1.6-4.26,3.73-6.75,5.73-11.91,9.59-27.78,10-39.26-.06a279.43,279.43,0,0,1-26.13-26.06c-11.75-13.39-9.6-29.07,5.52-46.25l-15-36.13c-1.85-.18-4.35-.45-6.85-.67-17.76-1.55-29.79-14.23-30.13-31.93-.15-7.45,0-14.91,0-22.36,0-27.07,9.67-37.51,36.9-39.55l15-36a1.66,1.66,0,0,0-.34-1.07c-17.64-20.82-17-34.07,2.54-53.65,4.58-4.59,9.13-9.21,13.76-13.74,15.09-14.78,31.42-15.25,47.43-1.43,1.2,1,2.36,2.12,3.3,3l35.86-14.94c-.1.15.51-.35.57-.91,2.69-27.36,12.43-36.23,39.87-36.23,6.81,0,13.61,0,20.41,0,20.21.2,32.36,12,33.47,32.45.09,1.57.3,3.13.43,4.47l36.21,15c3.13-2.45,6.24-5.32,9.76-7.54,13-8.15,27.14-6.94,38.43,3.48,7.13,6.59,13.91,13.57,20.69,20.54,14,14.33,14.52,30.78,1.7,46-1.24,1.47-2.57,2.86-4,4.49,2.74,6,5.58,11.74,8,17.65s4.57,12,7,18.5c2.22.17,4.42.36,6.62.49,17.83,1.06,30.2,13.55,30.66,31.29.25,9.72.15,19.44,0,29.16-.23,18.93-12.21,31.49-31.2,32.86-1.91.14-3.82.25-5.65.36l-15.05,36.13c2.52,3.31,5.59,6.68,7.9,10.52,7.68,12.75,6.32,26.56-3.75,37.63-5.23,5.74-10.88,11.11-16.39,16.6C851.86,901.42,838,902,816.74,884.16ZM749,904.92c0-6.28,0-11.71,0-17.14,0-8.52,4.19-13.46,12.21-16.56,16.8-6.5,33.38-13.57,49.9-20.77,7.76-3.39,14.4-3,20.25,3.39,3.71,4,7.31,8.18,10.88,12.17l23.42-23.15c-3.58-3.17-7.34-6.2-10.76-9.57-8.86-8.73-8.61-13.63-3.17-24.94a424.65,424.65,0,0,0,18-43.74c3.86-11,7.42-14.72,19.39-15.08,5-.15,10,0,15,0V718.23c-6.23,0-12,.33-17.73-.09-7.68-.56-12.78-4.07-15.74-12-6.29-16.87-13.51-33.4-20.7-49.92-3.38-7.75-3-14.41,3.42-20.26,4-3.7,8.17-7.31,12.42-11.09-8.06-8-15.12-15.08-23.32-23.27-3.27,3.68-6.3,7.44-9.68,10.86-8.74,8.84-13.63,8.58-25,3.12a425.67,425.67,0,0,0-43.75-18c-10.9-3.83-14.69-7.45-15-19.42-.16-5,0-10,0-14.88H717.81c0,5.93,0,11.37,0,16.8,0,8.51-4.22,13.47-12.23,16.57-16.79,6.5-33.38,13.57-49.9,20.76-7.75,3.38-14.42,3-20.25-3.41-3.7-4-7.27-8.2-11-12.46l-23.31,23.32c3.92,3.53,7.91,6.81,11.53,10.44,7.9,7.9,7.69,13.21,2.9,23.44a482.68,482.68,0,0,0-18.66,45.53c-3.11,8.92-8,13.72-17.3,14-5.42.16-10.85,0-16.78,0v31.24c5.64,0,10.75.11,15.85,0,9.45-.25,14.57,4.43,17.88,13.19,6.12,16.24,12.91,32.25,20,48.11,3.61,8.06,3.69,14.94-3,21.12-4,3.71-8.22,7.24-12.52,11l24.19,24.1c4-4.85,7.47-10,11.83-14.24,5.76-5.64,12.22-5.36,19.63-2,15.79,7.21,31.84,13.93,48.09,20,8.79,3.3,13.41,8.44,13.15,17.88-.15,5.34,0,10.68,0,16.17Z" transform="translate(-64.3 -63.76)"/><path class="cls-1" d="M779.87,63.76c63.12,1.1,120.66,39.93,144.29,98.53,23.86,59.17,9.68,127.34-36.84,170.49-18.56,17.22-26.5,37.07-25.67,62.06,1.57,47.51-25.81,81.75-69.5,88.64-45.32,7.14-84.54-21.35-91.68-67.3-2.12-13.68-1.77-27.73-3.48-41.5-2-16-10-28.75-21.93-39.85-43.91-40.75-59.53-91.24-45.4-149C644,127,680.49,87,739.83,70.39,752.78,66.76,766.5,65.9,779.87,63.76Zm52,307.23c4.26-25.22,17-44.17,34.61-61.19,30.66-29.63,42.69-66.41,36.44-108.78-7.53-51.07-49.13-93.93-99.53-102.83C748.74,88.55,696.43,113.73,670,162.36c-24.94,45.92-17.61,105.8,19.54,143.13,18.72,18.82,34.77,38.21,38.71,65.5ZM730,403c.87,31.43,24.91,53.13,54.16,50.45,32-2.93,48.43-30.44,45-50.45Z" transform="translate(-64.3 -63.76)"/><path class="cls-1" d="M220,789.27c0,7.45.3,14.91-.07,22.34-.47,9.27-6.94,15.53-15.38,15.54s-15-6.25-15.4-15.5a264.32,264.32,0,0,1,0-28.15c.55-8.37-1.56-14.81-8.16-20.35-3.26-2.74-7.24-7.56-6.86-11a26.79,26.79,0,0,1,7.41-15.45c5.23-5,11.84-3.13,17.7,1.21C216.65,750.86,225,767.34,220,789.27Z" transform="translate(-64.3 -63.76)"/><path class="cls-1" d="M356.37,454a81.37,81.37,0,0,1-41.8-16.07c-9.94-7.61-11.54-17.3-4.9-25.19,6-7.12,14.33-7,24,.42,17.09,13,35.34,12.71,52.86.24,4.5-3.2,11.49-6,16.45-4.87,12.57,2.73,15,17.45,5.32,26.7C396.53,446.43,377.5,453.75,356.37,454Z" transform="translate(-64.3 -63.76)"/><path class="cls-1" d="M735.75,842C677.5,844.21,631.48,802.64,625,742c-5.64-52.67,34.24-104.68,88-114.93,17.87-3.41,35.43-2.73,52.72,3.07,12.95,4.34,17.55,11.08,14.41,21-3,9.68-11,12.54-23.9,8.54-36.9-11.51-77.62,6.91-94,42.53C646.6,736,659,779.71,690.69,798.91c27.1,16.45,55.48,17.06,83.07,1.37,27.22-15.48,37.58-40.89,37.3-71-.06-7.28-2.94-14.53-4.46-21.8-2.16-10.27,1-17.4,8.7-20,8.82-3,17.14.69,20.89,10.81,8.15,22,7.59,44.47,1.24,66.83C824.32,811.1,785.88,840.13,735.75,842Z" transform="translate(-64.3 -63.76)"/><path class="cls-1" d="M857.5,213.64c-.2,8.18-5.62,14.12-13.64,15-8.39.89-15.31-3.08-16.69-11.27-4.23-25.13-18.41-39.59-43.64-43.78-8.07-1.34-12.48-8.59-11.72-16.54.74-7.76,7-14.26,14.92-13.73C823.18,145.75,854.19,175.24,857.5,213.64Z" transform="translate(-64.3 -63.76)"/></svg>