<svg id="Layer_1" data-name="Layer 1" xmlns="http://www.w3.org/2000/svg" viewBox="0 0 941.2 800.91"><defs><style>.cls-1{fill:#ff6d00;}</style></defs><path class="cls-1" d="M381.67,710.6c-58.08-42-77.67-65.36-124.43-148.49h-168v49.6c13.91,5.51,25.17,14.48,30.54,29.49a45.49,45.49,0,0,1,.66,29.42c-6.12,19.85-25.9,33.7-46.41,32.6-21.25-1.14-39.72-16.87-43.42-37.65-3.33-18.72,3-41.84,32.68-53.94,0-9.75,0-20,0-30.2,0-10-.16-20,0-30,.21-10.77,4.58-15.07,15.37-15.6,2.57-.13,5.15,0,7.73,0H244.75c-7.77-31.11-15.36-61.51-23.15-92.72H121.69c-16,28.07-34.44,38.07-58,31.61C43.24,469.07,29.46,450.12,30,428.3A46.27,46.27,0,0,1,65,384.89c23.17-5.77,42.36,5,56.4,31.75h97.91v-92c-4.08-.18-7.49-.46-10.91-.46q-62.87,0-125.75,0c-15.58,0-19.36-3.81-19.39-19.4,0-18.68,0-37.36,0-56.53-14-5.36-24.76-14-30.25-28.08a45,45,0,0,1-1.44-29.38c5.83-20.47,24.46-34.44,45.26-34A46.29,46.29,0,0,1,121.31,193c5.24,23.69-5.21,42-32.6,55.69v49.18H218.88c.16-3.2.47-6.59.48-10q0-62.4,0-124.79c0-17.29,4.67-20.81,22-18,65.58,10.77,130.36,8.08,193.89-12.54,20.32-6.6,39.55-15.58,56.27-29.21,5.48-4.47,11.15-5,16.75-.61,33.92,26.43,73.81,37.15,115.23,43.58a420.17,420.17,0,0,0,138.57-1.65c13.9-2.46,19.09,2.21,19.11,16.47q.09,63.86,0,127.69c0,2.83.29,5.66.48,9.11H911.11V248.05c-13.84-5.32-25-14.43-30.34-29.41a45.27,45.27,0,0,1-.63-29.41c6.15-19.9,26.08-33.74,46.48-32.42,21.66,1.41,39.7,16.77,43.36,37.64,3.4,19.42-3.94,42.32-32.67,53.75v32.33c0,9.35.16,18.7,0,28.05-.25,10.64-4.86,15.26-15.5,15.49-10,.21-20,.05-30,.05H781.54v92.53h98c5.34-13.78,14.38-25.09,29.37-30.34a45.67,45.67,0,0,1,29.44-.47c20.38,6.45,33,24.6,32.3,46.33-.64,19.9-15.34,38-34.66,42.77-23.59,5.79-41.12-4-57.18-32.08H779L755.84,535.8h9.26q75.95,0,151.88,0c17,0,20.29,3.39,20.31,20.43,0,18.36,0,36.72,0,54.76,28.05,16,38.16,34.37,31.94,57.34-5.67,20.94-24.45,35.32-45.58,34.91a46.64,46.64,0,0,1-44.2-35.42c-5.68-23.9,4.65-42.37,31.89-56.39V562.12H743C714.83,622,675,672.92,618.8,710.54v130H726.53c14.63-26.79,33.5-37.27,56.34-31.39,20.9,5.38,34.86,23,35.12,44.24s-13.62,39.95-33.7,45.41c-23.59,6.41-41.46-3.23-58.49-32.11h-10q-52.23,0-104.47,0c-15,0-18.33-3.29-18.35-18q0-55.12,0-110.27V726.67c-3,1.1-5.33,1.73-7.47,2.8a394.25,394.25,0,0,1-78.68,29,29.71,29.71,0,0,1-14-.35A386.21,386.21,0,0,1,414.18,729c-1.67-.83-3.45-1.44-6.58-2.73v11.21q0,54.66,0,109.31c0,17.35-2.61,19.9-20.36,19.91H273.85c-5.42,15.49-15.66,26.89-31.87,31.9a44.12,44.12,0,0,1-29.38-1.08c-19.92-7.57-31.46-26.08-29.81-48,1.47-19.66,16.83-36.71,36.83-40.89,22.19-4.63,40.12,5.87,54.61,32.27H381.67Zm131.45,19.18c2.92-.57,4.2-.7,5.41-1.07,52.39-16,99.16-41.57,136.9-81.88,66.8-71.36,97.73-157.41,100-253.89,1.65-70.9.39-141.86.38-212.8,0-2.7-.43-5.4-.65-8-83.94,10.19-164.75,4.73-242-34.09v10.86c0,19.35,0,38.69,0,58a37.22,37.22,0,0,1-.94,9.56c-1.63,6-6,9.1-12.18,9-5.72-.1-9.86-3.13-11.43-8.69a36.28,36.28,0,0,1-1-9.55c-.09-19.67,0-39.34-.07-59,0-3.06-.3-6.13-.5-10-77.18,39-158.11,44-241.7,34-.17,3-.47,5.83-.47,8.65,0,70-.39,140,.18,209.91a386.86,386.86,0,0,0,41,171.43c40.53,81.2,103.1,137.27,190.29,164.73,3.27,1,6.62,1.85,11.22,3.12V718.39c0-21.93-.15-43.85.14-65.78.12-8.83,5.37-14.18,12.63-14.22s12.51,5.32,12.74,14.12c.35,13.53.13,27.08.14,40.62C513.13,705,513.12,716.87,513.12,729.78Zm390.35-73.6c-.35,11.21,9.09,21.2,20.39,21.55a20.95,20.95,0,1,0-20.39-21.55Zm-806.38.9a20.89,20.89,0,1,0-21.27,20.68C87,678,96.87,668.43,97.09,657.08Zm-21-433.37a20.58,20.58,0,0,0,21-20.49,20.86,20.86,0,0,0-20.91-20.76,20.63,20.63,0,1,0-.12,41.25Zm848.51-41.26A20.81,20.81,0,0,0,903.47,203a20.53,20.53,0,0,0,20.74,20.76c11.76.07,21-8.82,21.09-20.36A20.67,20.67,0,0,0,924.62,182.45ZM249.1,854.56c.15-12.14-8.19-21.12-19.87-21.38a21,21,0,0,0-1,41.89C239.66,875.42,249,866.29,249.1,854.56ZM96.55,430.1c.07-12.11-8.38-20.82-20.26-20.87A20.73,20.73,0,1,0,76,450.69C87.83,450.79,96.49,442.13,96.55,430.1Zm828.29,20.6a20.74,20.74,0,1,0-.77-41.47c-11.85.16-20.18,8.92-20,21.09C904.17,442.27,913,450.91,924.84,450.7ZM751.49,853.47c-.19,12.07,8.18,21.2,19.76,21.58a20.95,20.95,0,0,0,1.2-41.88C760.84,832.81,751.67,841.69,751.49,853.47Z" transform="translate(-29.8 -99.75)"/><path class="cls-1" d="M382.17,429.74c.1-81.85,82.27-139.14,158.93-110.81,5.38,2,10.77,4.66,11,10.8a18.54,18.54,0,0,1-4.35,11.9c-4.48,5-10.55,3.07-16.2,1a91.22,91.22,0,0,0-51.39-3.13c-45.21,9.95-76.59,52.67-72.38,98.39,4.36,47.41,42.82,83.24,91,84.84,44.64,1.47,85.22-32.26,92.79-77.14.49-2.86.89-5.73,1.36-8.59,1.44-8.77,6.52-13.17,14.17-12.32,7.38.81,12.15,6.68,10.84,15.36-1.53,10.13-3.3,20.44-6.73,30.05-19.26,54-74.72,86-131.52,76.36C424,537.08,382.1,487,382.17,429.74Z" transform="translate(-29.8 -99.75)"/><path class="cls-1" d="M509.29,429.83c3.57-3.42,6.14-5.79,8.61-8.26q56.42-56.38,112.8-112.79c1.36-1.37,2.71-2.75,4.12-4.09,7-6.66,14-7.45,19.53-2.23,6,5.65,5.65,12.84-1.71,20.23q-65.85,66.07-131.93,131.93c-7.71,7.67-14.18,7.69-21.78.23q-20.7-20.3-41-41c-6-6.12-6.88-11.71-3.35-17.34,4.6-7.33,13.55-8.11,20.68-1.15C486.55,406.36,497.44,417.78,509.29,429.83Z" transform="translate(-29.8 -99.75)"/></svg>