<svg id="Layer_1" data-name="Layer 1" xmlns="http://www.w3.org/2000/svg" viewBox="0 0 792.47 771.88"><defs><style>.cls-1{fill:#ff6d00;}</style></defs><path class="cls-1" d="M114.61,438.45c2.58-16.74,4.36-33.66,7.86-50.21,28.67-135.2,139.82-242.48,276.39-264,126.4-19.9,232.81,19.23,318.27,114.6,3.48,3.89,6.84,5.37,11.87,5.35,48.24-.14,96.47,0,144.71-.13,12.57,0,22.81,3.91,29.25,15.17,6.58,11.53,4.84,22.5-2.06,33.49q-45.46,72.36-90.55,144.94Q798.68,456.38,787,475.08c-1.32,2.12-2.47,4.35-4.41,7.82,3.82.29,6.47.67,9.11.68,24.77,0,49.53.16,74.29,0,14.24-.1,25.36,5,31.07,18.48s1.74,24.8-8.35,35.08q-73.46,74.8-146.54,150a33.87,33.87,0,0,1-5.11,4.71c-5.16,3.44-10.4,3.16-14.8-1.18s-4.83-9.55-1.4-14.77a37.71,37.71,0,0,1,4.61-5.2q72.15-73.92,144.34-147.83c.72-.74,1.72-1.34,2.13-2.22,1.4-3.06,4.27-6.85,3.4-9.17s-5.54-3.9-8.69-4.2c-6.65-.62-13.39-.19-20.1-.19-19.35,0-38.7-.18-58,.06-11,.14-19.68-3.66-25.1-13.46s-3.79-19.11,2-28.42q57.06-91.08,113.85-182.34a42.6,42.6,0,0,0,3.54-6c2-4.92.14-8.05-5-9a38.15,38.15,0,0,0-6.94-.25c-66.55,0-133.1.26-199.65-.16-22.41-.13-37.11,9.93-46.06,29.78q-54.75,121.53-109.53,243c-4.66,10.34-2.63,13.33,9,13.34,30.7,0,61.4,0,92.09,0,25.4.07,36.42,16.31,27.37,40.15Q596.62,719.17,549,844.48c-1,2.57-1.9,5.15-2.28,6.19,11.54-10.83,24.28-22,36.19-34.11,34.62-35,68.91-70.43,103.34-105.67a32.29,32.29,0,0,1,5.1-4.7c4.88-3.15,10-3,14.26.91,4.58,4.15,5.08,9.44,2,14.74-1.27,2.18-3.27,4-5.06,5.8q-75.1,77-150.32,153.89c-3.5,3.57-7.88,7-12.5,8.56-7,2.39-13.85.47-19.12-5.09-5.7-6-6.93-13.14-4.08-20.78,7.56-20.27,15.29-40.47,23-60.7,1.18-3.11,2.3-6.25,3.57-9.72-14.77,2.49-29.06,5.58-43.51,7.23-98.23,11.22-186.22-13.85-262.22-77.19-66.44-55.37-105.76-126.73-119.24-212.22-1.4-8.87-2.33-17.82-3.48-26.74Zm573.47-193.9.42-2.23c-1.36-1.51-2.64-3.1-4.09-4.52-80.54-79.07-177.06-109.91-287.56-89.34-177.23,33-290.38,207.19-251.14,382.85C184.2,703.65,358.5,812.75,529.89,772.45c17.09-4,29-10.07,32.52-28.63,1.65-8.72,6.17-16.89,9.33-25.33.73-2,1.23-4,1.93-6.35a16.65,16.65,0,0,0-2.34.34c-1.21.45-2.38,1-3.56,1.49q-77,33.21-159.59,18.88c-178-30.67-279.39-228.71-199.71-391,7.46-15.19,17.12-29.33,26.23-43.65,4.18-6.58,11.19-7.79,16.71-4.09,5.83,3.91,6.7,10.73,2.23,17.64-.7,1.08-1.52,2.09-2.25,3.15-42.63,61.3-56.56,128.67-40.61,201.48,36.11,164.77,223.9,248.11,370.29,164.64a21.27,21.27,0,0,0,8.51-10c11.07-28,21.65-56.23,32.3-84.4,1-2.68,1.48-5.57,2.48-9.45H613.91c-30.17,0-60.38-.74-90.52.24-24.26.79-41.22-23.32-29.83-45.65s20.92-45.92,31.32-68.92c29.8-65.89,59.63-131.77,89.77-198.38a32,32,0,0,0-3.23-2.79Q489,172.8,350,232.83c-23.83,10.31-44.82,25.3-64,42.82-7.23,6.61-14.71,6.63-19.44.39-4.11-5.41-2.62-11.77,4.24-18.13,98.06-90.92,251.92-96.78,356.4-13.38,5.64,4.51,10.15,7.26,17.56,3.53,4.86-2.44,10.92-3,16.51-3.37C670.2,244.16,679.15,244.55,688.08,244.55Z" transform="translate(-114.61 -119.23)"/><path class="cls-1" d="M720.09,369.46c-10.83,0-20.16-3.69-27.55-11.67-4.63-5-5.14-10.57-.69-16,4.16-5.07,10.69-5.35,16.51-1,9.55,7.11,13.28,7.08,23.15-.17,5.52-4.06,11.67-3.75,16,.8s4.5,10.89,0,16C740.22,365.55,730.91,369.31,720.09,369.46Z" transform="translate(-114.61 -119.23)"/><path class="cls-1" d="M809.44,343.33c0,2.83.39,5.73-.08,8.48-1.11,6.42-5.25,10.21-11.72,10.07S787,358,786.38,351.38a110.47,110.47,0,0,1-.1-14.67c.29-7.23,4.93-12,11.41-12.09s11.3,4.67,11.84,11.75c.18,2.31,0,4.64,0,7Z" transform="translate(-114.61 -119.23)"/><path class="cls-1" d="M653.42,343.76c0,12.64-3.46,18.16-11.48,18.25s-11.89-5.74-11.89-18c0-2.58-.14-5.17.07-7.73.61-7.07,5.54-11.78,12-11.63s10.93,4.84,11.31,12.17C653.52,339.12,653.42,341.44,653.42,343.76Z" transform="translate(-114.61 -119.23)"/><path class="cls-1" d="M247.77,476.17c-.22-19.35,13.32-35.72,32.59-37.91,26.37-3,52.83-5.23,79.29-7.45,10.3-.86,15.37,5,14.07,15.17-4.91,38.54,10.21,68.88,44.2,88.71,9.71,5.66,11,13,3.49,21.51-17,19.08-33.9,38.19-51.21,57-14.55,15.76-37.85,17.27-53.55,3C276.38,579.66,253.71,534,247.79,480A35.67,35.67,0,0,1,247.77,476.17Zm101.26-21c-22.56,2.14-44.34,3.93-66,6.43-8.05.93-12.73,7.82-11.77,16.35a207.2,207.2,0,0,0,4.46,25.85,185.39,185.39,0,0,0,54.1,92.72c8.76,8.24,16.54,7.86,24.72-.9,4-4.32,7.94-8.79,11.9-13.21,9.87-11,19.73-22.06,29.69-33.21C364.52,525.79,349,495.07,349,455.21Z" transform="translate(-114.61 -119.23)"/><path class="cls-1" d="M457.33,249.73c25.44.41,50.2,4.55,74,13.72,22,8.46,31.63,29.47,23.25,51.4-9,23.55-18.32,47-27.68,70.38-4.22,10.56-11.18,12.47-20.75,6.2q-49.14-32.22-98.29,0c-9.55,6.27-16.65,4.33-20.82-6.13-9.44-23.66-18.91-47.3-27.93-71.12-8.1-21.41,2-42.6,23.4-50.69A216,216,0,0,1,457.33,249.73ZM509.59,365.5c8.16-20.77,16.32-40.76,23.81-61,3.15-8.52-1.24-15.74-10.72-19.23q-65.34-24-130.82-.18c-11.15,4.08-14.43,11.46-10.2,22.55,4.87,12.75,9.92,25.43,14.94,38.12,2.59,6.55,5.3,13.06,8,19.7C439.8,347.66,474.2,347.73,509.59,365.5Z" transform="translate(-114.61 -119.23)"/><path class="cls-1" d="M507.9,460a51.15,51.15,0,0,1-51.2,51c-27.66-.18-50.61-23.12-50.83-50.82-.22-28,22.94-51.25,51-51.28A50.86,50.86,0,0,1,507.9,460ZM457,432.35A27.65,27.65,0,1,0,484.51,460,27.59,27.59,0,0,0,457,432.35Z" transform="translate(-114.61 -119.23)"/></svg>