<svg id="Layer_1" data-name="Layer 1" xmlns="http://www.w3.org/2000/svg" viewBox="0 0 975.68 975.7"><defs><style>.cls-1{fill:#ff6d00;}</style></defs><path class="cls-1" d="M990.36,657.1c-5.56,17.47-17.68,27.6-34.94,33.12-13.56,4.33-26.62,10.24-39.9,15.44-24.18,9.48-37.7,6.36-55.86-13.5l-62.31,26.53c1.92,31.88-11.44,53.64-41.72,65.51,5.06,20.78,3.64,40.71-11.29,57.72s-34,22.21-55.67,19.25c-7.91,43.1-25,58.76-65.42,60.1-.75,5.22-1.2,10.57-2.32,15.77a57.59,57.59,0,0,1-80,40.43c-8.08-3.62-15.74-8.15-24.21-12.58-14.39,17-32.51,26.34-55.11,23.2s-38-16.26-47.12-37.54c-33.76,11-59.9,1.79-78.11-29.73-21.08,10.1-42.21,10.48-61.9-3.28s-26.81-33.71-24.44-57.68c-4.54-.5-9-.68-13.26-1.53-38.37-7.58-58.36-47.81-41.21-83.07,4.71-9.68,10-19.07,14.36-27.37-3-13.61-6-25.91-8.38-38.34-2-10.23-6.94-16.83-17.12-20.63-14.52-5.44-28.51-12.3-41.38-18-8.65,4.62-16,9.54-24.14,12.64-9.3,3.56-18.76,1.33-27.7-2.77-17-7.81-34.07-15.47-51-23.39-23.46-11-31.62-32.59-20.93-56.13Q53.52,526,88.08,450.77c13.58-29.7,27.79-59.13,40.56-89.17,10.41-24.47,36.53-33.39,59.07-21.7a480.29,480.29,0,0,0,45.84,20.93c25.5,10,34.45,36.5,23.05,58.48-.57,1.1-.91,2.32-1.57,4,2.61,1.36,5,2.72,7.52,3.88,12.07,5.61,24.62,10.38,36.16,16.93,18.69,10.61,37.86,10.66,58.05,6.24,18.87-4.13,37.84-8.17,57-10.6,26.91-3.43,52.35,2.63,76.15,15.59,1.37.75,2.81,1.4,4.36,2.16,8.87-4.32,17.51-9,26.51-12.82,33.76-14.31,68-13.85,102.23-2,13.46,4.67,26.54,10.46,40,15.2a267.9,267.9,0,0,0,26.47,7.49,31.73,31.73,0,0,0,22.22-3.07c15.77-8.12,31.34-16.63,47.52-25.26-.6-2.58-1.13-5-1.72-7.31-4.9-19.31,3.75-38.73,22-46.56C799,374.86,818.81,367.14,838.8,360c20.92-7.47,41.92,2.48,50.53,23.59,9.23,22.6,17.89,45.42,26.77,68.16q36.46,93.47,72.95,186.93c.2.51.86.84,1.31,1.26ZM476.66,826.62c23.86-5,40.81-2.26,55.27,10.68,8.2,7.34,17.4,12.6,26.77,17.85q20.76,11.63,41.63,23.05c6.11,3.37,12.08,7.09,18.47,9.82,19.74,8.42,40-6.32,38.15-27.56-1-10.8-7.31-17.83-16.43-23q-41.1-23-82.09-46.23a69.42,69.42,0,0,1-8.14-4.9c-6.38-4.88-8-12.85-4.29-19.51s11.28-9.47,18.87-6.6a65.54,65.54,0,0,1,8.44,4.37q54,30.12,108.05,60.25a71.53,71.53,0,0,0,9.33,4.71c18.77,7,37.74-6.65,37-26.63-.44-11.73-7.05-19.19-16.81-24.67q-49.78-28-99.46-56.13a51.64,51.64,0,0,1-8.77-5.64,14.45,14.45,0,0,1-3-18.19c3.45-6.22,10-9.23,17-7.24a44.56,44.56,0,0,1,9.43,4.38q47.28,26.6,94.51,53.29a62.72,62.72,0,0,0,9.27,4.81c10.86,3.93,20.75,1.83,29-6.22s10.19-18,6.32-28.9c-2.82-7.92-8.92-12.81-16-16.85Q678.3,661.41,607.67,621c-13.38-7.69-27.58-10.27-42.17-6.32-17.09,4.62-33.77,10.74-50.58,16.37-21,7.05-41.55,16-63,21.05C401.16,664,363,647,331.24,603.82c-6.88-9.37-4.79-17.86,5.18-24.15,3.75-2.37,7.65-4.51,11.48-6.76C391.63,547.11,430.32,515,466,477.78c-14.51-6.79-29.71-10.15-45.24-8.07-20.38,2.74-40.57,7-60.75,11.1-25,5.05-48.94,4.4-72.11-8.11-14.66-7.91-30.27-14.07-46-21.27-29.24,64-58.16,127.31-87.33,191.18,15.63,6.91,29.87,13.9,44.63,19.54,17.08,6.52,26.32,19,30.91,35.92.94,3.48,2,6.93,3.19,11.17,18.62-15.85,38.79-20.94,61-13s33.91,25.31,38.25,47.7C367,740.42,389.41,755,401,786.22,433.68,777.93,463.36,790.9,476.66,826.62Zm371.87-163c-25.91-66.24-51.6-131.89-77.56-198.22-13.55,7.23-25.92,14.3-38.71,20.5a125,125,0,0,1-24.76,9.25c-17.41,4.22-34-.89-50.17-6.76-15.19-5.5-30.08-11.84-45.31-17.21q-48.51-17.08-93.53,8.24c-18.72,10.5-35.16,23.82-50.26,38.91-28.42,28.4-60,52.83-94,74.08-2.58,1.61-5,3.52-7.9,5.61,20.4,22.92,45.26,31.57,74.1,25.4,17.85-3.83,35.13-10.53,52.48-16.47s34.32-13.15,51.79-18.77c29.24-9.4,57-6.93,84,9.46,35.5,21.53,72.18,41.11,108.09,62,16.36,9.52,34.18,16.86,47.84,31.31Zm1.78-275.26c-1.11.36-3.24.95-5.28,1.75-16.25,6.32-32.51,12.63-48.72,19.07-10,4-11.64,7.52-7.73,17.53q47.58,121.8,95.3,243.57c4.06,10.35,7.71,11.86,18.33,7.8q23.1-8.83,46.11-17.88c12.19-4.77,13.54-7.92,8.75-20.16q-36.41-93-72.83-186-11.09-28.35-22.09-56.72C860.21,392.38,857.68,388.11,850.31,388.39Zm-681.63-23c-7.24-.25-9.67,3.59-11.77,8.19Q102.18,493.39,47.38,613.17c-4.12,9-2.52,12.87,6.84,17.2q23.73,11,47.57,21.74c9.88,4.44,13.32,3.14,17.89-6.84Q174.1,526.37,228.4,407.38c4.56-10,3.24-13.65-6.38-18.12-15.81-7.35-31.7-14.54-47.58-21.75C172.16,366.48,169.74,365.76,168.68,365.38ZM372,801.3c-.65-12.69-8.5-23.2-20.08-26.3-12.59-3.37-25.29,1.51-31.72,13.21C307.71,811,295.42,833.88,283.64,857a32,32,0,0,0-3,16.44,26.39,26.39,0,0,0,20.67,23.35c11.47,2.62,23.5-1.74,29.51-12.5,13.29-23.78,25.9-48,38.53-72.1C371,809,371.18,805,372,801.3Zm-10.2,95.47c1.57,4.86,2.36,10,4.75,14.27,10.35,18.41,36.65,18.14,47.57-.78,10.28-17.81,19.73-36.11,29.21-54.37,7.67-14.77,2.84-31.44-10.69-38.58s-29.86-1.84-37.95,12.93q-14.36,26.24-28.11,52.81C364.49,887.16,363.51,891.86,361.84,896.77ZM219.47,801.28c.82,12.63,8.57,23,20.28,26.44,12.12,3.55,24.94-1.43,31.64-13.34,9.47-16.83,18.59-33.89,27.19-51.18a31,31,0,0,0,2.84-15.54c-.91-11.85-9.72-21.46-20.22-23.7-12.61-2.69-24.4,2.13-30.83,13.59-9.45,16.85-18.51,33.92-27.37,51.09C221,792.45,220.61,797.05,219.47,801.28Zm275.66,53.55c-9.59.08-17.82,3.78-22.51,12-10.09,17.59-19.9,35.39-28.66,53.66-6.12,12.75,0,27.59,12.21,34.25,12.65,6.89,28.45,3.5,35.89-9.16,10.11-17.2,19.85-34.73,28.2-52.82S514.85,854.64,495.13,854.83Zm60.24,33.54L532,938.44c8,4.08,15.81,9,24.26,12.12,12.82,4.75,26.94-1.71,32.77-13.79,6-12.38,2.5-27-9-34.5C571.88,897,563.06,892.66,555.37,888.37Z" transform="translate(-14.68 -13)"/><path class="cls-1" d="M514,13c3.33.92,6.65,1.87,10,2.76,62.07,16.46,84.57,92,41.64,139.76-2.11,2.35-4.35,4.6-6.5,6.86,11.73,7,23.93,13.07,34.72,21.06s20.31,18,29.91,26.69l38.45-28.06c-14.21-16.33-20.73-36.23-16.56-58.89,2.92-15.86,11-28.93,23.31-39.31a67.29,67.29,0,0,1,86.72.53C770.28,97,778.29,113,779.36,132.47s-5.81,35.93-18.25,50.34c7.46,4.65,14.41,8.46,20.8,13.07A115.16,115.16,0,0,1,824.58,254c9.38,28-7.84,52.85-37.4,53.18-39.68.44-79.37.12-119.06.12H655.4c0,4.54.07,8.21,0,11.88-.62,30.52-21.38,51.9-51.93,53.28-7.92.35-15.87.09-23.81.09-57.15,0-114.3.12-171.45-.13a81.13,81.13,0,0,1-23.41-3.14c-20.38-6.36-34-25-35-46.33-.22-4.71,0-9.44,0-15.65H337.84c-38.42,0-76.84.08-115.26-.08-6,0-12.2-.24-17.86-1.91-20.39-6-31.59-27.65-25.1-48.61,9.23-29.8,27.69-52.44,54.67-68.1,3-1.73,6.05-3.32,10-5.48-15.64-17.4-21.59-37.56-17.56-60.08,3-16.52,11.56-30.1,24.89-40.43a67.22,67.22,0,0,1,88,4.47c26.47,25.36,27.68,61.06,3.38,95.19l39.2,28.52a158.15,158.15,0,0,1,64.42-47.24,34.41,34.41,0,0,0-2.52-3.26C419.73,136,411.16,106.86,421,74c9.72-32.42,32.4-52.16,65.69-59.37A31.36,31.36,0,0,0,491.09,13ZM502.39,342q47.13,0,94.25,0a55.72,55.72,0,0,0,11.34-.92c9.35-1.93,16.2-9,16.53-18.37.44-12.33,1.26-25-.73-37-12.08-73.35-87.54-118.74-158.61-96.17-50.27,16-92.45,64.69-84.72,133.9.75,6.76,4.19,12.42,10.26,15.06a43.23,43.23,0,0,0,16.47,3.42C438.91,342.2,470.65,342,502.39,342ZM503,43.52c-30.28-.23-55.39,24.59-55.42,54.77,0,29.81,24.4,54.43,54.43,54.84s55.42-24.65,55.43-54.8C557.45,68.54,532.82,43.73,503,43.52ZM363.42,239.29A16.26,16.26,0,0,0,362,237c-21.39-25.69-48.78-37-81.82-32.1C246,209.94,222.7,229.6,210,261.78a21,21,0,0,0-1.11,3.62c-1.33,6.74,1.2,10.37,7.9,11.23a45.12,45.12,0,0,0,5.7.16q60.44,0,120.86,0c2.76,0,5.51-.39,7.47-.53Zm290.84,37.1c2.26.14,4.44.38,6.63.38q61.36,0,122.75,0a38.54,38.54,0,0,0,5.69-.29c5.37-.79,7.67-4.2,7.07-9.38a27.16,27.16,0,0,0-2.16-7.24c-14-33.49-39.33-52.59-75.21-55.77-31.94-2.82-58,9.69-77.6,34.72ZM256.08,136.23a36.93,36.93,0,0,0,37,36.84,37.35,37.35,0,0,0,37.17-36.91c.15-20.55-17.07-37.6-37.72-37.35A37,37,0,0,0,256.08,136.23ZM749,135.82a37.11,37.11,0,0,0-74.21-.19c-.25,20.58,16.86,37.62,37.58,37.44A37,37,0,0,0,749,135.82Z" transform="translate(-14.68 -13)"/><path class="cls-1" d="M855.82,435.5a21.13,21.13,0,0,1-21.46,20.75c-11.46-.29-21.1-10.3-20.81-21.62s10.35-21,21.68-20.77A21.2,21.2,0,0,1,855.82,435.5Z" transform="translate(-14.68 -13)"/><path class="cls-1" d="M161,413A20.49,20.49,0,0,1,182,392a21,21,0,0,1,21.22,21A21.46,21.46,0,0,1,182,434.08,21,21,0,0,1,161,413Z" transform="translate(-14.68 -13)"/></svg>