<svg id="Layer_1" data-name="Layer 1" xmlns="http://www.w3.org/2000/svg" viewBox="0 0 910.55 912.04"><defs><style>.cls-1{fill:#ff6d00;}</style></defs><path class="cls-1" d="M265.84,44c12.89,10.35,25.9,20.56,38.57,31.16,3.33,2.78,5.63,6.8,9,11L292.68,101,265.73,75.2c-58.8,37.55-64.38,122.94-14.78,167.5V193.9h26.82v47.27c17.83-14.59,27.3-33.2,32-54.39,4.75-21.45,2.05-42.45-5.76-63.45l24.21-10.18c8.5,20.46,12.11,41.19,10,62.77-4.07,40.92-22.45,73.84-55.48,98.57-2.25,1.69-4.5,5.13-4.52,7.76-.28,36.84-.17,73.68-.12,110.52,0,.75.5,1.51,1.24,3.6,6.54-6.65,12.7-12.53,18.3-18.9,1.43-1.62,1.77-4.91,1.43-7.27C288,292.41,337.41,225.57,415.15,214.08a120.56,120.56,0,0,1,54.61,4.3,10.86,10.86,0,0,1,6.2,6.12c23.34,75.19-28.79,158.65-106.84,170.28-13.9,2.08-28.35,1-42.51.49-5.41-.18-9.39.22-13.37,4.46-9.95,10.62-20.69,20.49-30.62,31.12a17.35,17.35,0,0,0-4.47,10.73c-.21,119.72-.55,239.45,0,359.18.3,65.35,52.49,121.18,115.6,125.59,69.31,4.84,128.45-40.61,139-107.17a176.79,176.79,0,0,0,1.77-27.52q.15-295.9,0-591.81c0-52.45,20.13-95.15,62.81-125.3C645.83,40.33,698.64,36,751.49,62.85c54.55,27.75,81.94,74.5,82.32,135.6.66,108.13.18,216.28.18,324.42v12.4h61.38c0,11.39.71,22-.18,32.46C894,581.24,898,592,906.65,602.56c16.53,20.21,31.77,41.49,47.3,62.51,2.13,2.9,4,6.85,4,10.32.24,55.55.16,111.11.13,166.66,0,1.16-.27,2.32-.5,4.28H688.07V777.48h25.79V820H930.93c.19-3.06.52-5.91.53-8.77,0-41.29.18-82.59-.2-123.88a26.61,26.61,0,0,0-5-14.44Q901.64,639.07,875.9,606c-5.49-7-8.14-14-7.35-22.78.58-6.44.11-13,.11-20.1H776.85c0,8-.39,15.67.12,23.28.47,7-1.86,12.38-6.07,17.85Q744.26,638.86,718.4,674a24,24,0,0,0-4.31,12.88c-.45,20.72-.2,41.45-.2,62.74H687.2v-9.58c0-19.31.4-38.63-.19-57.93-.25-8.31,2.29-14.64,7.25-21q25.92-33.47,50.91-67.62A28,28,0,0,0,749.94,579c.63-13.92.22-27.88.22-43H806.8c.21-4,.48-6.88.49-9.77q0-163.55,0-327.09c-.09-62.14-40-111.41-99.76-123.8-72.09-15-143.19,40.66-146,114.21-.21,5.64-.19,11.29-.19,16.93q0,293.67,0,587.35c0,69-38.19,125.77-100.45,149.89-90.65,35.1-193.57-24.78-207.63-121a209.67,209.67,0,0,1-1.89-30.17q-.19-173.81,0-347.6c0-6.71-1.55-11.69-6.64-16.36-9.84-9-19.22-18.59-28.39-28.32-4.06-4.31-8.1-5.72-14-4.92C130.79,404.88,67.05,361.14,51,291.42c-5.52-23.92-4.25-47.75,3.34-71.9,39.74-11.93,78.22-8.69,113.39,13.91,47.18,30.34,68.06,74.56,62.66,130.51-.82,8.48.21,14.66,7.05,20.1,4.31,3.43,7.59,8.16,11.33,12.31l1.91-1.07c.19-2.18.56-4.35.56-6.53,0-34.46,0-68.92.1-103.38,0-4.75-1-8-5.2-11.16C167.38,215,172.62,100.63,256.27,48.78a63.28,63.28,0,0,0,6-4.78Zm78.34,324.16C421.87,370.91,466,298,451.89,241.31c-37.45-5.67-70,4.24-97.32,31.06-23.13,22.71-34.21,62.33-28.33,77.89l33-35,19.46,20.42ZM203,350.14l2.42-1.53c-.66-6.16-1.1-12.35-2-18.48-8.27-56.33-65.06-98.46-120.8-89.82-4.87.75-7,2.73-7.6,7.84C68.37,303.23,103.1,353.83,157.25,367c8.61,2.1,17.6,2.65,26.41,3.92l1.13-2.77-33.64-32.33,19.42-21.08Z" transform="translate(-47.59 -44)"/><path class="cls-1" d="M847.29,659.35c-8.13,16.34-15.88,31.9-24.26,48.75h40.85l-45.11,91.22-23.89-11.79c8.61-17.48,16.92-34.35,25.88-52.57H779.62l43.87-87.5Z" transform="translate(-47.59 -44)"/><path class="cls-1" d="M857,887.64h26v41.63h21.38V887.84h26.36V956H857Z" transform="translate(-47.59 -44)"/><path class="cls-1" d="M714.66,956V887.75h25.91v41.71h21.48V887.59h26.26V956Z" transform="translate(-47.59 -44)"/><path class="cls-1" d="M758.64,709.31V735H733.1V709.31Z" transform="translate(-47.59 -44)"/><path class="cls-1" d="M277.39,159.89H252V134.17h25.41Z" transform="translate(-47.59 -44)"/><path class="cls-1" d="M909.9,709.35V735H884.42v-25.6Z" transform="translate(-47.59 -44)"/><path class="cls-1" d="M403,306.07l-17.64-17.76,18.4-17.53,17.56,17.56Z" transform="translate(-47.59 -44)"/><path class="cls-1" d="M143,287.89,125,305.33,108.4,287.38l17.54-16.69Z" transform="translate(-47.59 -44)"/></svg>