<svg id="Layer_1" data-name="Layer 1" xmlns="http://www.w3.org/2000/svg" viewBox="0 0 877.29 945.13"><defs><style>.cls-1{fill:#ff6d00;}</style></defs><path class="cls-1" d="M528.7,950.41c-25.26,35.35-69.26,30.67-88.7-3.38-12.75,6.68-26.21,9.45-40.37,4.91S375.41,938.12,369,924.76c-19.64,8.72-38.23,8.54-55.12-4.85s-20.63-31.76-17.1-51.93c-42.72-11-57.44-39-40.17-76.7-11-11.14-19.71-24.82-35.15-32.13-21.14-10-41.68-21.25-62.48-31.94-2.74-1.41-5.53-2.74-8.7-4.3-11.89,9.67-24.18,8-36.87,1.81-8.4-4.07-17.19-7.36-25.8-11-12.12-5.15-19.33-14.06-21.8-27.16-8.3-44-1.58-86.39,14.45-127.56s40.3-76.64,73.6-105.8c2.82-2.46,5.71-4.86,8.71-7.11,11.61-8.7,24.12-10,36.91-3.22,15.17,8,30.08,16.51,45,25,7.15,4.05,12,10.09,13.08,18.39.61,4.61,3.23,6.85,6.94,9.08,34.23,20.55,71.25,27.16,110.67,23.3,16.45-1.6,33-2.63,49.53-2.62,22.08,0,33.42,3.91,64.87,18.82,14.65-6.79,28.46-14.11,42.93-19.7,30.66-11.81,62-13.45,93.54-3.25,35.29,11.4,68.91,7.79,100.83-11.24,3.75-2.24,7.94-3.86,11.34-6.51,2.45-1.9,5-4.81,5.64-7.68,2-8.92,7-15.12,14.8-19.43q20.88-11.55,41.73-23.16c14.47-8,28.09-6.64,40.84,3.81,42.31,34.64,70.69,78.62,86.95,130.54,11.08,35.36,14.77,71.36,7.83,108.13-2.47,13.08-9.48,22.12-21.62,27.31-9.47,4-19.06,7.79-28.39,12.12-12.77,5.94-24.71,5.95-36.18-4.43l-86,39.74c-5.75,33.67-14.8,43.45-47.74,52.2,0,27.94-11.91,50.2-47.92,56.64-6,37.84-20.09,51.18-55.42,51.78-2.89,19.33-12.22,34.27-32,40.39C561.31,968.05,544.7,959.94,528.7,950.41Zm12.4-23c6.12,3,11.47,6.16,17.2,8.33,11.1,4.2,20.52,1.18,25.25-7.46,4.62-8.44,2.14-16.88-7.14-24.34-7.47-6-9.2-13-4.79-19.35,4.23-6.08,11.18-7.21,19.15-2.86,5.75,3.13,11.27,6.69,17,9.81,11.9,6.47,24.17,3.57,30.14-7s2.37-22.16-9.39-29.44c-2.92-1.8-6-3.38-8.89-5.19-8.23-5.14-10.6-11.8-6.76-18.75,3.94-7.14,11.55-8.66,20.29-3.83,7.1,3.92,13.93,8.34,21.12,12.09,12.1,6.3,25.51,2.62,31.8-8.39s2.63-24.47-8.84-31.67c-7.13-4.48-14.58-8.45-21.86-12.69-10.66-6.21-13.88-13.29-9.54-20.84s11.8-8.28,22.82-2,22,13.14,33.29,19.07c14.95,7.84,32-.57,34.26-16.78,1.6-11.38-4.59-19.09-13.68-24.6-12-7.27-24.26-14.14-36.43-21.14-28.93-16.65-57.83-33.36-86.84-49.88-18.43-10.49-37.77-17.89-59.57-16.18-16.48,1.29-31.44,7.38-46.27,14.09-15.61,7.06-31.05,14.69-47.13,20.48-25.71,9.25-49.53,4.55-71.41-12.06-22.35-17-29.38-52.22,3.31-71.31,26.39-15.41,52-32.19,77.92-48.4,2.45-1.53,4.75-3.29,9.06-6.3-9.89-2.76-17.52-5.37-25.36-7-20.85-4.24-41.74-1-62.51,1-42.47,4-82.73-2.33-120.17-23.56-3.75-2.13-7.58-4.13-11.7-6.36C190,563.54,161.07,623.84,159,697.45c22.23,11.48,43.59,23.12,65.49,33.61,16.31,7.81,31,17.25,42.07,31.74,1.07,1.4,2.65,2.41,4.81,4.33,10.35-22,22.84-41.36,49.26-42.75s43.13,13,51.8,37.19c31-5.24,51.42,6.91,62.32,35.91,30.76-5.21,51.66,6.78,62.15,35.86a15.93,15.93,0,0,0,2.35,0c21.33-4,39.3,1.8,51.77,19.84s11.72,36.83.67,55.49C548.23,914.52,545,920.52,541.1,927.36ZM755.47,514.92c-6.51,3.57-12.81,6.93-19,10.44-37.12,20.95-76.06,24.55-116.6,12.11-14.48-4.44-29.06-6.82-44.27-5.56-23.25,1.91-44.31,10.16-64,22.07-24.55,14.87-48.82,30.22-73.2,45.38-15.9,9.89-31.85,19.69-47.65,29.74-10.41,6.62-11.29,15-2.83,23.89a36.27,36.27,0,0,0,4.21,3.71c13.62,10.57,28.82,13.72,44.92,7.5,15.68-6.05,31-13.18,46.27-20.13,17.42-7.9,35.15-14.46,54.45-16,27-2.2,51.14,6.19,74,19.23,37.14,21.17,74.23,42.42,111.1,64.07,11.43,6.71,22,14.82,34.77,23.46l84.36-39C842.53,632.59,812.88,561.87,755.47,514.92Zm13.79-23.65c32,27.36,56.87,58.31,74.21,95,17.41,36.82,25.1,76,26.18,117.63,12.63-5.36,23.92-9.8,34.82-15,2.54-1.22,4.86-5,5.4-7.88a163.61,163.61,0,0,0,3.07-26c1-48.66-13.7-92.73-40-133.21a232.3,232.3,0,0,0-46.52-52.25c-3.65-3.05-7.22-6.07-12.51-3.08C799.55,474.54,785.12,482.47,769.26,491.27Zm-637,212.65c.61-42.08,8.69-80.9,25.9-117.55,17.32-36.89,42.41-67.94,74.19-95.08-14.06-7.86-26.77-15-39.51-22.08-10.23-5.69-10.68-5.74-19.6,2.05q-67.8,59.25-82.42,148.13a174.06,174.06,0,0,0-.16,56.89c.85,5.12,1,10.7,7.13,13.19C108.74,693.92,119.58,698.59,132.27,703.92ZM344.1,904.16c9.36.17,16.09-4.24,20.66-12.13,13.6-23.45,27.3-46.86,40.61-70.48,6.89-12.21,3.5-25.4-7.4-31.83-11.17-6.6-24.6-2.7-32.05,9.53-5.18,8.52-10,17.25-15,25.88-8.58,14.85-17.48,29.52-25.65,44.58C316.46,886,326.52,903.91,344.1,904.16Zm46.63.62c1,10.69,7.1,18.83,17.06,21.84,10.19,3.09,20.18-.71,26.26-10.94q17.18-28.9,33.61-58.25c6.83-12.21,3.44-25.36-7.5-31.8-11.3-6.65-24.63-2.87-32,9.6q-16.63,28.14-32.61,56.67C393.32,895.84,392.3,900.47,390.73,904.78Zm120-46.24c-7.73,0-14.28,3.09-18.2,9.57-9.66,16-19.22,32-27.89,48.51-5.43,10.32-1,22.63,8.66,28.49,10.15,6.16,23.35,4.23,29.83-6,10.16-16,20-32.32,28.35-49.29C538.78,875,527.09,858.46,510.7,858.54ZM298.16,840.43c7.3,0,14-2.32,17.77-8.52,10.05-16.45,20-33,28.9-50.08,5.37-10.3.46-22.51-9.44-28.16s-22.81-3.87-29.09,6C296,776,286,792.56,277.55,809.83,270.47,824.25,282.15,840.4,298.16,840.43Z" transform="translate(-62.2 -29.71)"/><path class="cls-1" d="M555.18,454.31c0,5.3.14,10.28,0,15.25-.64,18.65-14,32.7-32.48,33.33-14.66.5-29.37.52-44,0-18-.66-31.35-14.62-32.09-32.72-.21-5.26,0-10.55,0-15.64-5-1.86-9.66-3-13.73-5.19-14.1-7.55-21.55-19.48-21.95-35.54-.4-16.22.17-32.51-1.09-48.66-1.4-17.9-10.32-33.15-20.13-47.78-10.95-16.33-23.06-32-32.69-49.05-26.3-46.63-31.52-95.79-11.51-145.9C362,80.92,394.35,55.29,435.82,41.17c51-17.38,101.61-15.32,150.19,8.37,61.7,30.1,87.65,87,80.74,152.08-3.17,29.87-14.1,56.73-30.86,81.39q-11.57,17-23.49,33.84c-14.67,20.74-23.21,43.29-21.59,69.16.52,8.4.12,16.86.07,25.29-.15,21.32-10.57,35.16-31.06,41.36C558.63,453,557.47,453.49,555.18,454.31Zm8.42-81.16c8.09-42,11.39-49.54,37.22-85.8,4.7-6.61,9.37-13.25,13.86-20a159.41,159.41,0,0,0,26-68.45c7-53-17-101.73-64-124.51-50.87-24.65-102.54-24.56-153.17,1-32.12,16.2-52.68,42.4-60.3,78-4.79,22.36-3.6,44.65,2,66.77,6.33,25.06,20.35,46.06,35.26,66.55,18.87,25.94,35.88,52.65,36.81,86.35h25V271.51c-1.72-.94-3-1.76-4.43-2.41-30-14-47.66-37.59-53.24-69.89a55.57,55.57,0,0,1,1.37-23.92c4.9-17.21,22.83-25,38.88-17.16,6.51,3.19,13.36,8,17.19,13.87,7.2,11.12,13.72,23.11,17.93,35.61,4.62,13.71,6.32,28.4,9.38,43.08h24.19c.29-2.54.46-4.08.64-5.62,2.47-21.18,6.55-41.92,16.93-60.89,5.31-9.71,12-18.32,21.63-24.11,18.56-11.11,38.8-3,43.89,17.92a50.27,50.27,0,0,1,1.05,19.41C592.48,229,576,252.73,547.33,267.6c-2.7,1.4-5.38,2.83-7.49,3.94V373.15ZM437.19,400.52c0,4.75-.21,8.78,0,12.78.54,8.68,5.52,14,14.29,14.06q49.55.34,99.1,0c8.21-.07,13.21-5.44,13.81-13.56.31-4.25.06-8.53.06-13.26Zm74.67-27.37V278.39H489.67v94.76Zm-39,81.16c0,4.09-.07,7.74,0,11.39.21,9,2,10.84,11.08,11,8.69.14,17.39,0,26.09,0,19,0,19.82-.89,18.65-20.07a7.48,7.48,0,0,0-1-2.34ZM569.56,182C555,188.31,540.72,219.34,543,238.7,562.36,227.81,576.11,199,569.56,182ZM459.05,238.63c.86-22.41-12.88-51.33-26.79-56.39C424.88,197.89,439.84,229.39,459.05,238.63Z" transform="translate(-62.2 -29.71)"/><path class="cls-1" d="M338.7,299.34c-1.35,1.78-3.33,6.33-6.81,8.61-9.86,6.47-20.17,12.32-30.62,17.8-7,3.67-14.21,1.13-17.7-5.15s-1.83-13.37,5.14-17.66c10.06-6.19,20.24-12.22,30.72-17.63C328.68,280.53,338.64,286.69,338.7,299.34Z" transform="translate(-62.2 -29.71)"/><path class="cls-1" d="M676.81,283.36a26,26,0,0,1,5,1.67c10.56,6,21.23,11.74,31.5,18.15,6.9,4.3,8.4,11.51,4.69,17.78-3.6,6.09-10.89,8.35-17.89,4.62C689.64,320,679.47,314,669.37,307.89c-5.75-3.48-7.63-8.92-5.64-15.33C665.62,286.44,670.34,283.9,676.81,283.36Z" transform="translate(-62.2 -29.71)"/><path class="cls-1" d="M295.68,45.69a41,41,0,0,1,6.84,2.55c9.51,5.28,19,10.63,28.3,16.26,7.69,4.64,10,12.4,6,19-3.74,6.24-11.26,8.09-18.74,4Q303,79.18,288.27,70.13c-5.2-3.21-7.64-8.19-5.9-14.41S288.45,46.57,295.68,45.69Z" transform="translate(-62.2 -29.71)"/><path class="cls-1" d="M719.84,61.7c-1.51,1.93-3.6,6.43-7.13,8.76-9.59,6.31-19.66,11.94-29.78,17.39-7,3.75-14.3,1.71-18-4.24-3.92-6.32-2.11-14,5-18.45,9.78-6,19.69-11.91,29.87-17.24C709.51,42.85,720.06,49.06,719.84,61.7Z" transform="translate(-62.2 -29.71)"/><path class="cls-1" d="M722.09,199.78c-5.29,0-10.59.26-15.85-.05-8.54-.52-14.08-5.94-14-13.2.1-6.95,5.33-12.56,13.34-12.86,11.8-.43,23.64-.45,35.43.06,8.13.35,13,5.88,12.9,13.11s-5,12.28-13.21,12.82c-6.19.41-12.43.08-18.64.08Z" transform="translate(-62.2 -29.71)"/><path class="cls-1" d="M278.06,199.67c-5.91,0-11.84.37-17.71-.09-7.77-.6-12.33-5.44-12.58-12.41-.25-7.3,4.49-13,12.54-13.4,12.1-.54,24.25-.52,36.35,0a12.88,12.88,0,0,1,12.75,13.37c-.25,6.64-5.23,11.88-12.71,12.44C290.52,200,284.27,199.67,278.06,199.67Z" transform="translate(-62.2 -29.71)"/></svg>