<svg id="Layer_1" data-name="Layer 1" xmlns="http://www.w3.org/2000/svg" viewBox="0 0 885.61 900.72"><defs><style>.cls-1{fill:#ff6d00;}</style></defs><path class="cls-1" d="M940.86,453.86c-2.1-15-3.68-30.11-6.47-45-26.15-139.5-101.53-244.31-225-313.46C627.54,49.57,538.88,33.16,445.63,44.49,334.59,58,241.29,106.75,167,190.09,105.08,259.56,67.64,341.12,58.22,434c-10.84,106.81,10.36,201.88,63.09,284.5l19.6-21.79q-53.11-88.78-58.18-198H244.28A712,712,0,0,0,249.5,576l24.93-27.71q-2.06-24.63-2.29-49.58h37.28l16.68-28.76H272.18a649.35,649.35,0,0,1,3.75-66.59L248.58,406c-2.27,21.28-4,42.7-6.29,64.15H82.71q6.67-142.71,95.35-250.37l98.06,43.43c-3.56,16.07-7.52,32.26-11.28,48.57l30.1-10.38q4.2-15.83,9.15-31.62A729.28,729.28,0,0,0,483.6,294.82v17.64l28.69,2.93V294.93a734.4,734.4,0,0,0,179.28-25.17A677.47,677.47,0,0,1,723,439.92h27.46A702.2,702.2,0,0,0,718,264L817,220.11c46.08,38.15,95.92,166.78,95.66,249.79h-27l-.84,28.81H913q-3.33,75.38-29.88,141.15l6.65,52.34c23.91-45.13,39.54-94.2,47.32-146.9,1.49-10,2.67-20.14,4-30.21C941,494.59,940.94,474.36,940.86,453.86Zm-653.08-218a470.5,470.5,0,0,1-89.48-38.64C251.42,142.36,313.64,105.09,386.51,85,340.6,126.5,310.78,178.37,287.78,235.82ZM483.67,267c-57.58-.5-113.67-8.6-170.53-23.61,7.81-16.57,14.67-32.63,22.77-48,19.49-37.07,43.65-70.57,77.48-96.13C431.31,85.67,451.1,76,473.25,71.52c3.08-.62,6.24-.87,10.42-1.43Zm28.67-.25V68.86c11.59,3.31,22.81,5.61,33.36,9.69,29.51,11.39,52.82,31.4,73,55.17,27.56,32.37,47.19,69.37,62.72,108.69C661.73,253.18,555.8,268.42,512.34,266.74Zm195.85-30.87c-23-56.79-52.61-109-99.56-150.14,39.31-.49,157.2,69.65,188,111.81C768.82,213.43,739.6,225.82,708.19,235.87Z" transform="translate(-55.47 -41.03)"/><path class="cls-1" d="M853,935.66c-2.73,4.48-6.62,6.15-12,6.09-20.88-.22-41.77,0-62.66-.12-6.87,0-11-4.33-10.19-10.23.64-4.79,4.34-7.66,10.36-7.68,16.51-.06,33,0,49.53,0h6.67V544.5c-1.38.94-2.51,1.58-3.48,2.4q-40.49,34.3-80.87,68.72a18,18,0,0,0-5.24,7.55c-11,33.11-21.71,66.31-32.63,99.44a9.33,9.33,0,0,0,1.2,8.82c5.78,9,11.33,18.2,16.88,27.36,3.57,5.9,2.79,11.28-1.86,14.08s-9.78,1.13-13.46-4.75c-7-11.11-14-22.13-20.43-33.56-1.7-3.06-2-7.69-1.18-11.2,2.2-9.65,5.34-19.08,8.08-28.61.36-1.27.58-2.59,1-4.75-13.31,5.14-25.83,9.94-38.32,14.81q-112.38,43.76-224.79,87.45c-3.58,1.38-5.28,3.25-6.17,7-2.75,11.55-5.92,23-9.11,35.14a46.12,46.12,0,0,0,4.93-.63c13.13-3.15,26.28-6.24,39.36-9.62,5.43-1.4,9.91-.74,14.39,2.95,9.35,7.7,18.91,15.18,28.69,22.33a18.1,18.1,0,0,0,9.66,3.31c16.11.33,32.23.14,48.34.17a28.58,28.58,0,0,1,5.93.38,8,8,0,0,1,6.76,8c.25,4.47-1.81,7.77-6.21,9a27.49,27.49,0,0,1-7.09.67c-17.31,0-34.62-.09-51.92.1a20.16,20.16,0,0,1-13.62-4.82C493.43,857.9,483,850,472.48,841.81L260,900.76V923.7H727.3c2,0,4-.12,6,.07a8.92,8.92,0,0,1,.31,17.8,34.06,34.06,0,0,1-4.17.09q-237.53,0-475,.08c-5.46,0-9.73-1.24-12.54-6.08V890.39c3.49-2,6.73-4.86,10.49-6q73.68-21.72,147.48-43c3.17-.92,4.85-2.44,5.69-5.83,3.78-15.39,8.09-30.66,11.81-46.06,1.49-6.17,4.58-9.81,10.66-12.16q138.26-53.52,276.39-107.29a11.85,11.85,0,0,0,7.7-8.05c5.43-15.94,11-31.84,16.92-47.6a25.47,25.47,0,0,1,6.82-10.06q49.77-42.67,99.89-84.92c7.41-6.28,11.36-5.87,17.27,1.62Z" transform="translate(-55.47 -41.03)"/><path class="cls-1" d="M241.83,735.52Q277,688.27,312.15,641q61.2-81.82,122.53-163.55c1.3-1.73,2.53-3.51,4-5.5-9.17-15.68,1.25-27,9.54-39.34-7.64-4.66-14.43-9.52-21.83-13.18-18.84-9.31-37.95-18.09-56.95-27.07-1.26-.59-2.63-.95-3.85-1.59-4.67-2.46-6.43-7-4.54-11.48s6.35-6.79,11.26-4.92c10.38,4,20.93,7.69,30.8,12.71,16.62,8.45,32.78,17.82,49.11,26.83,1.89,1.05,3.69,2.25,6,3.65l19.15-28.46c-57-32.08-116.54-47.94-181.95-33.63,6.84,1.15,13.7,2.25,20.53,3.46,4.11.73,8.2,1.53,12.27,2.46,6.36,1.44,9.37,5.48,8.28,10.88s-5.66,7.62-12,6.78q-29.52-3.91-59.07-7.43a104.48,104.48,0,0,0-12.52-.29c-4.8,0-8-2.17-9.31-6.76s.74-7.71,4.36-10.12c14.14-9.37,29.92-14.63,46.35-18,9.49-2,19.13-3.2,28.7-4.76h34.62c11.36,1.73,22.81,3.05,34.08,5.29,32.43,6.43,62.76,18.52,91.42,34.88,2.07,1.18,4.17,2.3,6.23,2.28l21.22-2.38c2.41-3.1,5.86-7.69,9.48-12.14,7-8.65,15.55-9.7,24.52-2.93q12.15,9.15,24.05,18.6c8.41,6.7,9.44,15.29,3,24-3.39,4.63-7,9.12-9.14,11.95.69,7.87,1,13.91,1.88,19.85a11.82,11.82,0,0,0,3.33,5.82C592.61,463.2,613.79,492.05,629,525c14.69,31.83,23.1,65.06,20.9,100.3-.71,11.41-3.32,22.71-5.24,34-.84,5-3.43,8.45-9.06,8.5-5.08.06-7.85-2.38-9.48-8.82-17.24-68-54.87-123.39-106.07-170.35a19.39,19.39,0,0,0-1.76-1.17c-9.27,10.79-18.13,23.36-35.66,18.74-11.1,13.74-21.95,27.15-32.77,40.59L282,755.16c-8.19,10.17-16.38,11.17-26.68,3.32-5.35-4.08-11.14-7.76-13.47-14.62ZM490,489.74c2-1.31,4.07-2.16,5.43-3.66q24.38-27,48.54-54.11c3.94-4.43,3.61-8.06-1-11.68q-17.79-14-35.81-27.74c-4.86-3.71-8.17-3.25-11.51,1.7q-20.34,30.09-40.44,60.33c-3.24,4.86-2.72,7.53,1.93,11.18q13.35,10.49,26.87,20.77C485.64,487.79,487.69,488.54,490,489.74Zm-38-5.2c-64.09,85.52-127.59,170.28-191.3,255.3l6.66,4.87L467.33,496.48Zm78.7-10.68c44.15,40.22,78.78,86.42,101.21,141.39-2.85-66.4-32.94-119.9-78.15-167C545.84,456.93,538.43,465.17,530.61,473.86Zm-6-90.61L547.53,401l9.31-12.09L533.9,371.15Z" transform="translate(-55.47 -41.03)"/><path class="cls-1" d="M687.28,530.79l-17.22-1.43a15.34,15.34,0,0,1-1.77-.24c-15.49-3.11-26-28.3-17.17-41.34,3.33-4.93,6.83-9.75,10.37-14.53A18.07,18.07,0,0,1,678,465.64c5.15.34,10.27,1.16,15.42,1.44,7.17.38,12.35,3.79,16.18,9.64,2.39,3.65,5,7.18,7.27,10.87,4.62,7.37,4.27,14.67-.84,21.63-3.28,4.48-6.9,8.71-10.22,13.16C701.18,528.63,695.16,531.68,687.28,530.79Zm3-17.82,11.16-14.28c-3.91-14.16-13.9-15.77-25.74-14.44-3.39,4.81-6.92,9.8-10.54,14.92l6.07,12.11Z" transform="translate(-55.47 -41.03)"/><path class="cls-1" d="M730.07,534.09c-2.14-19,22.14-35.33,39.1-33.15,6.22.81,10.71,4.34,12.32,10.51,1.75,6.69,3,13.5,4.38,20.28a11,11,0,0,1-.18,4.12c-2,10.26-18.08,21.42-28.46,19.74-4.1-.67-8.17-1.6-12.25-2.39C733.82,551,729.6,545.61,730.07,534.09Zm18.44,1.23c6.09,1,12.88,5.4,16.81-1.77,1.95-3.56.34-9.07.34-13.64C755.66,519.92,748.31,526.74,748.51,535.32Z" transform="translate(-55.47 -41.03)"/><path class="cls-1" d="M489.18,624.47c12.71-.39,27.31,10.77,31.26,23,5.68,17.53,1.29,24.95-15.44,28.8-2.7.62-5.33,1.58-8,2.45-6.67,2.2-12.52,1-17.51-4a42.82,42.82,0,0,0-4.29-4.13c-7.17-5.42-9.13-12.62-7.55-21.13.32-1.76.54-3.54.71-5.31C469.89,628.33,473.47,624.94,489.18,624.47Zm14.9,33.16c-1.93-10.21-9.18-16.1-17.18-14.38-1.5,6.8-3.51,13.75,5.68,18Z" transform="translate(-55.47 -41.03)"/><path class="cls-1" d="M615.51,676.14c.07,8.9-6.77,13.11-13.07,10a54,54,0,0,1-6.48-4.22q-29.37-19.85-58.72-39.73a26.81,26.81,0,0,1-3.83-2.82c-3.47-3.32-4-7.24-1.59-11.33a8.44,8.44,0,0,1,11.42-3.18c4,2.17,7.69,4.91,11.47,7.46,18.27,12.33,36.6,24.59,54.72,37.13C612.27,671.43,614.22,674.68,615.51,676.14Z" transform="translate(-55.47 -41.03)"/><path class="cls-1" d="M676.46,661.23a8.55,8.55,0,0,1-8.34-11.06c4.46-13.72,9.42-27.29,14.54-40.78a8.35,8.35,0,0,1,11-4.51c4.42,1.77,6.52,5.21,5.63,9.91a62.56,62.56,0,0,1-2.82,9c-3.5,9.88-7.13,19.71-10.57,29.61C684.28,658,681.4,660.79,676.46,661.23Z" transform="translate(-55.47 -41.03)"/><path class="cls-1" d="M568.84,704.63c-10.51-1.15-22.17-2.35-33.81-3.74-5.93-.7-9.47-4.82-8.9-9.89s4.5-8.44,10.63-7.9c11.67,1,23.31,2.41,35,3.69,6.77.75,10.78,4.72,10.22,10S576.72,705.09,568.84,704.63Z" transform="translate(-55.47 -41.03)"/><path class="cls-1" d="M705.27,586.94c-7.84,0-12.41-5.21-10.74-10.82a211.08,211.08,0,0,1,7.87-21.78c1.88-4.47,6.71-6,11.07-4.42a8.79,8.79,0,0,1,5.44,10.64,182.39,182.39,0,0,1-7.81,21.17C709.9,584.33,706.48,585.91,705.27,586.94Z" transform="translate(-55.47 -41.03)"/></svg>