<?xml version="1.0" encoding="utf-8"?>
<!-- Generator: Adobe Illustrator 26.0.1, SVG Export Plug-In . SVG Version: 6.00 Build 0)  -->
<svg version="1.1" id="Layer_1" xmlns="http://www.w3.org/2000/svg" xmlns:xlink="http://www.w3.org/1999/xlink" x="0px" y="0px"
	 viewBox="0 0 1000 1000" style="enable-background:new 0 0 1000 1000;" xml:space="preserve">
<style type="text/css">
	.st0{fill:#FF6D00;}
</style>
<g>
	<path class="st0" d="M956.4,449.4c-29.2-152.1-113.2-263.7-250-335.3c-53-27.8-110-42.9-169.8-47.7c-2.3-0.2-4.6-1-7-1.5H468
		c-16.4,2.3-32.9,4.1-49.2,7c-102.2,18.2-189.2,65-259.7,141.2C84.5,293.7,43.3,389.5,35.6,499.4c-6.2,89.2,14.1,176.1,55,251.5
		c2.1-16.2,5.1-32,8.9-47.5c-21.3-48.9-33.4-101.8-36-158.7h115.8c8.6-10.6,17.8-20.7,27.4-30.3H63.6
		c4.3-99.2,37.8-186.7,99.9-262.5c35.5,15.7,69.6,30.9,102.8,45.6c-7.7,34.8-17.3,70.4-23.2,106.6c-4.7,28.4-7.1,57.1-9.9,86.1
		c9.9-8.3,20.2-16.2,30.8-23.5c4.1-54.8,14.7-108.7,31.6-162.3c62.2,16.7,124.5,25.4,188.2,26.4v64.1c3.9-0.1,7.8-0.2,11.7-0.2
		c6.1,0,12.2,0.1,18.3,0.4v-64.3c63.3-1.3,125.8-9.6,188-26.5c17.6,54.7,28.1,110.2,32.2,167.2c10.4,7.5,20.5,15.5,30.1,23.9
		c-2.6-67.8-14.3-133.8-34.7-197.2c34.9-15.4,69-30.6,104.6-46.3c61.8,75,95.3,162.6,100,262.5H784.6c9.5,9.5,18.6,19.6,27.2,30
		h122.3c-2.6,60.4-16,116.4-40.1,168.2c3.6,16,6.3,32.3,7.9,48.9c31.1-53.6,50.4-112.5,58.3-176.4c0.9-7.7,2.2-15.4,3.3-23.1v-63.5
		C961.2,482.2,959.5,465.6,956.4,449.4z M278.6,268.8c-33-10.3-63.4-23.7-93.8-40.5c55.7-57.5,121-96.6,197.3-117.6
		C334,154.2,302.7,208.6,278.6,268.8z M483.9,301.4c-60.1-0.4-118.9-9-178.3-24.5c5.2-11.8,9.8-23.1,15.1-34.1
		c21.6-44.9,48.5-85.7,88.6-116.5c18.9-14.6,39.9-24.9,63.4-29.7c3.5-0.7,7.1-1,11.2-1.6V301.4z M513.9,301.5V95.2
		c17.3,1.3,32.8,6.8,47.8,14.3c29.2,14.8,52.2,36.8,72.1,62.3c24.7,31.7,43,66.9,58,105.1C633.4,292.6,574.5,300.7,513.9,301.5z
		 M719.4,268.8c-24.1-59.6-55.2-114.3-104.5-157.5c42.6,0.7,151.9,65.3,197.8,117.1C782.9,245.3,752.2,258.4,719.4,268.8z"/>
</g>
<g>
	<path class="st0" d="M567.5,600.9c3.4,0,6,0,8.7,0c35.3,0,70.7,0.1,106-0.1c7.5-0.1,12.6,2.5,17,8.7c13.7,19.1,27.7,37.9,41.8,56.6
		c2.1,2.8,4.9,5.3,7.9,7.2c10,6.4,20,12.6,30.3,18.6c6.2,3.6,8.7,8.4,8.6,15.4c-0.2,24.7-0.2,49.4,0.1,74c0.1,5.4,1.2,11.1,3.1,16.1
		c12.8,32.1,25.9,64,38.9,96c0.8,2,1.6,4,2.7,6.5c4.6,0,9.2-0.1,13.7,0c7.7,0.3,13,5.3,12.8,11.9c-0.2,6.5-5.1,11.1-12.7,11.2
		c-10.2,0.2-20.3,0.1-30.5,0.1c-144.7,0-289.4,0-434.1,0c-73.1,0-146.1,0-219.2,0c-2.2,0-4.4,0.1-6.5-0.1c-6.5-0.5-11.1-5-11.3-11
		c-0.2-5.8,4.2-11.1,10.5-11.9c3.8-0.4,7.7-0.1,11.9-0.1c1.2-2.6,2.4-5,3.4-7.4c11.4-28.2,22.8-56.4,34-84.8
		c1.8-4.6,2.8-9.8,2.9-14.7c0.3-32.2,0.3-64.4,0-96.5c-0.1-8.5,2.4-14.5,9-20.1c25.6-21.9,50.7-44.2,75.9-66.5
		c3.9-3.5,7.5-7.6,10.3-12c14.6-22.8,29-45.7,43.3-68.7c3-4.8,6.7-7.7,12.3-9.2c35.7-10.3,71.4-20.7,107.1-31.4
		c7.3-2.2,12.8-1,18.5,4.1c24,21.8,48.2,43.4,72.4,64.9c4.2,3.7,6.7,7.8,7.3,13.6C564.3,580.9,566,590.4,567.5,600.9z M612.4,738.4
		c-0.4-1.3-0.4-2.1-0.8-2.6c-13.9-17.4-27.7-34.8-41.7-52.1c-1.2-1.5-3.4-2.7-5.4-3.2c-21.4-5.8-42.9-11.6-64.4-17
		c-3.5-0.9-7.7-1-11.2,0c-39.5,11.1-79,22.4-118.4,33.9c-3.1,0.9-6.5,3.3-8.3,6c-19.1,28.8-37.9,57.8-56.6,86.9
		c-1.7,2.6-2.8,6.2-2.7,9.3c1,28.1,2.3,56.1,3.6,84.1c0.2,5.2,0.7,10.5,1.1,16.2c19.5,0,38.4,0.1,57.2-0.2c2.1,0,4.5-2.4,6-4.3
		c17.5-22.6,34.7-45.4,52.3-67.8c3-3.8,7.1-7.3,11.5-9.5c48.5-25,97.2-49.8,145.9-74.5c2.5-1.3,5.5-1.7,8.3-2.1
		C596.4,740.3,604.3,739.4,612.4,738.4z M362.5,674.8c2.1-0.5,3.7-0.8,5.3-1.3c36.5-10.4,73.1-20.4,109.4-31.3
		c11.4-3.4,21.8-3.9,33.1-0.3c12.8,4.1,26,6.9,39.5,10.4c0-2.7,0.2-4.6,0-6.4c-2.9-22.3-5.8-44.6-9-66.8c-0.4-2.7-2.6-5.7-4.7-7.6
		c-20.6-18.7-41.4-37.2-62.1-55.8c-3-2.7-5.5-3.6-9.6-2.4c-31.5,9.5-63,18.5-94.5,27.9c-2.7,0.8-5.6,3-7.1,5.4
		c-13.1,20.3-25.8,40.9-38.9,61.2c-2.4,3.8-1.9,6.3,0.5,9.7c6.5,9.3,12.6,18.9,18.9,28.4C349.7,655.4,356.1,665.1,362.5,674.8z
		 M397.1,899.3c102.4,0,203.5,0,306.7,0c-40.6-44.8-80-88.3-119.1-131.5c-1.5,0.6-2,0.7-2.4,0.9c-45.5,23.1-90.9,46.1-136.4,69.3
		c-1.5,0.7-3,1.7-4,3C427.1,860.1,412.5,879.3,397.1,899.3z M763,773.7c0.7-1.3,1.1-1.7,1.1-2.1c0.1-19.4,0.3-38.7,0-58.1
		c0-2.1-2.1-4.8-4-6c-8.1-5.3-16.6-9.9-24.6-15.3c-4.5-3.1-8.9-6.8-12.1-11c-12.9-16.9-25.6-34-38-51.3c-3-4.2-6.1-5.9-11.3-5.9
		c-31.9,0.2-63.9,0.1-95.8,0.1c-2.4,0-4.7,0-7.7,0c1.5,11.2,2.7,21.5,4.2,31.7c0.2,1.4,1.5,2.8,2.6,3.9c3.3,3,7.4,5.4,10.2,8.8
		c16.3,20.1,32.5,40.3,48.5,60.7c3.2,4.1,6.5,6.3,11.6,4.9c10.2-2.9,19.5-0.4,28.6,4.2c3,1.5,6.2,2.6,9.4,3.9
		C711.3,752.7,737,763.1,763,773.7z M231,789.2c15.9-2.5,30.6-5,45.4-7c5.1-0.7,8.2-2.6,11-6.9c17.5-27.3,35.3-54.3,52.9-81.5
		c1.2-1.8,2.1-3.7,3.2-5.5c-12.8-19.4-25.5-38.5-38.3-57.8c-1.3,0.8-2.1,1.2-2.8,1.8c-22.7,19.9-45.5,39.8-68,60
		c-2,1.8-3.2,5.3-3.3,8.1c-0.3,19.1-0.1,38.2-0.1,57.3C231,767.9,231,778,231,789.2z M279.5,805.1c-15.3,2.4-30,5.1-44.8,6.8
		c-5.8,0.7-8.1,3.1-10.1,8.2c-9.4,24-19.2,47.9-28.8,71.9c-0.9,2.4-1.6,4.8-2.5,7.5c30.5,0,60.3,0,90.7,0
		C282.5,867.9,281,836.9,279.5,805.1z M807.4,899.9c-12.7-31.3-25.1-61.5-37.6-92.2c-27.1,13.9-53.3,27.4-80.1,41.2
		c14.7,16.8,28.4,32.7,42.5,48.3c1.6,1.8,5.1,2.5,7.7,2.5c17.2,0.2,34.3,0.1,51.5,0.1C796.4,899.9,801.4,899.9,807.4,899.9z
		 M747.8,793c-2.7-1.3-4.6-2.2-6.6-3c-19.9-8.1-40.1-15.5-59.6-24.5c-15-6.9-29.6-10.4-46-6.6c-7.8,1.8-15.9,2.2-25,3.4
		c21.7,23.7,42.4,46.2,63.2,68.8C698.6,818.3,722.9,805.8,747.8,793z"/>
	<path class="st0" d="M838.6,596.4c1.3,5.2,0.1,9.8-4.5,12.7c-16.3,10.4-32.6,20.8-49,30.9c-5.5,3.4-12.2,1.3-15.3-3.7
		c-3.4-5.5-2.3-12.2,3.4-16c15.8-10.2,31.7-20.3,47.8-30.1C828.3,585.8,836.4,588.9,838.6,596.4z"/>
	<path class="st0" d="M417.3,463.9c-1.1,5.6-4.8,10.3-9.8,11.5c-5,1.2-10.9-0.8-12.9-5.7c-3.9-9.6-7.4-19.4-10.4-29.3
		c-1.7-5.5,1.1-10.3,5.9-12.7c4.8-2.4,11.4-1.9,13.6,2.8C409,441.3,412.9,452.7,417.3,463.9z"/>
	<path class="st0" d="M558.2,443.3c-1.8,8.8-3.5,18.8-6,28.6c-1.5,5.7-7.7,8.6-13.2,7.2c-5.7-1.5-9.9-6.5-9-12.3
		c1.5-9.5,3.4-19,5.6-28.3c1.4-5.9,6.9-8.9,12.8-8C554.1,431.4,558.3,436.4,558.2,443.3z"/>
	<path class="st0" d="M656.8,505.6c-2.3,4.1-3.5,7.3-5.6,9.7c-4.7,5.5-9.6,10.8-14.7,16c-5.5,5.7-12.3,6.1-17.2,1.3
		c-4.8-4.7-4.9-11.1,0.1-16.8c5.2-6,10.6-11.9,16.2-17.5c3.7-3.7,8.7-5.3,13.2-2.2C652.1,498.4,654.1,502.3,656.8,505.6z"/>
	<path class="st0" d="M305.1,526.7c-8.9,0-32.3-17.6-32.8-23.8c-0.3-3.6,1.3-8,3.5-10.9c2.8-3.7,7.8-4.7,11.8-2
		c8.1,5.6,16,11.6,23.6,18c3.6,3,4.2,8.1,1.5,12C310.5,523.3,306.7,525.4,305.1,526.7z"/>
	<path class="st0" d="M758,572.7c-1.3,1.7-3.2,5.7-6.4,7.9c-6.1,4.2-12.9,7.6-19.5,10.9c-6.2,3-12.7,1.1-15.7-4.2
		c-3.2-5.5-1.4-12.5,4.8-16.1c6.6-3.9,13.3-7.8,20.3-11C749.5,556.4,757.8,561.6,758,572.7z"/>
	<path class="st0" d="M208.9,606.2c6,2,14,4,21.5,7.2c4.9,2.1,6.5,6.9,5.4,12.3c-1.1,5.2-5.8,9.6-11,8.6c-8.2-1.6-16.4-4-24.2-7.1
		c-4.8-1.9-6.6-8.2-4.7-13.1C197.8,609.1,201.6,606.3,208.9,606.2z"/>
</g>
</svg>
