<svg id="Layer_1" data-name="Layer 1" xmlns="http://www.w3.org/2000/svg" viewBox="0 0 601.49 931.31"><defs><style>.cls-1{fill:#ff6d00;}</style></defs><path class="cls-1" d="M270.25,750.68c-140.38-169.5-45-417.2,166.18-455L411.2,260.39c-10.9,2.14-20.61,4.5-30.45,5.89C315.7,275.5,259,238.51,230.55,178.65c-18-37.86-23.06-77.65-16.31-118.95,2-12.27,11.28-18.26,21.65-12.82,33.37,17.5,70,25.57,105.35,37.16,20.22,6.62,40.19,13.81,57.6,26.52,23.54,17.19,37.09,40.28,37.43,69.45.19,16.52-2.69,33.13-4.9,49.6-.77,5.75-.63,10,3.36,14.85,9.91,12.2,18.88,25.16,28,37.55,10.27-13.65,20.9-27.27,30.79-41.42,1.79-2.56.91-7.32.54-11-1.58-15.34-4.85-30.66-4.89-46-.07-34,15.82-59.72,44.52-77.61,22.95-14.3,49-20.77,74.22-29.29,27.24-9.19,54.12-19.45,81-29.64,10.95-4.15,20.42-.42,22.16,10.89,10,65.13-4.33,123.49-52.05,170.58-36.85,36.37-81.86,46.52-132,34.36-3.52-.85-7-1.79-11.83-3-7.54,10.18-15.2,20.54-24.06,32.52,90,6.08,162.15,43.27,214.33,114.9,52.36,71.89,65,152.07,43.88,236.08,14.42,13.74,28.3,26.65,41.79,40,8.59,8.48,8.38,15.63-.35,24.37q-92.41,92.52-185,184.88c-19,18.9-42.16,27.77-69,28.13-61.65.81-123.29,2.12-184.94,2.79-7.73.09-12.05,2.73-15.81,9.18-6.86,11.8-14.45,23.18-21.95,34.59-5.79,8.83-14.31,11.25-21.61,6.52s-8.42-13.32-2.69-22.41c9.54-15.15,19.52-30,28.78-45.35,4.73-7.82,10.64-11.26,20-11.38,65.29-.8,130.57-2.31,195.87-3,21.68-.22,39.29-7.86,54.43-23.1q72.89-73.38,146.22-146.31c8.79-8.77,17.85-17.26,28-27.09-7.41-6.87-13.09-14.1-20.47-18.37-5.48-3.16-13.85-4.76-19.71-3-9.53,2.87-19.73,7.34-26.72,14.13-40.3,39.15-79.88,79-119.4,119-13,13.11-28,19.36-46.45,19.1-27.94-.4-55.89,0-83.84-.15-11.59-.06-18.47-7.89-16.15-17.81,1.71-7.33,7.14-11.24,16.45-11.27,29.16-.1,58.32.11,87.48-.1,16.34-.12,27.53-12.42,26.34-28.25a24.92,24.92,0,0,0-20.09-22.88,68,68,0,0,0-12.68-1c-60.74-.06-121.5.5-182.24-.3-25.35-.33-43.45,9-56.66,30.64-20.44,33.39-41.87,66.17-62.9,99.2a57.39,57.39,0,0,1-4.63,6.74c-5,5.81-12.68,6.94-18.88,3a14.11,14.11,0,0,1-5.19-18.32,77.86,77.86,0,0,1,5.11-8.6C225,821.6,247.55,786.3,270.25,750.68ZM595.4,521.86c-8.37,2.62-14.35,3.71-19.59,6.3-10.87,5.35-21.41,11.39-32,17.33-18.42,10.34-37.86,16-59.22,14.45-29.81-2.21-54.09-23.44-58.5-52.21a66.41,66.41,0,0,1,13.46-51.55,243.22,243.22,0,0,1,35.71-37.29c30.27-25.52,64.51-45.33,98.82-64.88,4.34-2.47,8.62-5,13.52-7.92-110-53-239.53-14.28-302.57,73.5,5.59,3.61,11.2,7.15,16.72,10.83,29.57,19.76,59.05,39.74,82.94,66.47,21.55,24.11,36.05,51.69,38,84.73,2,34.71-18.15,61.56-50.93,67.11-16.74,2.83-33.28.69-49.54-3.9-24.45-6.91-46.61-18.81-68.49-31.34-5.56-3.18-11.31-6-18.55-9.87,7.26,48.58,25.55,89.69,55.79,125.9,14-9.8,29.13-13.76,45.21-13.8,66.53-.18,133.05-.4,199.58,0,23,.14,39.57,11.89,49.73,32.56.84,1.71,1.92,3.3,2.91,5a16.88,16.88,0,0,0,2.11-1.4c25.16-25.11,50.56-50,75.35-75.44,14.87-15.27,30.35-29,51.94-31.93,15.6-42.29,14.92-107.44,1.56-137.68C714,521,709.1,533.28,704.63,545.7c-8.73,24.23-16.57,48.8-26.08,72.71a91.2,91.2,0,0,1-29.93,39.52c-26.75,20.18-58,10.13-67.73-21.94-4.82-15.84-3.71-31.8.74-47.61,3.62-12.84,7.71-25.57,10.63-38.57C594.13,541.5,594.24,532.8,595.4,521.86Zm22-159.4c-26.54,15.77-53.6,30.77-79.47,47.59a531.43,531.43,0,0,0-57.44,43,89.75,89.75,0,0,0-22.29,30.4c-10.91,24.27,4.19,46.19,30.85,47.48,15.81.77,29.59-4.84,43.12-12.24s26.93-15.55,41.35-20.67c32.54-11.57,53.38,5.65,50.12,40a24,24,0,0,1-.5,3.6c-4.15,17.06-8.62,34.05-12.37,51.19a134.69,134.69,0,0,0-3.32,26c-.17,7.93,1.35,16.69,10.12,19.67,8.4,2.85,15.19-3,19.25-9.16,8.16-12.27,16.3-24.94,21.74-38.53,8.54-21.34,14.69-43.63,22.15-65.42,6.32-18.47,13.29-36.65,30.92-48.11C691.79,429.51,660.79,391.71,617.42,362.46ZM268,443.3c-23.36,39.43-34.81,81.11-35,126.35,25,13.12,49.46,26.5,74.44,38.79,15,7.38,31.13,12,48.13,12.24,27.16.41,41.06-15.17,37.94-42.13-2.38-20.57-11.13-38.39-23.86-54.22C342,489.92,304.72,467.44,268,443.3ZM539,234.93c2.23.94,3.28,1.63,4.41,1.81,33.62,5.35,64.11-1.75,90.15-24.1,30.55-26.21,45.88-60.54,50.5-99.89,1.16-9.9.17-20,.17-29.35-29.1,9-57.67,17.2-85.7,26.92-17.66,6.12-35.5,12.9-51.5,22.37-26.35,15.61-36.34,48.69-26.17,78.2a4.7,4.7,0,0,0,1.66-.54c2.1-1.75,4.13-3.58,6.17-5.39,27.94-24.75,59.16-44.41,93.1-59.8,9.14-4.14,17.13-1.61,20.91,6.15s.57,15.48-8.41,20.11c-3.78,1.94-7.67,3.64-11.49,5.51C592.41,191.88,564.49,210.39,539,234.93ZM241.94,82.58a8,8,0,0,0-.95,1.89,41.45,41.45,0,0,0-.55,5.43c-.3,39.9,10.32,76.26,36.23,107.17,26.82,32,61.12,45.75,102.79,40,2.13-.29,4.19-1.18,7.28-2.09-2.51-2.39-4-3.85-5.54-5.26-26.38-24.29-56.44-42.9-88.86-57.95-9.92-4.61-13.26-12.36-9.44-20.37s12-10.66,21.61-5.83c14.89,7.49,30.1,14.63,44,23.72,19.48,12.72,37.87,27.1,57.3,41.18,2.23-12.68,2.95-25.82.45-39-4.77-25.07-22.06-39.93-44.16-48.11C322.44,108.72,282,96.07,241.94,82.58Z" transform="translate(-195.98 -44.87)"/></svg>