<svg id="Layer_1" data-name="Layer 1" xmlns="http://www.w3.org/2000/svg" viewBox="0 0 906.3 803.97"><defs><style>.cls-1{fill:#ff6d00;}</style></defs><path class="cls-1" d="M241.85,566.67c3.92-10.77,11.84-15,23-14.27,3.44.23,6.91-.08,10.35.08,5.31.26,8.46,3.29,8.44,7.86s-3.11,7.46-8.54,7.6c-3.79.1-7.59,0-11.39.06-1.83,0-3.65.38-5.86.63V597.5c2.55.17,5,.48,7.5.48q146.54,0,293.07,0c1.72,0,3.46-.09,5.17,0,4.93.42,7.87,3.45,7.8,7.92s-3,7.45-8.1,7.5c-13.8.13-27.61.06-41.42.06h-7.09c0,4.11.09,7.81,0,11.51a18.11,18.11,0,0,1-.78,6.1,7,7,0,0,1-7.86,4.61c-4-.57-6.57-3.14-6.76-7.31-.22-4.77-.05-9.55-.05-14.61h-132c0,4.3.05,8.53,0,12.76-.09,5.68-2.95,9.17-7.52,9.28s-7.9-3.58-8-9.45c-.08-4.09,0-8.19,0-12.58H284.18V835.93h63.93a25.21,25.21,0,0,1,5.15.24,7.51,7.51,0,0,1,5.94,8c-.28,4-2.54,6.33-6.32,7.13a22.5,22.5,0,0,1-4.65.16q-41.94,0-83.88,0c-2,0-4,.24-6.46.4V881h498V851.88c-2.61-.15-4.95-.4-7.3-.4q-180.69,0-361.4,0a47.06,47.06,0,0,1-5.18-.07A7.71,7.71,0,0,1,382,836a46.91,46.91,0,0,1,5.69-.1H729.78V614H662.17c0,4.17.06,8.26,0,12.34-.1,5.93-3.18,9.61-7.9,9.58s-7.57-3.63-7.64-9.69c0-4,0-7.89,0-12.38-2.19-.1-4-.26-5.86-.26q-21,0-41.94,0a40.06,40.06,0,0,1-4.65-.12,7.6,7.6,0,0,1-1-15,29.33,29.33,0,0,1,6.16-.37L749,598c2.2,0,4.39-.21,7.07-.34v-29c-2.47-.2-5.08-.61-7.7-.61q-181-.06-361.92,0H311.85c-1.55,0-3.11.06-4.66-.05-4.71-.31-7.58-3.08-7.71-7.37a7.45,7.45,0,0,1,7.19-7.95c4.29-.35,8.63-.14,12.94-.16,3.6,0,7.2,0,11.18,0V532.37c-4.46,0-9.05,0-13.64,0-8.44-.1-11.63-4.43-9.09-12.39,2.46-7.72,5-15.4,7.5-23.11.41-1.27.69-2.58,1-3.88-9.44-2.4-11-5.43-8-14.64,2.72-8.32,5.45-16.63,8.28-25.27-1.21-.27-2-.41-2.81-.62-6-1.59-8.18-5.34-6.29-11.29,3.22-10.18,6.49-20.36,10-30.45,3-8.67,9.54-13.39,18.73-13.7,4.82-.16,9.64,0,15.3,0,0-6.54.22-12.85-.07-19.14-.21-4.72,1.17-8.4,5.12-11H362c4,2.24,5.63,5.58,5.42,10.25-.3,6.49-.08,13-.08,19.92,5.49,0,10.3-.11,15.09,0,9,.25,15.65,4.34,18.75,12.88,3.75,10.36,7.1,20.87,10.39,31.39,1.83,5.86-.57,9.7-6.51,11.21-.8.2-1.62.33-2.7.55,3.11,9.43,6.21,18.55,9.11,27.72,1.84,5.82-.31,10.05-5.48,11.38-1.09.27-2.22.41-3.64.66,3,9.21,5.93,18,8.77,26.85,2.66,8.28-.53,12.65-9.22,12.72-4.57,0-9.14,0-13.56,0v19.77h90.06V532.37c-5,0-9.87.42-14.58-.17-2.8-.35-6.28-1.64-7.83-3.72-1.39-1.88-1.31-5.62-.58-8.16,2.63-9.21,5.82-18.25,8.9-27.68a36.79,36.79,0,0,1-4.16-.6c-4.54-1.31-6.68-5.63-5.09-10.71,2.95-9.43,6.06-18.81,9.12-28.26-9.27-2.05-11.26-5.42-8.54-13.7,2.89-8.84,5.83-17.66,8.76-26.49,3.79-11.41,9.87-15.85,21.79-15.91,4.24,0,8.47,0,13,0,0-6.69.19-12.55-.06-18.4-.2-4.75.78-8.8,4.75-11.76h6.22c3.94,3,4.94,7,4.75,11.76-.25,6-.06,11.95-.06,18.41,5.48,0,10.28-.14,15.07,0,9,.31,15.61,4.35,18.66,13,3.74,10.55,7.15,21.22,10.51,31.9,1.57,5-.68,8.82-5.65,10.39-1.12.35-2.29.53-3.6.82,3.16,9.76,6.34,19.22,9.27,28.77,1.59,5.19-1,9.17-6.27,10.36-.91.2-1.82.44-3,.74,3,9.05,5.85,17.7,8.66,26.37s-.38,13-9.29,13c-4.43,0-8.86,0-13.51,0v19.69h90.12V532.37c-5.11,0-9.91.09-14.7,0-7.3-.17-10.57-4.73-8.51-11.76.53-1.81,1.22-3.58,1.81-5.38,2.43-7.45,4.84-14.9,7.29-22.42-9.13-1.61-11.26-5.17-8.56-13.5q4.2-13,8.45-26c-9.85-2.85-11.26-5.64-8-15.49q4.11-12.51,8.24-25c3.71-11.23,10-15.77,21.91-15.82,4.22,0,8.45,0,13,0,0-7.19.22-13.56-.08-19.91-.22-4.67,1.37-8,5.41-10.25h5.18c3.94,2.65,5.32,6.33,5.11,11-.28,6.29-.07,12.61-.07,19.14,5.67,0,10.5-.16,15.31,0,9,.36,15.5,4.64,18.53,13.21,3.67,10.4,7,20.9,10.34,31.42,1.67,5.31-.63,9.14-6,10.71-.94.27-1.93.41-3.31.7,2.84,8.66,5.56,17,8.3,25.3,3,9.21,1.48,12.15-8,14.64.35,1.3.64,2.61,1,3.88,2.49,7.71,5,15.39,7.5,23.11,2.52,7.92-.72,12.28-9.14,12.37-4.58,0-9.17,0-13.59,0v20.06h6c21,0,42.11-.06,63.17,0,11.4,0,19.35,7.15,19.65,17.66.26,8.62.24,17.26,0,25.88-.26,9.79-7.72,17-17.6,17.47-2.7.12-5.41,0-8.27,0V835.93c2.41,0,4.45,0,6.49,0,11.89.12,19.35,7.54,19.44,19.42.06,7.25,0,14.5,0,21.75-.06,12.53-7.42,19.88-20,19.92s-25.2,0-37.8,0q-225.49,0-451-.1c-4.16,0-9-.56-12.3-2.72-3.76-2.45-6.16-7-9.15-10.64V849.4c4.92-11.51,14.14-15.12,26-13.21V614a16.27,16.27,0,0,0-3.26-.4c-11,1.09-18.55-3.56-22.73-13.76ZM393.7,436.83c-2.51-7.65-4.51-14.57-7.16-21.23-.59-1.49-3.42-2.93-5.25-3q-21.69-.36-43.4,0c-1.8,0-4.59,1.53-5.19,3-2.69,6.81-4.77,13.86-7.17,21.15Zm147.36,0c-2.46-7.41-4.53-14.32-7.12-21a6.16,6.16,0,0,0-4.6-3.13q-22.23-.36-44.47,0c-1.66,0-4.22,1.48-4.77,2.9-2.66,6.84-4.78,13.9-7.22,21.27Zm79.26-.25h68c-2.29-7.06-4.42-13.58-6.51-20.12-.93-2.88-2.89-4-5.86-4-14.47.07-28.94-.06-43.4.15-1.73,0-4.47,1.26-5,2.61C624.86,422.06,622.77,429.12,620.32,436.56Zm-79.25,80.07c-2.42-7.3-4.54-14.35-7.19-21.19-.56-1.43-3.06-3-4.69-3q-22.2-.34-44.4,0c-1.64,0-4.17,1.53-4.72,3-2.65,6.84-4.77,13.9-7.2,21.23Zm-147.33,0c-2.51-7.56-4.67-14.76-7.4-21.74-.52-1.32-3.32-2.45-5.08-2.48q-21.72-.29-43.43,0c-1.72,0-4.41,1.29-4.94,2.65-2.73,7-4.9,14.15-7.36,21.56Zm294.63-.07c-2.38-7.28-4.4-14.2-7-20.88-.61-1.55-3.31-3.2-5.08-3.23-14.64-.25-29.29-.22-43.94,0-1.61,0-4.17,1.11-4.65,2.34-2.71,7-4.91,14.2-7.45,21.81ZM393.62,476.45c-2.46-7.47-4.6-14.52-7.23-21.38-.48-1.23-3-2.36-4.57-2.38q-22.23-.27-44.46,0c-1.48,0-3.85.91-4.26,2-2.71,7.1-5,14.36-7.5,21.79Zm294.71.09c-2.34-7.19-4.25-13.81-6.73-20.19-.63-1.62-3.08-3.57-4.73-3.6-15-.28-30-.22-45-.07-1.46,0-3.8,1-4.22,2.12-2.66,7-4.89,14.18-7.42,21.74Zm-147.4,0c-2.11-6.54-4.24-12.67-6-18.9-1.07-3.75-3.07-5.21-7-5.15-14,.19-27.95.16-41.92,0-3.67-.05-5.76,1.15-6.8,4.75-1.53,5.29-3.43,10.47-5.08,15.72a20.89,20.89,0,0,0-.51,3.57ZM372,552.19V532.76H347.1v19.43Zm294.75-.05v-19.4H641.84v19.4ZM494.6,532.6V552h24.74V532.6Z" transform="translate(-46.85 -93.08)"/><path class="cls-1" d="M506.79,815.18c-21.74,0-43.48.1-65.21,0-14.61-.09-25-11.17-23.6-25.37a26.84,26.84,0,0,1,3.67-10.59q32.3-54.78,65-109.37c9.8-16.37,30.81-16.47,40.64-.11q32.88,54.74,65.27,109.77c9.9,16.81-1,35.55-20.51,35.68C550.26,815.29,528.52,815.18,506.79,815.18Zm-.27-15.53q31.82,0,63.63,0c9.92,0,13.05-5.48,8-14Q546.61,732.54,515,679.47c-5.14-8.63-11-8.57-16.19.14Q467.4,732.46,436,785.31c-2,3.35-3.92,6.62-1.54,10.55,2.2,3.66,5.77,3.82,9.51,3.81C464.8,799.62,485.66,799.65,506.52,799.65Z" transform="translate(-46.85 -93.08)"/><path class="cls-1" d="M506,741.79c4,0,7-.15,10,0,7.09.41,10.45,6.29,6.77,12.35-6.26,10.3-12.79,20.43-19.35,30.54-2.81,4.32-7.4,5.41-11.14,3s-4.61-6.92-1.93-11.34c3.72-6.13,7.62-12.15,12-19.12-4,0-7,.1-10,0-7.09-.27-10.59-6.17-6.92-12.21,6.35-10.44,13-20.72,19.66-31,2.62-4,7.14-4.94,10.78-2.7,3.82,2.35,4.77,6.87,2.07,11.32C514.32,728.87,510.4,734.88,506,741.79Z" transform="translate(-46.85 -93.08)"/><path class="cls-1" d="M852,746.38c-14.84,26.33-31,50.34-51,72.57l-22-18.92c1.76-2.37,3.41-4.47,4.93-6.67,13.21-19,27-37.73,39.4-57.27,11.18-17.57,23-22.84,43-16.45,9.64,3.09,19.23,6.3,28.36,9.29,1.22-1.1,1.92-1.42,2.08-1.92,8.87-27,17.7-54,26.9-82.14-10.63-3.63-21-7.21-31.42-10.71-18.51-6.24-25.55-17.48-23.26-36.64a366,366,0,0,0-.09-88c-2.2-18,5-29.9,22.12-35.69,10-3.37,19.93-6.64,29.89-10a16.34,16.34,0,0,0,2.48-1.61L896.12,378.4c-9.81,3.15-18.86,6-27.87,9-22.29,7.3-33.86,2.88-45.48-17.45a372,372,0,0,0-49.1-67.39c-14.62-15.9-15.32-28.18-2.81-45.56,5.95-8.27,11.91-16.53,18.48-25.65L717.49,179c-6.33,8.64-12.15,16.57-18,24.51C686,222,674.47,225.13,654,215.77a358.86,358.86,0,0,0-81-26.21c-19.89-3.87-28.36-14.38-28.42-34.9,0-10.18,0-20.36,0-31.18H455.44c0,10.82,0,21.55,0,32.28-.1,19.17-8.79,30-27.68,33.67A373.51,373.51,0,0,0,345,216.2c-19.08,8.64-31.34,5.36-43.52-11.33-6-8.23-12-16.49-18.76-25.85-24,17.43-47.62,34.6-72.1,52.37,6.61,9.12,13,17.76,19.17,26.48,11.7,16.44,10.92,29.13-2.86,44.13a372,372,0,0,0-50.15,68.9c-10.66,18.86-23,23.64-43.33,17-9.36-3.07-18.74-6.12-29.47-9.62-9.21,28.18-18.27,55.88-27.67,84.63,9.7,3.2,19,6.32,28.26,9.29,22,7.05,28.53,17.08,26.08,40.09a375.83,375.83,0,0,0,.57,87.09c2,16.19-5.31,28.49-20.79,34.09-11,4-22.16,7.37-34,11.28,9.19,28.19,18.14,55.69,27.53,84.52,10-3.19,19.59-6.19,29.14-9.28,20.77-6.74,32.22-1.82,43.64,16.42,13.59,21.71,28.33,42.71,43,64.73l-20.35,18c-20.49-21.68-36.26-46.21-51.41-72.35l-30.62,9.74c-21.68,6.9-35.9-.4-43-22.11q-12.58-38.32-25.11-76.65c-6.78-20.89,1-35.88,21.82-42.6,10-3.22,19.91-6.57,29.12-9.62V502.38c-8.46-2.87-18.54-6.41-28.7-9.7C50.08,485.74,42.43,471,49.4,449.51q12.48-38.34,25.09-76.66c6.91-21,21.43-28.35,42.6-21.59,10,3.19,20,6.45,28.85,9.33,20.26-28,40.12-55.41,60.7-83.85-5.46-7.59-12-16.54-18.37-25.57-12.15-17.16-9.51-33.34,7.61-45.86q33.36-24.37,66.88-48.52C280,144.41,296,147,308.6,164c6.43,8.69,12.74,17.46,18.45,25.28l98.66-32.21c0-9.09-.06-20.18,0-31.27.14-20.9,12-32.66,33-32.71q41.34-.09,82.67,0c20.84,0,32.83,12,33,32.78.06,11.09,0,22.18,0,31.29l98.56,32.05c5.41-7.38,11.93-16.31,18.5-25.21,12.58-17,28.64-19.64,45.82-7.3q33.18,23.85,66.17,47.93c18.16,13.24,20.75,29,7.86,47.15-6.24,8.78-12.58,17.5-17.93,24.94l60.8,83.7c8.23-2.63,18.43-5.91,28.63-9.16,21.6-6.87,35.87.51,43,22.26q12.43,37.88,24.79,75.78,10.58,32.51-21.79,43.32c-9.92,3.33-19.85,6.62-28.88,9.63v103l28.92,9.82c21.6,7.31,28.8,21.61,21.73,43.34q-12.48,38.36-25,76.67c-6.75,20.49-21.42,27.95-42,21.45C873.22,753.27,863,749.92,852,746.38Z" transform="translate(-46.85 -93.08)"/><path class="cls-1" d="M803.06,675,778,664.81C821.89,519,790.56,396.58,664.55,307.12c-98.06-69.62-231.57-69.55-329.87.54C209.24,397.11,178.2,519.4,222.12,664.87l-24.46,10C154.83,582,160.41,424.42,277,314.7,390.22,208.07,566.74,197,693.67,290.52,825.45,387.66,854.29,553.05,803.06,675Z" transform="translate(-46.85 -93.08)"/></svg>