<svg id="Layer_1" data-name="Layer 1" xmlns="http://www.w3.org/2000/svg" viewBox="0 0 838.63 826.8"><defs><style>.cls-1{fill:#ff6d00;}</style></defs><path class="cls-1" d="M709.27,605.52v-24q0-98.28,0-196.57c0-35.09-20.45-55.62-55.39-55.63-92.15,0-215.42,0-307.58,0-34.27,0-55,20.72-55,54.94q-.07,106.17,0,212.35v11.53c3.79-4.32,6.07-6.7,8.09-9.28,17.7-22.62,35.26-45.36,53.06-67.9,7.22-9.15,16.84-10.68,24.75-4.56S385.8,542,379,551.58c-1.23,1.71-2.58,3.32-3.87,5L277.44,681.64q-80.82,103.54-161.65,207.1c-2.37,3-4.71,6.21-7.67,8.58-10.07,8-24.36,2.63-26.76-10.05-.58-3.06-.35-6.28-.35-9.43q0-338,0-675.93c0-56.18,35.3-98,90.13-106.93A118.47,118.47,0,0,1,190,93.89c196.57,0,424.27-.08,620.84,0,63.77,0,108.64,44.71,108.66,108.34q.11,338,0,675.93c0,.7,0,1.4,0,2.1.5,9.27-2.3,16.79-11.74,20-9.11,3.11-15.36-1.6-20.68-8.45q-27.74-35.67-55.6-71.26L624.65,555.44c-1.3-1.66-2.68-3.26-3.86-5-6.1-9-5-18.4,2.82-24.21,7.44-5.55,16.67-4.43,23.36,3.39,5.69,6.65,10.86,13.74,16.25,20.64l43.9,56.13ZM207.16,713.74l2.15.51c14-17.94,28.35-35.63,41.79-54,3.59-4.9,6.22-11.82,6.25-17.83.4-85.5.25-171,.28-256.52,0-54.82,35.25-90.18,89.88-90.2,91.47,0,214,0,305.51,0,54.6,0,89.86,35.41,89.89,90.21,0,82.7.28,165.41-.28,248.11-.08,13.08,3.13,23.3,11.58,33.18,13.06,15.24,25,31.48,39.17,49.62V406a99.31,99.31,0,0,1,.16-10.5c1-9.27,8-15.66,16.75-15.6s15.63,6.47,16.58,15.79c.35,3.47.15,7,.15,10.51,0,104.08,1,208.17-.64,312.23-.47,29.4,5.16,53.52,25.94,74.67,11.81,12,21.17,26.44,31.63,39.78l1.95-.74V822.07q0-309.09,0-618.17c0-47.33-29.25-76.4-76.84-76.4-195.54,0-422.2,0-617.74,0-47.52,0-76.66,29.1-76.66,76.56q0,309.08,0,618.16v12.49c3.63-4.23,5.65-6.41,7.48-8.75,15.1-19.33,30.49-38.44,45-58.19a32.35,32.35,0,0,0,6.12-17.85q.54-171.88.27-343.77c0-3.51-.2-7,.15-10.51.93-9.31,7.83-15.71,16.61-15.74S206,386.26,207,395.55a99.31,99.31,0,0,1,.16,10.5q0,148.24,0,296.47Z" transform="translate(-80.97 -93.84)"/><path class="cls-1" d="M500,201.77c10.56-11,19.16-20.17,28.08-29.05s18.54-9.59,25.9-2.44,6.83,17.05-1.85,25.91q-18.75,19.14-37.9,37.89c-9.68,9.45-18,9.61-27.43.42q-19.59-19-38.65-38.62c-8.28-8.46-8.86-18-2.05-25.14,7.1-7.49,17.15-7.15,25.87,1.53C481.14,181.38,489.8,191,500,201.77Z" transform="translate(-80.97 -93.84)"/><path class="cls-1" d="M483.79,700.39H405.41c-9.48,0-11.83-2.76-10.11-12,11.52-62.39,30.47-154.42,42-216.81,1.08-5.85,3.25-7.61,9.58-7.61q69.21,0,138.43,0c8.16,0,11,4.69,7.48,12.17-18.64,39.37-44.71,108.35-63.36,147.71-.7,1.49-1.33,3-2.32,5.28h5.34c31.7,0,63.4-.06,95.09.13,2.65,0,6,1.07,7.77,2.87,3.25,3.29,1.43,6.91-1.14,10.13q-21.51,27-42.94,54Q503.7,806.37,416.11,916.5c-.95,1.2-1.92,2.91-3.18,3.23-2.5.64-5.81,1.48-7.66.37s-2.72-4.42-3.28-6.93c-.31-1.42.8-3.19,1.4-4.76q39.18-101.25,78.4-202.5C482.39,704.36,482.92,702.78,483.79,700.39Zm131.23-57h-6.26q-45,0-90,0c-9.31,0-12.12-4.48-8.12-12.93,18.51-39.11,44.44-107.84,62.95-147,.74-1.55,1.33-3.18,2.1-5-1.29-.1-2-.2-2.68-.2q-59.54,0-119.07-.07c-2.72,0-3.54,1-4,3.49-9.41,51.1-26.32,131.82-35.79,182.91-1.3,7-2.51,14-3.87,21.57h5.47q37.88,0,75.74,0c9.05,0,11.75,3.87,8.53,12.2q-31,80.11-62,160.21c-1.6,4.12-3.17,8.25-4.76,12.37l.65.33Z" transform="translate(-80.97 -93.84)"/><rect class="cls-1" x="630.16" y="374.25" width="18.75" height="80.18" transform="translate(399.33 -424.7) rotate(45)"/><rect class="cls-1" x="423.35" y="254.1" width="18.73" height="80.18"/><rect class="cls-1" x="378.45" y="379.2" width="18.56" height="80.18" transform="translate(-252.08 207.82) rotate(-35.35)"/></svg>