<svg id="Layer_1" data-name="Layer 1" xmlns="http://www.w3.org/2000/svg" viewBox="0 0 887.88 887.11"><defs><style>.cls-1{fill:#ff6d00;}</style></defs><path class="cls-1" d="M733.13,558c0,22-.07,43.51,0,65,0,7.62-1.14,14.71-6.56,20.5-5.6,6-12.59,8.23-20.72,8.2-34.43-.12-68.86,0-103.29,0H592.22V852.37H677c0-3.13,0-6.37,0-9.62,0-28-.3-56,.16-83.92.58-34.7,25.94-62.6,61-68,32.2-5,65.3,15.33,75.64,47.28,2.69,8.3,3.63,17.45,3.79,26.23.48,25.82.17,51.65.17,77.47v10.84c4.07.2,7.32.51,10.58.51,27.05,0,54.1,0,81.16,0,23.58,0,35.81,12.2,36,35.7.07,8.61.29,17.23-.15,25.82-.94,18.23-13.07,30-31.36,30.83-2.77.13-5.54.06-8.3.06q-403.95,0-807.9,0a106.16,106.16,0,0,1-12-.41c-14.43-1.65-25.75-12.64-27-27.12-.84-10.08-.61-20.27-.47-30.41.3-21.46,12.49-33.77,33.84-34,21.51-.22,43-.06,64.56-.06H167.3c1.73-3.26,3.34-6.18,4.86-9.16q30.65-60.36,61.3-120.71c1.39-2.72,2.41-6.58,4.69-7.7,3.67-1.8,9.22-3.56,12.18-2s4.44,7.19,5,11.25c.34,2.58-2.14,5.59-3.52,8.32q-21.21,41.91-42.47,83.8a23.57,23.57,0,0,0-3,10.21L336,733.78c-22.94-16.65-44.93-32.88-67.26-48.61-6.21-4.38-8.73-9.32-8.7-16.88.24-54.71.13-109.44.13-164.16V493.59H175.44v19.57c2.7.39,5.08.64,7.44,1.08,5.54,1,8.9,4.37,9,10s-3.3,9.92-8.7,10.19c-12.56.61-25.19.62-37.75,0-5.36-.26-8.76-4.36-8.67-10.17s3.39-9,8.92-10c2.36-.44,4.77-.66,7.38-1V493.47H97.94v19.61c2.75.43,6,0,7.9,1.46,3.32,2.57,7.36,5.87,8.23,9.55,1.26,5.32-2.8,10-8.2,10.29-12.55.68-25.18.67-37.75.13-5.37-.24-8.84-4.19-8.88-10s3.16-9.11,8.68-10.21c2.39-.48,4.84-.61,7.79-1V493.6c-1.81-.22-3.53-.56-5.25-.61-6-.18-10.12-2.94-11.07-9s2.55-9.65,7.94-11.91q36.93-15.48,73.8-31.11c24.31-10.27,48.6-20.61,72.94-30.82,7.79-3.26,14-1.4,16.39,4.55s-.39,11.48-8.45,14.91c-26,11-52,21.92-78.06,32.88-6,2.54-12.06,5.16-17.57,9.27h133v-212H175.43v20.11c2.88.26,5.28.3,7.62.7,5.62,1,8.9,4.58,8.83,10.12-.08,6-3.68,10-9.77,10.16-11.36.37-22.74.2-34.11.14-6.44,0-10.78-3.13-11.15-9.74s3.45-10.17,10-10.81c1.8-.18,3.61-.28,6.08-.46V259.69h-55v19.95c2.79.35,5.49.48,8.08,1.06,5.54,1.23,9.34,5.21,8.08,10.43-.89,3.68-5.1,9-8.21,9.28-12.5,1.08-25.17.84-37.75.35-5.51-.22-8.83-4.26-8.85-10s3.1-9.16,8.7-10.16c2.36-.43,4.79-.47,7.73-.74V260c-2.63-.35-5.73,0-7.84-1.24-3.16-1.88-7.48-4.65-7.91-7.55-.52-3.42,1.94-7.89,4.33-11,1.66-2.13,5.34-2.74,8.17-3.93q92-38.79,184.05-77.71a38.2,38.2,0,0,0,13.09-9.51c24.48-27.59,48.63-55.47,72.88-83.27,8.48-9.71,13.86-9.74,22.41,0,25.3,28.92,50.48,57.94,75.94,86.72A24.11,24.11,0,0,1,447.33,170c-.29,22.38-.11,44.76-.11,67.72h136c-4.52-2.17-7.34-3.66-10.27-4.9q-43.23-18.28-86.5-36.53c-2.52-1.07-6.17-1.88-7.08-3.84-1.75-3.78-3.48-8.78-2.36-12.38,1.55-5,6.67-7.11,12.16-5,8.58,3.32,17.1,6.82,25.58,10.39Q575.42,211,636.05,236.58c2.26,1,5.34,1.45,6.5,3.19,2.35,3.5,5.36,8,4.82,11.53-.44,2.95-5.39,5.52-8.75,7.62-1.59,1-4.12.46-6.85.67v20.32c2.72.24,5.13.32,7.49.69,5.66.9,8.75,4.35,8.81,10s-3.17,9.86-8.68,10.1c-12.58.52-25.21.53-37.79,0-5.58-.26-9.38-5-8.29-10.2.77-3.68,4.79-7.09,8.12-9.64,1.83-1.41,5.22-.79,8.39-1.13V259.82H554.09v19.93c2.8.32,6.15-.28,7.94,1.13,3.26,2.57,7.1,6,8,9.66,1.28,5.42-2.81,9.88-8.24,10.15-12.57.6-25.2.57-37.78,0-5.54-.23-9.54-4.74-8.51-10,.72-3.69,4.68-7.11,7.9-9.81,1.54-1.29,4.71-.63,8-.93v-20.2h-81c1.26,3.59,2.13,6.73,3.44,9.69,20.41,46.27,56.27,71.68,106.06,77.55,30.19,3.56,60.67,5.08,90.72,9.52,45.1,6.68,83.93,25.28,110,64.89,12.35,18.77,19.22,39.67,23.62,61.5.36,1.77.77,3.52,1.26,5.71h46.87c0-7.6,0-14.89,0-22.18.06-10.12,3.72-15.3,10.65-15.21s10.14,5,10.26,15.52c.07,6.45.1,12.9.2,19.36a11,11,0,0,0,.76,2.37h28.5v-38c0-15.37-.06-30.74,0-46.11.06-10.37,3.59-15.15,10.76-15s10.32,4.87,10.34,15.45c0,27.65,0,55.29,0,84.08,18.5.08,38.49-1.44,41.41,23.88,3.14,27.27-.86,35.44-21,45.11v10.53q0,115.27,0,230.56c0,11.89-3.34,17-10.86,16.76-7.19-.21-9.86-4.63-9.87-16.57q0-114.83,0-229.64V558ZM609.78,493.52H554v19.79c2.74.33,5.18.5,7.57.93,5.52,1,8.82,4.14,8.94,10s-3.23,10-8.57,10.24c-12.55.64-25.18.61-37.75,0-5.43-.26-8.83-4.62-8.74-10.19s3.43-9,9-10c2.36-.42,4.78-.59,7.46-.9V493.43H447.8c-.21,3.07-.55,5.75-.55,8.43,0,54.09-.12,108.19.14,162.28A32.62,32.62,0,0,0,451.15,678q42,83.49,84.42,166.76c1.35,2.68,2.87,5.27,4.08,7.47H570V650.1c-12.77-5.66-17.73-15.63-16.78-29,.22-3.06,0-6.15,0-9.22.22-19.29,9.61-28.59,29.11-28.61q59.93-.07,119.86,0h9.61V556.82c-15.73-4.24-21.87-15-21.24-30.36.08-2.15,0-4.31,0-6.46.1-21.79,9.14-30.94,30.69-31,14,0,28,0,42.16,0-7.67-58.59-46.87-99.79-106.62-110.14-29-5-58.53-6.68-87.85-9.63-35.88-3.6-69.5-12.94-96.54-38.42-8.52-8-16-17.15-24.62-26.46v86.47c2.93,1.37,5.65,2.74,8.46,3.92q88.23,37.1,176.5,74.17c3.39,1.42,7.54,2.19,9.89,4.65,2.64,2.75,5.41,7.38,4.85,10.63s-4.85,6.25-8.14,8.4c-2,1.28-5.13.71-7.77,1v19.85c2.91.31,5.37.4,7.75.87,5.54,1.06,8.7,4.37,8.68,10.17s-3.44,9.81-8.81,10c-12.56.55-25.19.55-37.74-.13-5.44-.29-9.4-5.06-8.21-10.3.83-3.67,4.92-7,8.26-9.53,1.89-1.44,5.23-1,8.21-1.39ZM502,874.47H99c-2.77,0-5.54,0-8.3,0-7,.17-10.94,3.78-11.1,10.79q-.32,14.28,0,28.58C79.76,920.38,83.45,924,90,924.5c2.45.18,4.92.07,7.38.07H907c1.85,0,3.7.06,5.54,0,8.2-.36,11.75-3.72,12-11.8.22-6.76.07-13.52.07-20.29,0-16.49-1.5-18-17.82-18Zm-292.63-23.4.66,1.51H497.44l.53-1.53L353.65,746.5Zm587.17,1.77c.25-2.22.49-3.4.49-4.58,0-29.2.17-58.41-.12-87.61a52.8,52.8,0,0,0-3-16.19,48.86,48.86,0,0,0-53.6-32.64c-24,3.67-42.11,23.13-42.53,47.22-.52,30.12-.14,60.25-.09,90.38a12.67,12.67,0,0,0,1,3.42ZM353.76,265.13l-68.37,70.38L353,400.18l68.86-65Zm.62,173.37-69.15,66.58L352.86,570l69.19-66Zm17.31,295.12,129.1,93.44,1.52-1.67L433.18,689Zm552.4-222.9H712.6v24.69H924.09ZM580.91,471.81l.51-1.76-133.5-56.12v57.88ZM353.63,84.93l-59.16,67.83H413Zm-93.93,95.2-134,56.44.46,1.2H259.7Zm452,425.4c-18.08-2.7-130.83-1.42-136.91,1.44v23H711.73Zm-372-354.81L281.59,190.8V303.71Zm-.94,169.76-57.19-54.21V474.9Zm86.95-111.33V196l-58.25,53.19ZM368.21,419.56,426,474.07v-109Zm43,242.77-55.81-54.2-57.08,54.2Zm.13-486.76h-115l57.46,59.32ZM281.58,534V642.58l57-54.1Zm87.47,54.93L426,643.44V534.15Zm34.27,95.83H304.17l49.49,36Z" transform="translate(-58.35 -58.51)"/></svg>