<svg id="Layer_1" data-name="Layer 1" xmlns="http://www.w3.org/2000/svg" viewBox="0 0 940.29 940.45"><defs><style>.cls-1{fill:#ff6d00;}</style></defs><path class="cls-1" d="M290.17,660.72c-66.78-39.09-96.81-95.92-90.93-172.28-3.18-1.27-6.54-2.69-10-4-14-5.27-18.74-24.1-9.31-36a16.37,16.37,0,0,0,3.66-8.76c3.52-83.26,50.85-146.36,129.82-172.77a19.33,19.33,0,0,0,2.15-1.15c.86-10.62,8-14.17,18-15.83,20.78-3.45,41.4-3.9,62.12,0,2.7.5,5.48.63,8.88,1,4.72-11.27,9.37-22.36,14.35-34.23C413.12,208,407.07,199,401.13,190c-10.1-15.37-9.05-27.08,3.81-40.07q24.93-25.2,50.13-50.13c12.66-12.49,24.61-13.63,39.39-4,8.85,5.76,17.56,11.73,27.22,18.19,18.72-7.79,37.9-15.59,56.85-23.92,2.11-.93,3.48-4.79,4.12-7.54,2.13-9.07,3.6-18.28,5.63-27.37,3.27-14.58,12.91-22.81,27.54-22.94q38.23-.36,76.49,0c14.32.14,23.77,7.92,27.18,22.16,2.74,11.44,4.83,23,7.27,34.88l59.57,24.69c9.49-6.32,18.71-12.61,28.08-18.67,13.81-8.93,26.1-7.71,37.89,3.93q25.88,25.57,51.45,51.45c11.88,12,12.89,24.33,3.58,38.7-2.87,4.43-5.9,8.77-8.83,13.16s-5.85,8.78-9.37,14.08c3.91,9.51,8,19.47,12.11,29.42s8.29,20,12.58,30.36c10.19,2,20.22,4,30.25,5.95,18.85,3.68,26.77,13.07,26.82,32.05q.09,35,0,70c-.06,17.78-7.43,26.94-24.78,30.76-8.79,1.94-17.74,3.23-26.44,5.47-2.85.74-6.42,3-7.52,5.54-7.95,18.17-15.35,36.58-23.09,55.31,6.08,9.07,12.2,18,18.14,27.12,9.62,14.71,8.5,26.82-3.92,39.41q-25.21,25.56-50.8,50.77c-12.24,12-24.36,13.07-38.66,3.74-9.1-5.93-18-12.08-27.4-18.36l-59.77,24.72q-3,15.09-5.91,30.12C717,658.1,707.57,666,687.87,666.08q-34.05.13-68.09,0c-18.86-.08-28.09-7.53-32.07-25.75-1.85-8.49-3-17.16-5.27-25.52-.83-3-3.52-6.69-6.31-7.93-17.87-7.88-36-15.17-55.79-23.39-4.22,4.71-9.42,9.13-12.9,14.63a171.78,171.78,0,0,1-58.92,57.28c-2.14,1.25-4.31,2.47-6.44,3.74-.24.14-.34.51-.95,1.47a58.08,58.08,0,0,0,5.46,2.15q204.85,59.09,249.27,267.58c1.88,8.78,2.73,17.81,3.56,26.77s-4.32,14.67-13.51,15.28c-2.17.14-4.35,0-6.53,0q-314.34,0-628.7,0c-4,0-8.28.11-11.89-1.26-7.2-2.72-8.74-8.91-8-16.08C36.5,903,52.45,854.32,80.75,810.14q72.63-113.37,203.12-147.41C285.61,662.28,287.29,661.65,290.17,660.72ZM614.11,58.48c-2.58,13.19-5.21,25.62-7.36,38.13-1.34,7.78-5.15,12.75-12.65,15.73-21.33,8.5-42.62,17.15-63.64,26.41-8.4,3.7-15.12,3-22.45-2.34C497.85,129,487.1,122.3,477.9,116.16L421.2,173c6.34,9.48,12.91,20,20.23,30,5.37,7.33,6.12,14.09,2.28,22.47-6.56,14.3-12.13,29.06-17.83,43l48,25.9C508.55,183.11,630.51,132.7,730.44,177.61c95.65,43,138,155.31,93.8,250.06C802.16,475,766.35,508.57,717,525.51c-67.41,23.17-129.55,10.74-184-32.38-1.82,21.38-3.65,42.86-5.53,65,20.63,8.55,42,17.85,63.66,26.18,9.9,3.8,14.84,9.78,16.23,20.28,1.57,11.83,4.63,23.46,6.93,34.65h79.61c2.54-12.81,5.31-24.91,7.26-37.14,1.37-8.62,5.61-13.64,13.8-16.86,21.37-8.39,42.54-17.34,63.64-26.41,7.28-3.13,13.48-2.85,20,1.83,10.59,7.56,21.58,14.55,31.37,21.09l56.59-57c-5.94-8.89-12-19.07-19.17-28.37-6.55-8.48-6.73-16.28-2.44-25.83q13-28.86,24.25-58.48c3.76-9.82,9.56-15,20.16-16.39,11.84-1.53,23.48-4.59,34.8-6.9V309.15c-13.24-2.69-25.93-5.6-38.75-7.73-7.68-1.29-12-5.38-14.77-12.36-8.82-21.88-17.78-43.71-27.09-65.38-3-7.09-2.38-12.92,2-19.13,7.5-10.62,14.52-21.58,21-31.31-19.19-19.22-37.74-37.81-56.77-56.86-10,6.67-20.93,13.73-31.59,21.19-6.24,4.38-12.13,4.77-19.17,1.73-19.94-8.62-39.89-17.33-60.27-24.79-11.34-4.15-17.15-10.68-18.57-22.67-1.32-11.25-4.28-22.31-6.5-33.36ZM238.45,945.76V935.18c0-25.18-.1-50.36.05-75.53.07-12.77,4.15-16.95,16.85-17q110-.12,220.07,0c12,0,16.13,4.42,16.17,16.51.08,25.49,0,51,0,76.46v9.88h70.5V749.37c-21.11-19.21-64.52-44.11-88.64-50.11-1.59,2.14-3.66,5.73-6.47,8.59q-26.53,26.88-53.36,53.46c-29.15,28.79-67.92,28.76-97,0-18.54-18.38-36.94-36.91-55.42-55.35-2.35-2.34-4.86-4.54-6.92-6.46-25,8.44-56.81,26.39-79.65,44-5.25,4-7,8.41-7,14.93.23,59.06.13,118.11.15,177.17,0,3.31.28,6.62.44,10.19ZM554,475.42c52.54,44.93,135.81,46.82,194.34,4.6a161.62,161.62,0,0,0-119-290.86C562.8,199.32,501.81,257.5,496.68,315.7c37.63,48.37,43.38,62.88,49.67,125.25.15,1.51,0,3.7.87,4.41C557.47,453.39,553.94,464.44,554,475.42Zm-138.24-180c0,5.56-.17,11.08,0,16.58.85,23.62,2,47.22,2.65,70.84.26,9.1-5.24,14.94-13,14.94-7.5,0-12.4-5.27-13-14-.05-.62,0-1.25-.06-1.87q-1.85-49.4-3.72-98.8c-.1-2.67-.53-5.32-.88-8.64h-45.3c-.3,4.39-.57,7.45-.69,10.51q-1.81,47.53-3.57,95.07a44.94,44.94,0,0,1-.34,5.58c-1.31,7.93-6.78,12.63-14,12.13s-12-5.63-11.83-14c.66-26.42,1.66-52.83,2.5-79.24.09-3,0-6,0-9.26-61.31,16.87-110.17,88.94-103.22,148.52H519.63C523,367.86,464.16,307.31,415.75,295.45ZM505.54,497c-47,14.72-92.62,26-140.35,26-48,0-93.92-11.51-139.44-25.58-7.74,48.55,18.78,104.43,63.92,132,51.58,31.53,104.25,31.14,154.43-2.46C489,596.84,508,552.66,505.54,497ZM264.94,945.71H465.11V869.64H264.94ZM141.11,946V775.68C105.31,802.07,57,903.1,59.53,946ZM672,945.89c-9.83-66.08-36.55-122.64-82.91-172v172ZM282.71,689.76c3.05,3.31,5,5.6,7.16,7.73q22.35,22.43,44.78,44.77c19.52,19.44,41.57,19.4,61.29-.18q23.13-23,46.08-46.1c1.64-1.66,3-3.59,5.18-6.23C392.17,675.38,338.36,675.6,282.71,689.76ZM235,470.85c87,33.92,174,33.78,262.87,0Z" transform="translate(-30.65 -32)"/><path class="cls-1" d="M614.74,369.65c-16.37,0-31.28.09-46.18,0-16.45-.13-21.74-9.46-13.44-23.84C578,306.24,601,266.81,623.7,227.2c4.16-7.25,9.35-10.76,17.92-10.59,20.51.39,41,0,61.56.15,15.83.07,21.13,9.37,13.24,23.25-9,15.87-18.22,31.66-28.41,49.32h25.18c9.33,0,18.66.15,28,0,6.44-.14,12,1.5,14.56,7.78,2.52,6.11.31,11.4-4,16.16q-28.28,31-56.37,62.21-43.85,48.39-87.7,96.76a65.52,65.52,0,0,1-5.14,5.39c-4.72,4.13-10,4.92-15.48,1.7s-7.3-8.44-5.86-14.44c1.07-4.51,2.91-8.83,4.47-13.22C595.15,424.76,604.71,397.89,614.74,369.65Zm-28.11-26.12c15.68,0,29.31-.06,43,0,14.48.08,19.45,7.25,14.68,21.14-2.11,6.15-4.43,12.23-6.58,18.38-2.76,7.87-5.45,15.77-8.17,23.67l1.52.71,83.26-92c-16.75,0-31,.14-45.27,0-15.13-.2-20.52-9.7-13-23,8.09-14.3,16.43-28.47,24.6-42.73,1.1-1.93,1.83-4.08,3-6.65H644.81Z" transform="translate(-30.65 -32)"/></svg>