<svg id="Layer_1" data-name="Layer 1" xmlns="http://www.w3.org/2000/svg" viewBox="0 0 828 819.66"><defs><style>.cls-1{fill:#ff6d00;}</style></defs><path class="cls-1" d="M393.74,332.94c-8.33-8.4-15.42-15.6-22.56-22.74-4-4-8.28-7.77-12.12-11.93a11.67,11.67,0,0,1,8.44-19.67c2.55,0,5.1-.05,7.66-.05H563.27c-9-29.85-6.44-57.51,9.47-83.35a94.55,94.55,0,0,1,49.81-40.49c43.38-15.56,91.13.45,115.61,38.9,14.18,22.27,18.86,46.55,13.56,72.4-5.22,25.52-19.25,45.59-40.45,61.15l66.48,64.31,129,124.77c.82.79,1.64,1.57,2.44,2.38,3.89,3.92,5.79,8.36,3.53,13.83s-6.74,7.38-12.24,7.5c-4.82.11-9.65.06-14.47.07a20.89,20.89,0,0,0-9.16,1.55c2.51,2.51,5,5,7.54,7.51,7.94,7.69,15.88,15.39,23.89,23,4.18,4,6.84,8.44,4.62,14.35-2.36,6.26-7.56,7.95-13.68,7.95h-33.7v40c1.73.52,3.61.95,5.39,1.65,11.8,4.66,24,8.59,35.26,14.33,10.48,5.34,10.31,16.14,0,21.9-13.38,7.49-20.82,18.72-24.13,33.25-3.1,13.6-7.79,26.56-15.09,38.56a16.22,16.22,0,0,0-2,8q-.16,64.16,0,128.33a48.2,48.2,0,0,0,.74,5.63c10.43,0,20.6,0,30.76,0a35.39,35.39,0,0,1,8.44.63,11.67,11.67,0,0,1-1.44,22.89,54.15,54.15,0,0,1-7.65.24q-396,0-791.93,0c-2,0-4,.08-6-.09-7.18-.6-11.93-5.43-11.82-11.92S91,886.43,98.27,886.13c8.22-.34,16.46-.1,24.69-.11h11.33V594.4c-4.76,0-9.18,0-13.6,0-7.67,0-15.33.07-23-.22a11.41,11.41,0,0,1-11-8c-1.7-4.77-.22-8.9,3.14-12.46,1.16-1.24,2.4-2.41,3.62-3.59q119.26-115.3,238.44-230.69c4.87-4.71,9.91-6.79,16.64-6.63C363,333.18,377.48,332.94,393.74,332.94ZM529,885.71V715q0-62.88,0-125.75c0-15.68,3-18.59,19-18.62h9.88l.63-1.73L343.85,361.21Q236.06,465.46,129.26,568.72c.66,1,.81,1.4,1,1.4,4.81.2,9.61.31,14.42.51,9.5.41,13.37,4.13,13.9,13.49.17,2.82.06,5.66.06,8.49V885.45h101v-229c0-2.55-.11-5.11.05-7.65.49-7.34,4.27-11.24,11.71-12a64.38,64.38,0,0,1,6.81-.15h131.1a57.31,57.31,0,0,1,7.65.26c6.46.86,10.2,4.58,11,11a68.44,68.44,0,0,1,.16,8.48q0,109.62,0,219.22v10Zm188.55-94.6c-4.92.74-9.37,1.55-13.86,2.06-24,2.72-45.37-3.24-61.63-21.56-7.59-8.57-13.55-18.77-19.17-28.83-5.49-9.85-12.24-17.27-23.3-20.9-12.15-4-13.9-13.93-4.34-22.57,18.92-17.1,41-25.6,66.75-24.6,43.43,1.67,88.51,40.57,76.81,96.94-.55,2.63-.8,5.91.3,8.17,3,6.25,6.86,12.11,11,19.14,3.36-10,6.37-19.05,9.37-28-14-30.57-14.3-60.67,3.48-89.51,17.63-28.6,44.29-43.66,77.61-47.81V595h-287V885.5H741.1C745.16,854.38,735.62,816.08,717.55,791.11ZM404,885.6V661.07h-120V885.6ZM593.91,570c19.35,2.1,270.77,1.11,274.6-.4-6.79-7.44-14.2-15.25-21.22-23.39-4.27-4.95-9.29-6.28-15.69-6.27-70.35.19-140.69,0-211,.25a26.78,26.78,0,0,1-20.33-8.25q-73.65-71.81-147.78-143.13c-11-10.62-22-21.23-33.18-32-7.45,0-14.82-.22-22.17.06-7.05.27-14.28-1.24-22.25,1.24Zm99.32-260.32c35.07-19.71,47-65.24,26.73-100.14A73.86,73.86,0,0,0,618,183c-37,22.15-44.21,68.44-27.62,95.56h9c17.88,0,35.77.13,53.64-.07A17.76,17.76,0,0,1,666.63,284C675.24,292.56,684.13,300.89,693.23,309.63Zm87.43,473.48C767.92,816.58,765,850.54,766,885.54h74.45V770.31C821.57,781.18,801.72,783.27,780.66,783.11ZM400.15,302.61l-.81,1.66,57.46,55.57H563.93l.67-2-57.24-55.27ZM815.88,461.47H708.36L708,463.4l54.16,52.31H871.85ZM540.29,440.6,648,438.55,590.54,383l-107.88,1.81Zm247.47-3.55c.25-.67.49-1.35.74-2l-56.17-54.35-107.79,2c20.32,19.66,39,37.72,56.24,54.38ZM600.23,359.19l107.83-1.95L652,303c-17.77-1.91-102.84-1.06-108.68,1.19Zm72.12,102.94-105.49,1.8c-.13.63-.27,1.27-.4,1.9l51.2,49.65H727.55Zm102,278.41c1.92-2.33,2.62-3.15,3.29-4q17.9-22.62,35.82-45.23a28.68,28.68,0,0,1,4.77-4.83c5-3.92,11-3.6,15.47.6a11.61,11.61,0,0,1,1.87,14.71c-1.48,2.38-3.64,4.32-5.39,6.54-11,14-22.1,27.95-33,42-1.74,2.24-2.84,5-4.83,8.54,23.79-.62,42.16-8.36,54.06-27.63a88.68,88.68,0,0,0,10.2-23.16C861,691.94,865.33,676,878.8,663c-27.88-9.41-52.86-7.16-75.55,9.39C780.92,688.68,770.79,710.82,774.39,740.54Zm-72.95,29c-3.44-3.62-5.31-6.06-7.63-8-10.73-8.75-21.56-17.38-32.41-26-2.21-1.75-4.84-3-6.92-4.89a11.6,11.6,0,0,1-2.3-14.69,11.88,11.88,0,0,1,14-5.09,20.11,20.11,0,0,1,5.91,3.26q19,14.88,37.89,30c1.87,1.49,3.57,3.2,6.76,6.08-3.15-21.9-13.8-36.33-31.59-45.26-20.13-10.1-40.17-8.79-61.36,2.38,13,8.95,18.65,21.6,24.89,33.89a64.64,64.64,0,0,0,6.53,9.9C666.34,765.63,681.21,771.3,701.44,769.53Z" transform="translate(-86 -90.17)"/><path class="cls-1" d="M791.94,234.65c3.1,0,6.22-.22,9.3,0,6.33.53,10.64,4.75,11.19,10.62s-3.07,11.68-9.14,12.33a111.68,111.68,0,0,1-23.55,0c-6-.63-9.57-6.49-9.08-12.38s4.73-10.08,11.14-10.6C785.16,234.42,788.56,234.65,791.94,234.65Z" transform="translate(-86 -90.17)"/><path class="cls-1" d="M531.35,162.23a18.23,18.23,0,0,1,4.21,1.27c5.92,3.25,11.94,6.38,17.55,10.12a11.6,11.6,0,0,1,3.78,15,11.44,11.44,0,0,1-15.15,5.28,140.79,140.79,0,0,1-18.29-10.47c-4.71-3.17-5.86-8.62-3.91-13.5A12.28,12.28,0,0,1,531.35,162.23Z" transform="translate(-86 -90.17)"/><path class="cls-1" d="M793,176.07c-1,1.57-2.45,5.52-5.26,7.65a103.81,103.81,0,0,1-16.7,9.86c-6.36,3.13-12.84.9-16-4.85-3-5.49-1.61-11.67,4.17-15.43a126.35,126.35,0,0,1,17.63-9.93C784.64,159.94,792.76,165.52,793,176.07Z" transform="translate(-86 -90.17)"/><path class="cls-1" d="M740.13,121.91a17.58,17.58,0,0,1-1.22,4.31c-3.26,5.91-6.41,11.92-10.2,17.49A11.74,11.74,0,0,1,713,147.09a11.38,11.38,0,0,1-4.53-14.74A144.06,144.06,0,0,1,719,114.12c3.24-4.77,8.49-5.89,13.48-3.85S739.93,116,740.13,121.91Z" transform="translate(-86 -90.17)"/><path class="cls-1" d="M644.46,110.68c0-3.65-.39-7.35.09-10.93.73-5.5,4.86-9,10.24-9.52,5.76-.52,11.42,2.46,12.07,8.15a116.73,116.73,0,0,1,.07,25.07c-.6,5.69-6.3,8.85-11.94,8.4a11.17,11.17,0,0,1-10.55-10.22c-.4-3.61-.08-7.29-.08-10.94Z" transform="translate(-86 -90.17)"/><path class="cls-1" d="M520.44,234.63c3.1,0,6.22-.19,9.3,0,6.63.5,10.73,4.34,11.33,10.33.63,6.37-3,12.18-9.5,12.84a111.5,111.5,0,0,1-22.74-.06c-6.13-.64-9.64-6.14-9.31-12.18s4.35-10.29,10.78-10.88c3.35-.31,6.76-.05,10.14-.05Z" transform="translate(-86 -90.17)"/><path class="cls-1" d="M792.92,316.19c.19,10.79-8.21,16.7-16.42,13a111.93,111.93,0,0,1-18.21-10.59c-5.22-3.65-6.08-9.86-3.07-15s9-7.69,14.52-5a133.32,133.32,0,0,1,18.9,11.08C791.08,311.39,792.18,315,792.92,316.19Z" transform="translate(-86 -90.17)"/><path class="cls-1" d="M604.39,136.2c-.15,5.9-2.42,9.55-7,11.59s-10.72,1-13.69-3.38a156.35,156.35,0,0,1-11.29-19.71c-2.36-4.91-.17-9.46,3.88-12.72s8.76-3.6,13.39-.82C593.92,113.69,604.41,132.35,604.39,136.2Z" transform="translate(-86 -90.17)"/><path class="cls-1" d="M344.2,477.7c30.34.13,55.21,25.18,54.93,55.34s-25.66,55.12-55.7,54.82a55.08,55.08,0,1,1,.77-110.16Zm-31.69,55.05a31.62,31.62,0,0,0,31.4,31.32c17-.09,31.41-14.55,31.36-31.51a31.38,31.38,0,0,0-62.76.19Z" transform="translate(-86 -90.17)"/></svg>