<svg id="Layer_1" data-name="Layer 1" xmlns="http://www.w3.org/2000/svg" viewBox="0 0 795.24 928.74"><defs><style>.cls-1{fill:#ff6d00;}</style></defs><path class="cls-1" d="M471.61,966.74c-4-1.32-8-2.47-11.94-4-15.44-6-26.12-17-32.69-32.12-2-4.67-3.9-9.42-5.79-14-20.45-2.42-34.54-12.52-39.66-32.29-2.07-8-1.62-16.79-1.62-25.22,0-4.84-1.64-7.67-5.66-10.26C361.34,840.5,355.06,828.32,355,813c-.09-22.07,0-44.14-.06-66.21-.07-15.17-3-29.66-13.45-41.24A118.69,118.69,0,0,0,322.41,689c-54.2-38.88-94.17-89-114.15-152.71-37.85-120.65-13.32-228.08,74.92-319.2C325.12,173.78,376.81,146,436,133.4q89.07-19,174.61,13.33a307.5,307.5,0,0,1,84.47,48.52c10.5,8.44,12.88,15.31,7.37,22.67-5.37,7.17-13.7,7.07-23.73-1-31-25-65.57-43-104-53.32-55.18-14.81-110.14-13.69-164.11,5.21C337.68,194.35,283.44,242,248.25,310.69c-17.39,33.95-26.87,70.25-29.07,108.53Q214.32,504,256.42,577.35a272.37,272.37,0,0,0,82,89.52c14.36,9.92,27.06,21.37,34.58,37.51,2.66,5.7,4.66,11.72,7.33,18.55h10.45q61.67,0,123.35,0a61,61,0,0,1,9.94.54c6.66,1.1,10.79,5.92,11.07,12.36s-3.33,11.79-9.91,13.28a53.59,53.59,0,0,1-11.68,1q-59.87.1-119.73,0H382.72v18.31H618.58V750.15c-8.25,0-16,.08-23.78,0a69.21,69.21,0,0,1-11.71-.76c-6.89-1.28-11.42-7-11.17-13.34a12.88,12.88,0,0,1,12-12.57c10.24-.65,20.54-.53,30.81-.46,4.15,0,6.62-1,7.79-5.52,5.71-22,20.4-37.08,38.6-49.55a274,274,0,0,0,84.55-92c31-54.62,42.39-113.14,34.81-175.46-5.73-47.17-22.63-89.9-50.17-128.52a74.7,74.7,0,0,1-6.76-10.68,12.86,12.86,0,0,1,4.12-16.12,13.15,13.15,0,0,1,16.69.88,34.26,34.26,0,0,1,4.74,5.44c40.48,54.75,61.65,116.39,60.85,184.27-1.23,104.72-44.8,188.73-128.86,251.54-7.24,5.41-14.84,10.58-21.13,17-10.5,10.71-13.6,24.57-13.63,39.19,0,21.47-.37,42.94.1,64.4.39,18-5.48,32.34-21,42.43-2.17,1.41-3.46,5.3-3.78,8.2-.73,6.58-.21,13.3-.9,19.89-2,19.08-15.31,33.74-34.28,37-4.89.86-7.42,2.51-9,7-8.21,23.08-23.83,38-48.16,43.24-.54.11-1,.68-1.45,1Zm147.2-170H382.17c0,4.36,0,8.23,0,12.09a54.54,54.54,0,0,0,.41,7.24c1.06,6.84,5.58,11.47,12.4,12.58a51.38,51.38,0,0,0,8.14.34q97.5,0,195,0a56.33,56.33,0,0,0,7.24-.22c7.68-1,12.68-5.83,13.33-13.64C619.21,809.19,618.81,803.18,618.81,796.72Zm-25.43,60.19h-186c-.15,3.37-.36,6.05-.38,8.73-.12,19.2,4.06,23.38,23.35,23.39,45.94,0,91.89-.62,137.82.24,27,.5,26.44-10.07,26-28.14A24.42,24.42,0,0,0,593.38,856.91ZM451.79,916.27c4,13.92,12.79,22.21,25.67,22.84a429.68,429.68,0,0,0,44.25-.05c13.9-.75,24-9.69,27.35-22.31a26.07,26.07,0,0,0-3.43-.46C514.62,916.26,483.61,916.27,451.79,916.27Z" transform="translate(-103.02 -38)"/><path class="cls-1" d="M466.19,587c3.51-10.46,6.74-19.82,9.72-29.27a7.61,7.61,0,0,0-.47-5.05c-9.92-21-10.43-43.32-8.67-65.68,3.57-45.19,22.13-84.23,50.73-118.86a36.53,36.53,0,0,1,4.36-4.6c5.65-4.78,13-4.82,18.15-.22,4.85,4.34,5.76,11.29,2.06,17.32a53.68,53.68,0,0,1-4.42,5.73c-22.88,27.91-38.49,59.17-43,95.29-1.27,10.14-1.17,20.45-1.7,30.68l1.82.69c1.3-2,2.77-4,3.88-6.11,13.14-25.31,28.65-49.09,47.5-70.47,6.85-7.76,8.81-16.15,8.06-25.76-.41-5.12-1.43-10.19-1.8-15.31-.54-7.52,3.88-13.34,10.67-14.56,7-1.26,13,2.4,15.46,9.52,1,2.79,1.55,5.69,2.56,9.44,7.47-6,14-11.75,21.12-16.83,10.3-7.4,20.77-14.58,31.5-21.33,7.87-4.95,15.79-3.31,20,3.2s2.29,14-5.26,19.54c-15.37,11.2-31.61,21.37-46,33.71-15,12.89-28.29,27.83-42.32,41.88.38.82.77,1.63,1.16,2.45,5.2,0,10.4-.11,15.6,0,9.83.25,16.06,5.55,16.1,13.55s-6.16,13-16,13.73c-11.41.88-22.79,2.14-34.14,3.6-2.46.32-5.82,1.57-6.89,3.45-8.73,15.37-17,31-26,47.59,13.12,2.29,24.12.57,34.93-1.54,43.37-8.49,77.95-31.62,105.73-65.29,20.12-24.38,33.78-52.07,39.61-83.37,3.69-19.84,3.93-39.64-.52-59.39-2.11-9.4-6.67-13.21-16.56-13.38a155.86,155.86,0,0,0-68.58,14.33c-4.94,2.27-9.72,4.88-14.72,7-8.47,3.6-15.95,1.18-19.24-6-3.15-6.82-.62-13.78,7.2-18.2,21.25-12,43.91-20.27,68.23-22.86,11.92-1.26,24.21-1.82,36.07-.41,18.4,2.2,31,15.67,34.39,33.7,10.95,57.48-3.67,108.9-37.19,155.69-25.69,35.85-59,62-100.72,76.86-24.09,8.61-48.71,14.18-74.58,10a19.28,19.28,0,0,0-3.82.19A433.14,433.14,0,0,0,479.22,655c-.18,1.2-.18,2.43-.42,3.61-1.53,7.72-7.7,12.87-14.5,12.19-7.83-.8-13.17-7.61-12.29-16.2.59-5.7,1.83-11.33,2.55-17,.34-2.65,1-5.72,0-8-4.74-11.34-10-22.49-15.17-34a121.48,121.48,0,0,1-52.14-.87c-60.26-14.06-110-71.44-108.08-133.12.6-19.17,10.46-30.93,29.58-33.89,41.76-6.46,77.66,6.75,108.55,34.11,26,23,42.18,51.93,46.22,86.77a74.9,74.9,0,0,1-1.23,23.32C461.15,577.49,461.4,581.79,466.19,587Zm-33.35-52c-2.93-13.56-10-26.42-19.44-37.88-24-29.14-54.25-45.63-92.95-43.71-13.5.67-14.35,1.71-14,14.9a72.36,72.36,0,0,0,1.06,10.8c8.75,49.29,54.1,89.15,104.35,91.7,3.34.17,6.71-.33,11.9-.62-7.41-8.93-13.13-16.32-19.36-23.26a200.33,200.33,0,0,0-58.59-45c-8.68-4.42-11.41-12.49-7.67-19.48s11.69-8.87,20.41-4.33c18.83,9.83,36.35,21.5,51.78,36.22C417.89,521.5,425.73,528.44,432.84,535Z" transform="translate(-103.02 -38)"/><path class="cls-1" d="M514.1,71.84c0,6.62.38,13.27-.1,19.86-.64,9-5.81,13.76-13.67,13.6-7.46-.15-12.66-4.79-13-13.31-.5-13.52-.48-27.09,0-40.61.3-8,6.14-13.29,13.12-13.38s12.78,5.14,13.4,13.09c.54,6.88.11,13.83.11,20.75Z" transform="translate(-103.02 -38)"/><path class="cls-1" d="M216.29,262.18c-.64,11.77-9.75,18.35-18.13,14.15a434.71,434.71,0,0,1-38.36-22.12c-6.37-4.05-7.17-11.6-3.42-17.63,3.48-5.6,10.28-8.3,16.51-5,13,6.89,25.85,14.28,38.28,22.21C214.17,255.7,215.33,260.51,216.29,262.18Z" transform="translate(-103.02 -38)"/><path class="cls-1" d="M783.76,262.71c2.8-3.6,4.91-8.28,8.54-10.61,11.13-7.16,22.69-13.7,34.37-19.95,7.21-3.86,14.41-1.7,18.21,4.42,4.06,6.54,2.52,14.23-4.78,18.77-11.51,7.15-23.22,14-35.22,20.29C795.19,280.69,785,274.21,783.76,262.71Z" transform="translate(-103.02 -38)"/><path class="cls-1" d="M342.18,735.29a53.88,53.88,0,0,1-3,7.17c-5.9,10.49-11.86,20.95-18,31.28-4.59,7.67-12.72,10.44-19,6.89-7-4-9-12.22-4.42-20.47,6.14-11,12.4-22,19-32.77,4.08-6.61,10.08-8.61,16.16-6.43C338.7,723,342.42,728.27,342.18,735.29Z" transform="translate(-103.02 -38)"/><path class="cls-1" d="M706,767.15c.06,7.54-2.77,12-8.43,14-5.48,2-11.46,1.43-14.66-3.73-8.07-13-15.8-26.26-22.8-39.86-3.14-6.09.35-12.72,6.42-15.85,6.25-3.21,13.13-1.82,17.32,4.84,7.2,11.45,13.73,23.32,20.38,35.12A22.76,22.76,0,0,1,706,767.15Z" transform="translate(-103.02 -38)"/><path class="cls-1" d="M136.52,422.39c6.62,0,13.26-.24,19.87.07,8,.37,13.5,5.59,13.92,12.68.43,7.32-5,13.83-13.37,14.15-13.53.53-27.11.54-40.64,0C107.73,449,102.71,443,103,435.24s5.71-12.53,14.51-12.84c6.32-.22,12.65,0,19,0Z" transform="translate(-103.02 -38)"/><path class="cls-1" d="M865.14,422.37c6.33,0,12.66-.2,19,.06,8.62.35,14,5.58,14.15,13.2s-5,13.42-13.69,13.72c-13.23.46-26.5.46-39.74,0-8.46-.29-14-6.37-13.9-13.71s5.89-12.88,14.34-13.22C851.88,422.15,858.52,422.37,865.14,422.37Z" transform="translate(-103.02 -38)"/><path class="cls-1" d="M847.11,625.91c-.31,11.87-10,18.72-18.55,14.38-12.89-6.51-25.37-13.9-37.63-21.54a13,13,0,0,1-4.21-17.59c3.33-5.92,10.67-8.86,17.24-5.4q19.17,10.11,37.48,21.81C844.54,619.54,846,624.13,847.11,625.91Z" transform="translate(-103.02 -38)"/><path class="cls-1" d="M310.84,89.55c2.08,1.57,7.12,3.72,9.62,7.53,7.08,10.8,13.35,22.16,19.5,33.53,4.06,7.52,2,15.19-4.29,19-6.48,3.91-14.19,2.23-18.73-5.08-7-11.24-13.68-22.68-19.81-34.4C292,100.25,297.78,90,310.84,89.55Z" transform="translate(-103.02 -38)"/><path class="cls-1" d="M217.55,608.79c-2.74,3.64-4.76,8.4-8.35,10.72-11.11,7.18-22.68,13.69-34.34,20-7.48,4-15.08,1.68-18.76-4.85s-2.19-13.62,4.86-18c11.47-7.18,23.16-14.08,35.18-20.29C206.06,591.16,216.1,597.3,217.55,608.79Z" transform="translate(-103.02 -38)"/><path class="cls-1" d="M706,103.83c-.23,1-.27,3.31-1.25,5.06-6.91,12.34-13.82,24.69-21.16,36.76-3.09,5.07-8.51,6.75-14.21,5.48-5.88-1.31-9.07-5.72-10.07-11.48a9.93,9.93,0,0,1,.73-6.07c7.35-13.11,14.62-26.28,22.61-39,3.41-5.44,9.53-6.16,15.4-3.83C703.29,92.83,706,97.05,706,103.83Z" transform="translate(-103.02 -38)"/></svg>