<svg id="Layer_1" data-name="Layer 1" xmlns="http://www.w3.org/2000/svg" viewBox="0 0 797.82 858.73"><defs><style>.cls-1{fill:#ff6d00;}</style></defs><path class="cls-1" d="M228.56,433.06c-3.57-11.83-7.4-23.47-10.6-35.28-28.52-105.3,40.54-199.45,137.37-219.25,77.38-15.82,143.46,6.6,192.59,69.65,36.76,47.17,42.6,100.94,26.07,157.64-2.65,9.09-5.86,18-8.8,27,.39.49.64,1.14,1.07,1.31,26,10.23,38,38.72,29.53,68.79-6.63,23.62-21.08,41.17-43.38,51.68a13.32,13.32,0,0,0-7.7,9,222.66,222.66,0,0,1-37.58,71.73c-5.64,7.16-3.75,14.85-3.09,22.41.16,1.84,3.85,3.64,6.18,5,35.69,20.46,71.47,40.76,107.12,61.28,14.31,8.24,28.38,16.9,42.52,25.43,21.76,13.12,32.44,32.53,32.47,57.85q.06,50.84,0,101.69a38.24,38.24,0,0,1-.19,5.87c-1,6.44-6.15,10.71-12.23,10.35-5.86-.34-10.24-4.57-10.94-10.8a62.47,62.47,0,0,1-.12-6.71c0-32.78-.27-65.56.1-98.34.22-18.67-7.35-32.19-23.55-41.34-11.19-6.32-22.09-13.17-34.86-20.83V757q0,74.81,0,149.6a57.73,57.73,0,0,1-.39,9.22,11.13,11.13,0,0,1-10.45,9.3,10.91,10.91,0,0,1-11.54-7.86,43.21,43.21,0,0,1-1-10.8c-.06-54.63-.14-109.26.09-163.89,0-6.58-1.54-10.61-7.8-13.82-13.11-6.71-25.7-14.45-40-22.64v10.32q0,58.41,0,116.82c0,13.29-3.57,16.83-17,16.83q-125.22,0-250.46,0c-14,0-17.31-3.33-17.32-17.34q-.06-58,0-116c0-3-.25-5.95-.44-10.35l-47.45,27.07v9.67q0,82,0,163.9a65.48,65.48,0,0,1-.15,7.55,11.52,11.52,0,0,1-22.74,1.51,43.14,43.14,0,0,1-.56-9.18q0-74.38,0-148.76V748c-2.58,1.23-4.53,2-6.3,3-9.14,5.43-18,11.29-27.39,16.34-17.39,9.39-24.77,23.67-24.41,43.34.59,31.92.17,63.87.14,95.81a50.71,50.71,0,0,1-.37,8.37c-1.09,6.59-6.16,10.66-12.26,10.21-5.85-.43-10-4.66-10.63-11a57.64,57.64,0,0,1-.14-5.88c0-33.34.23-66.68-.07-100-.24-26.9,11.27-46.73,34.38-60.1q73.41-42.45,146.76-85c2.93-1.7,7.25-4.31,7.45-6.78.49-6.14,1.13-14.06-2.12-18.42-17.41-23.38-31.07-48.5-39.59-76.35-1.28-4.19-4.29-5.39-7.53-7.05-26-13.37-41.55-34.34-45-63.59-3.13-26.51,10.36-48.43,30.53-56.27C227.41,434.39,227.92,433.63,228.56,433.06Zm326.86-52.25c8.59-33.57,2.22-73-16.66-104.87-51.54-87-176.48-105.76-252.33-37.46-40.36,36.33-57.28,81.68-49.51,135.78a58,58,0,0,0,1.82,6.62c49.47-29.2,102.54-41.58,158.72-41.54S506.61,352.09,555.42,380.81Zm-294.74,112c0,3.12-.1,4.75,0,6.36,2.31,32.19,10,62.94,25.25,91.51,15.95,29.95,36.86,55.48,67.21,72,28.08,15.26,56.82,16.25,85.08,1.1A149.06,149.06,0,0,0,469.6,641.6c35.23-33.07,54.12-74.77,61.41-122.06,1.23-8,1.63-16.16,2.41-24.25l-1.88-.41c-2.81,3.74-5.57,7.51-8.43,11.21s-5.87,7.49-8.91,11.16c-8.76,10.59-12.34,11.13-23.94,3.39A162,162,0,0,0,416.84,494c-41.89-4.51-80.6,4.53-115.65,28.35-7.94,5.39-12.87,4.79-19-2.42-5.79-6.82-11.1-14.05-16.63-21.09C264.26,497.19,262.89,495.57,260.68,492.85Zm238.92,5.2c22.33-28.21,39.06-58.8,49.85-92.47-87.84-60.31-230.9-53.63-304.72.53a289.93,289.93,0,0,0,49.76,92C362.93,459.72,430.8,459.73,499.6,498.05ZM502,685.23c-16,52.75-51.49,83.92-97,86.27-23.37,1.21-45-3.67-64.74-16.39-25.45-16.43-40.84-39.92-47.64-70.3l-14.07,7.85V826.14H515.62V692.84c-2.55-1.49-5.17-3.06-7.82-4.56C506.13,687.33,504.4,686.5,502,685.23ZM314.05,664.49c2.48,36,17.57,61.89,48.58,76,31.23,14.25,61.09,9.69,88-11.86,20.15-16.15,32.15-47.6,27.57-62.87C424,708.92,369.68,708.68,314.05,664.49ZM557.34,456.32c-.61,23-1.2,45.15-1.79,67.17,15.06-10.28,23.53-35.15,17.29-51.75C570.09,464.42,565.51,458.73,557.34,456.32ZM238.78,525.15c-.87-23.34-1.7-45.61-2.57-68.74-9.53,3.68-14.58,10.57-16.16,19.85C216.68,496,224.82,511.47,238.78,525.15Z" transform="translate(-101.84 -73)"/><path class="cls-1" d="M722.78,719.75c0-49-.09-98,.12-147,0-6.3-1.53-10.64-6.54-15C661.93,510,670.62,422.29,733.15,385.76c.73-.42,1.46-.83,2.2-1.23,12.18-6.6,20.49-1.94,20.67,11.79.16,12.89,0,25.77,0,38.66,0,2.52,0,5,.09,7.56a31.16,31.16,0,0,0,30.79,29.52c16.71.17,30.93-12.93,31.5-29.68.44-13.43.12-26.89.14-40.33,0-2.24-.05-4.49,0-6.73.4-12.19,8.66-17.29,19.27-11.49,27.18,14.87,45.49,37.2,52.79,67.34,10.17,42-1.3,78-33.16,107.23-4.14,3.8-5.73,7.41-5.72,12.87q.21,145.79.14,291.57c0,17.12-4.17,32.67-15.35,45.93a64.42,64.42,0,0,1-113.69-41.13c-.31-39.77-.09-79.55-.1-119.32Zm9.86-304.65c-3.32,3.07-5.25,4.61-6.9,6.4-32.88,35.8-28.42,92.33,10.22,122,7.86,6,10.5,12.37,10.47,21.91q-.4,147.48-.16,295c0,3.08-.09,6.16.09,9.24,1.23,20.84,17.44,37.08,38.45,38.6a40.41,40.41,0,0,0,42.3-32.06,73,73,0,0,0,1.25-15q.1-147.9-.1-295.79c0-9.49,2.54-15.85,10.41-21.92,38.66-29.76,43-86,10.08-122-1.71-1.87-3.7-3.48-6.73-6.3,0,10.43.2,18.82,0,27.21a54.68,54.68,0,0,1-109.32-.08C732.46,433.9,732.64,425.51,732.64,415.1Z" transform="translate(-101.84 -73)"/><path class="cls-1" d="M751,345.26c-7.46-2.53-11.59.2-15.19,5.38-4,5.74-8.52,11.11-13,16.46-5.33,6.3-9.29,7.19-17,3.81q-18.86-8.21-37.54-16.76c-7.46-3.41-9.4-7.24-8.17-15.39,1.13-7.47,2.54-14.89,3.65-22.37,1.33-9-2.49-13.12-11.72-12.32-7.53.65-15,1.73-22.53,2.56s-11.71-1.33-14.54-8.38q-8.13-20.24-15.67-40.71c-2.35-6.39-1-10.54,4.53-14.71,6.47-4.9,13.22-9.43,19.76-14.23,6.91-5.08,7.09-10.91.54-16.24-5.86-4.78-11.87-9.38-17.71-14.17-6.91-5.68-8-9.65-4.58-17.55q8.17-18.87,16.73-37.56c3.63-7.92,7.49-9.82,16.12-8.4,7.73,1.27,15.43,2.72,23.16,4,6.57,1,11.53-3.21,11-9.87-.55-7.53-1.59-15-2.55-22.52-1.3-10.14.76-13.87,10.06-17.47,12-4.65,24-9.29,36-13.8,9.79-3.66,13.09-2.6,19.28,5.89,4.29,5.89,8.42,11.89,12.75,17.74,4.54,6.13,11,6.26,15.85.31s9.4-11.85,14.17-17.71c5.88-7.21,9.58-8.16,18.29-4.39q18.48,8,36.81,16.35c7.94,3.62,9.91,7.62,8.48,16-1.26,7.44-2.62,14.88-3.84,22.33-1.34,8.12,3.17,12.79,11.26,11.87s16.12-2,24.22-2.52c7.54-.51,10.87,1.57,13.64,8.52q7.77,19.48,15,39.18c2.87,7.8,1.59,11.79-5.05,16.74-6,4.52-12.31,8.76-18.42,13.22-7.4,5.41-7.58,11.16-.57,16.82,5.89,4.75,11.89,9.35,17.74,14.14,6.38,5.23,7.55,9.37,4.3,16.94q-8.29,19.28-17.07,38.32c-3.32,7.22-6.61,8.95-14.75,7.91s-16-2.66-24.06-3.72c-7.62-1-12.13,3.61-11.25,11.13.9,7.78,2.06,15.54,2.72,23.35.71,8.35-1.41,11.74-9.24,14.84q-19.11,7.56-38.39,14.68c-8,3-11.72,1.91-16.76-4.81C761.71,360.53,756.29,352.7,751,345.26ZM864,165c-7.5.85-13.94,1.21-20.23,2.4-9.45,1.79-17.07,0-22.57-8.6-1.77-2.77-4.51-5-7-7.23-4.28-3.91-5.94-8.38-4.77-14.29,1.68-8.41,2.73-16.94,4.07-25.56l-24.71-10.9c-4.71,5.88-9.57,11.31-13.71,17.24-5,7.19-11.2,10.62-20.06,8.66a21.6,21.6,0,0,0-7.52-.28c-8.91,1.24-14.91-2.44-19.47-10-3.74-6.15-8.3-11.8-12.49-17.68l-25.28,9.81c.71,6.62.93,12.79,2.12,18.77,2.13,10.71-.23,19.29-9.87,25.31a17,17,0,0,0-4.14,4.14c-4.66,6-10.64,7.51-17.92,6.07-7.64-1.51-15.37-2.51-23.51-3.8-3.79,8.52-7.36,16.57-11,24.7,4.48,3.61,7.91,7,11.91,9.48,11,6.84,17,15.8,13.91,29.28a13.11,13.11,0,0,0,.05,4.19c.74,7.14-2,12.31-8.06,16.27-6.71,4.41-13.06,9.37-19.73,14.21,3.37,8.71,6.47,16.73,9.76,25.22,8.75-1,17.08-1.67,25.35-2.84,5.5-.79,9.86.61,13.56,4.72s7.55,8.27,11.53,12.2a14.15,14.15,0,0,1,4.2,13.73c-1.57,8.21-2.8,16.47-4.27,25.32l24.66,11.06c2.51-3,5.15-5.25,6.68-8.12,8.17-15.3,20.68-20.28,37.55-17.9,6.37.9,11.16,2.51,14.78,7.81,4.54,6.68,9.34,13.18,14.39,20.25l25.28-9.87c-.69-6.39-.89-12-2-17.46-2.14-10.77-.81-20,9.39-26.29,2.08-1.29,3.72-3.4,5.33-5.33,4.42-5.3,9.86-6.73,16.54-5.37,7.87,1.6,15.84,2.68,24,4l11-24.74c-4.38-3.54-8.19-7.31-12.63-10.07-10.5-6.56-16.5-14.89-13.12-27.88a14.87,14.87,0,0,0-.06-5c-.66-7.1,1.93-12.32,8.05-16.27,6.75-4.36,13.07-9.36,19.71-14.17C870.44,181.55,867.33,173.52,864,165Z" transform="translate(-101.84 -73)"/><path class="cls-1" d="M775.52,726.77c0-14.28-.06-28.56,0-42.83a34.82,34.82,0,0,1,1-9.13,10.8,10.8,0,0,1,11.63-7.67c5.27.51,8.87,3.33,10.19,8.51a26.94,26.94,0,0,1,.55,6.67q0,44.92,0,89.86a28.57,28.57,0,0,1-.44,5.85,11,11,0,0,1-10.77,8.82c-5.44.15-9.94-2.86-11.31-8.1a33.88,33.88,0,0,1-.81-8.31C775.48,755.88,775.52,741.33,775.52,726.77Z" transform="translate(-101.84 -73)"/><path class="cls-1" d="M748.85,160.69c35.37,0,63.24,28.11,63.08,63.61a63.11,63.11,0,1,1-63.08-63.61Zm39.62,62.71a39.63,39.63,0,0,0-79.25.22,39.63,39.63,0,1,0,79.25-.22Z" transform="translate(-101.84 -73)"/></svg>