<svg id="Layer_1" data-name="Layer 1" xmlns="http://www.w3.org/2000/svg" viewBox="0 0 931.64 869.66"><defs><style>.cls-1{fill:#ff6d00;}</style></defs><path class="cls-1" d="M314.17,381.35c-7.52,4.95-13,8.75-18.73,12.29A86.87,86.87,0,0,1,245.84,407C193.91,405.57,142,404.72,90,403.42a39.09,39.09,0,0,1-14-2.9A26,26,0,0,1,60.4,374c1.38-12.83,9.88-23.15,22.09-24.81,26.19-3.55,52.48-6.46,78.74-9.52q70.16-8.16,140.31-16.15c5.58-.63,10.25-2.3,14.35-6.68,3.43-3.66,8.3-6,13.36-9.46-.37-4-.76-8.78-1.25-13.53-2.49-23.7.63-45.68,13.88-66.63,27.05-42.78,52.73-86.42,78.79-129.82,6.34-10.55,14.88-17,27.47-16.35,18.23,1,30.25,19.66,23.85,37.14-3.54,9.66-8.05,19-12.14,28.44q-37.56,87-75.12,173.91c-1.37,3.16-2.59,6.39-4.16,10.3l10.14,4.93c8.69,4.22,17.55,8.14,26,12.72a79.75,79.75,0,0,1,32.82,33.17c24.86,45.92,50.2,91.57,75.41,137.3,3.49,6.32,6.45,12.73,4.87,20.19C527.47,550.4,521.38,559,510,561.93s-21.88-.19-29.33-10c-10.38-13.59-20.48-27.38-30.69-41.1q-36.11-48.53-72.2-97.05a19.43,19.43,0,0,0-7.57-6.61c1.66,148.19,3.32,296.38,5,445.47,13.78-1.35,18.89,6.8,21.81,16.58H628.6c5.79-12.68,16.79-17.19,31.26-16.42v-42h-188c-2.26,0-4.52,0-6.78,0-13-.28-17.63-6.45-13.4-18.67,9.37-27.09,19-54.09,28.48-81.15q16.77-47.88,33.47-95.79c4.46-12.75,6.36-14.16,19.42-14.16q157.34,0,314.65,0c12.74,0,14.85,1.44,19,13.36q30.84,88,61.57,176.06a38.72,38.72,0,0,1,2.23,7.39,11,11,0,0,1-9.32,12.57,59.61,59.61,0,0,1-9.65.38q-89.56,0-179.11,0H720.51v41.95c16.78-.92,28.82,4.94,32.68,22.64,17.23,1.44,34.23,2.51,51.14,4.34,44.24,4.79,88.44,9.89,132.65,14.92,6.41.72,12.8,1.6,19.17,2.58,9.26,1.42,13.47,6.35,12.17,14-1.18,6.92-6.58,10.12-15.56,9-31.67-4-63.29-8.45-95-11.91-32-3.49-64.22-6-96.34-8.89-2.5-.23-5,0-7.95,0-.24,2.4-.32,4.28-.62,6.12-1.49,9.19-4.79,12.31-14,12.69-6.77.27-13.55.07-20.33.07q-35.82,0-71.64,0c-16.13,0-18.77-2.67-19.31-19.19-.06-1.88-.37-3.76-.65-6.49-72.8-1.76-145.29-2.08-219,1.09,1.57,3.71,3,6.54,4,9.5,3.34,9.75-1.32,17.2-11.56,17.27q-58.08.35-116.17,0c-10.34-.06-13.34-4.75-12.75-18.89-16.38,1.48-32.7,2.5-48.9,4.5-48.63,6-97.2,12.55-145.84,18.54-4.06.51-9.44-.14-12.44-2.5-7.33-5.76-4.05-17,5.5-19.17,10.69-2.37,21.56-4,32.42-5.42C143,892.35,184,887.22,225,882.43q25-2.91,50.13-4.22c6.51-.33,10.32-2.38,11.84-8.67.3-1.23,1.18-2.31,1.54-3.54,2.75-9.2,8.63-14.09,20.35-13C310.6,696.05,312.37,539.64,314.17,381.35ZM332.22,853c3.72,0,6.94.06,10.14,0s6.26-.27,9.58-.42c-1.74-154.66-3.48-308.66-5.21-463l-9.42-.44C335.62,543.56,333.93,697.65,332.22,853ZM702.4,787h88.3c-4.11-23.48-8.08-46.15-12.07-68.87H702.4Zm99.88-69c4.16,23.73,8.08,46.17,12.09,69.07h88.12l-24.28-69.07ZM478.36,786.49a18.29,18.29,0,0,0,3.63,1c26.08.07,52.17,0,78.24.19,5.07,0,6.47-2.36,7.21-6.85,2.92-17.77,6.23-35.48,9.28-53.22.52-3,.49-6.14.74-9.58H502.27C494.23,741,486.32,763.68,478.36,786.49ZM602,717.88c-4,23-8,45.67-12,69H677.8v-69Zm172.5-24-12.2-69H702.53v69Zm-263.63-.18h71.75c4-23.19,8-45.83,12-68.82H534.92ZM845.7,625H785.93c4.15,23.44,8.17,46.13,12.14,68.59h71.69ZM606.23,693.41h71.89V624.94H618.24C614.2,648,610.26,670.44,606.23,693.41ZM149.92,381.92c5,0,8.49-.06,12,0,25.15.48,50.4-.21,75.43,1.82,26.26,2.13,47.08-7.38,66-24.73-.67-3.72-1.38-7.67-2.19-12.21l-153,17.84C148.81,371.05,149.29,375.78,149.92,381.92Zm213.72-71.39,61.22-141.79-16.49-6.14c-18,29.81-35.45,58.68-52.73,87.66-1.76,3-2.65,6.54-3.45,9.95-3.62,15.39-1.13,30.69.74,46.28Zm112.57,168c-15.4-28-31-54.7-44.94-82.24-10.16-20.06-27-30.09-47.07-37.52l-7.28,14.89L462.74,489ZM383.64,896.89c-3.27-7.37-6.21-14-9.17-20.69-20.45,0-40.1.06-59.76-.06-3.67,0-6,1-7.35,4.69-2,5.29-4.39,10.39-6.83,16.06Zm267.81-2.38h77.69V876.74H651.45ZM342.92,329.18c-9.84.18-17.82,8.9-17.59,19.21.21,9.56,8.44,17.42,18.32,17.5,9.61.08,18.15-8.79,18.2-18.89C361.91,337.1,353.28,329,342.92,329.18Zm341.79,482v41h11.16v-41ZM434,147.57c5.42-12.57,10.63-24.24,15.36-36.09.68-1.7-.92-4.31-1.47-6.49-1.93.68-4.77.77-5.63,2.12-7.18,11.24-14,22.71-21.3,34.78ZM476.77,508c7.46,10,14.44,19.59,21.77,28.91,1.07,1.35,3.8,1.39,5.77,2,.57-1.9,2.21-4.34,1.56-5.6-5.79-11.29-12-22.36-18.37-34.05ZM124.88,367.44c-12.65,1.41-24.38,2.52-36,4.19-1.87.27-3.39,3-5.07,4.61,1.59,1.28,3.16,3.61,4.78,3.65,12.37.31,24.74.17,37.61.17Z" transform="translate(-36.91 -55.13)"/><path class="cls-1" d="M661.89,322.38c.29-48.38,39.74-87.55,87.66-87,46.66.48,86,41.2,85.52,88.5s-38.77,84.85-86.34,84.65C699.61,408.27,661.59,370.58,661.89,322.38Zm149.76.19c.22-35.29-27.2-62.87-63-63.38-34.51-.49-63.32,27.47-63.69,61.82-.38,34.7,29.07,65,63.26,65C782.83,386.07,811.43,357.47,811.65,322.57Z" transform="translate(-36.91 -55.13)"/><path class="cls-1" d="M192.85,196.25c21.59,0,43.21-.59,64.77.27a81.77,81.77,0,0,1,28.05,6c24.66,10.46,30.57,40.27,12.71,60.31-9,10.11-20.49,13.36-33.31,10.29s-21.52-11.39-26-23.76c-2.39-6.65.43-12.54,6.48-15.19,5.56-2.43,10.89-.37,14.58,5.68.5.82.85,1.73,1.28,2.6,2.61,5.36,6.46,8.85,12.86,8.17,6-.63,9-4.6,10.33-10,1.47-6.12.71-12.54-5.38-15.08-7.24-3-15.26-5.56-23-5.76-30.92-.81-61.87-.64-92.8-.83-12.25-.07-24.5-.11-36.74-.21a40.89,40.89,0,0,1-6.74-.42c-6.81-1.21-10.36-5.55-10-12,.3-6,3.87-10,10.42-10.54,6.74-.51,13.53-.26,20.29-.27q26.12,0,52.21,0Z" transform="translate(-36.91 -55.13)"/><path class="cls-1" d="M162.73,133.86c-20.3,0-40.61,0-60.91,0a43,43,0,0,1-9.57-.78c-5.85-1.36-8.43-5.73-8.48-11.41s4.13-10.34,10.28-10.73c8-.51,16.1-.36,24.15-.44,35.44-.34,70.89-.47,106.33-1.17,6.59-.13,13.36-1.88,19.63-4.08,5.83-2,9.24-7,8.83-13.58-.36-5.91-5-11.93-9.85-13.18-5.2-1.34-10.34,1.65-14.12,7.78-1.81,2.94-3.69,7.17-6.35,7.91a18.5,18.5,0,0,1-12.49-1.23c-4.64-2.44-5.26-7.42-3.59-12.72a35.93,35.93,0,0,1,35.2-25.05,35.21,35.21,0,0,1,33.1,27.63c4.42,19.08-2.81,34.42-20.47,43.18-10.3,5.11-21.33,7.17-32.73,7.23-19.65.09-39.31,0-59,0Z" transform="translate(-36.91 -55.13)"/><path class="cls-1" d="M120.81,176.71q-33.4,0-66.8,0a35.84,35.84,0,0,1-7.7-.44,11.53,11.53,0,0,1-9.38-11.85c.3-5.64,4.43-9.93,10.54-10.73a54.51,54.51,0,0,1,6.77-.2q67.29-.06,134.58-.11c11.57,0,16.52,3.52,16.42,11.52s-5.23,11.65-16.66,11.69c-22.59.08-45.18,0-67.77,0Z" transform="translate(-36.91 -55.13)"/><path class="cls-1" d="M726.18,216.7c-.22,6.23-3.33,9.94-8.87,11.49-5.72,1.6-10.36-.41-12.79-5.73-2.25-4.93-3.72-10.22-5.41-15.4-2.68-8.23-5.47-16.44-7.84-24.76-2.3-8.07.12-13.16,6.82-15.56s12.09.21,14.84,8.08c4.45,12.71,8.42,25.59,12.55,38.41A28.41,28.41,0,0,1,726.18,216.7Z" transform="translate(-36.91 -55.13)"/><path class="cls-1" d="M806.52,464.56c-.15,8.22-3.07,12.24-8.55,13.86-5.68,1.67-11-.58-12.87-5.78-5.27-14.43-10-29.1-14.11-43.89-1.53-5.47,1.82-9.95,7.35-12s11.23-.65,13.24,4.53C797.38,436.2,802.1,451.52,806.52,464.56Z" transform="translate(-36.91 -55.13)"/><path class="cls-1" d="M853.39,300.08a11.52,11.52,0,0,1-11-9.06c-1.17-5.78,1.2-10.86,7.1-13.17,7.15-2.8,14.56-5,21.87-7.32,6.4-2.08,12.76-4.37,19.27-6A11.48,11.48,0,0,1,904,271.33c2.22,5.66.23,12.37-5.76,14.54-14.14,5.12-28.6,9.39-42.93,14A10,10,0,0,1,853.39,300.08Z" transform="translate(-36.91 -55.13)"/><path class="cls-1" d="M603.66,381.4c-5.94-1.08-10.18-4.61-11.2-10.07-1.16-6.17,1-10.82,7.16-13.09,10-3.65,20.16-6.73,30.3-9.92,4.29-1.35,8.62-2.87,13-3.39,5.48-.65,9.32,2.47,11,7.56s1.08,10.73-4,12.69C634.78,371.12,619.14,376.07,603.66,381.4Z" transform="translate(-36.91 -55.13)"/><path class="cls-1" d="M872.38,361c-5.41-1.22-12.71-2.47-19.76-4.59a11.16,11.16,0,0,1-7.67-12.9,11.49,11.49,0,0,1,12.74-9.33,164.25,164.25,0,0,1,20.69,4.46c6.52,1.82,9.52,7,8.44,13.18S881.14,361.32,872.38,361Z" transform="translate(-36.91 -55.13)"/><path class="cls-1" d="M623.42,283.43c6.06,1.45,14,2.83,21.57,5.33,5.44,1.79,7.74,6.63,6.8,12.39s-5.84,10-11.7,9.25a138.6,138.6,0,0,1-23.42-5.13c-5.83-1.83-8.13-7.52-6.43-13.33C611.86,286.39,615.64,283.39,623.42,283.43Z" transform="translate(-36.91 -55.13)"/><path class="cls-1" d="M787.4,196.88c-1.51,6.42-2.89,14.35-5.32,22-1.81,5.66-7.61,8.07-13.33,6.57s-9-5.69-8.27-11.35a132.91,132.91,0,0,1,4.94-23.47c1.69-5.4,6.59-7.67,12.38-6.74S787.31,189.55,787.4,196.88Z" transform="translate(-36.91 -55.13)"/><path class="cls-1" d="M848.08,224.75c-1.26,3.42-1.53,5.92-2.88,7.52a190.5,190.5,0,0,1-15.58,17c-4.68,4.33-10.49,3.72-14.81-.35-4-3.83-5.21-10.34-1.65-14.87A170.69,170.69,0,0,1,828.67,217c3.49-3.38,8.44-4.18,12.4-1.1C844.09,218.23,846,222,848.08,224.75Z" transform="translate(-36.91 -55.13)"/><path class="cls-1" d="M736.21,434.09c-1.14,5.05-2.34,12-4.34,18.78-1.87,6.31-7.8,9.46-13.45,8a11.58,11.58,0,0,1-8.78-13.12,168.19,168.19,0,0,1,4.3-19.72c2-7.18,7.24-10.28,13.68-8.85C733.63,420.54,736.73,425.17,736.21,434.09Z" transform="translate(-36.91 -55.13)"/><path class="cls-1" d="M651.1,222.32c3.57,1.66,6.2,2.3,8,3.86a199.41,199.41,0,0,1,15.65,14.25c4.5,4.66,4.19,11.08,0,15.58s-9.82,5.45-14.7,1.6c-6-4.76-12.13-9.75-16.79-15.74-2.19-2.83-2.41-8.73-1-12.3C643.42,226.44,648.08,224.63,651.1,222.32Z" transform="translate(-36.91 -55.13)"/><path class="cls-1" d="M686.77,403.1c-1.42,3.54-1.79,5.95-3.14,7.54a194.68,194.68,0,0,1-15.53,17.05c-4.61,4.3-10.46,3.67-14.77-.43-4.13-3.94-5.33-10.25-1.74-14.85a189.89,189.89,0,0,1,15.54-17.06c3.22-3.2,7.79-4.11,11.49-1.4C681.93,396.37,684.24,400.16,686.77,403.1Z" transform="translate(-36.91 -55.13)"/><path class="cls-1" d="M856.28,408.89c-.37,10.17-10,15.58-17.41,10.33a115.72,115.72,0,0,1-17.75-16.11c-4-4.31-3.13-9.66.65-14,3.42-3.92,8.35-6.36,12.8-3.07,7.16,5.29,13.6,11.6,20,17.8C856,405.18,856,407.94,856.28,408.89Z" transform="translate(-36.91 -55.13)"/></svg>