<svg xmlns="http://www.w3.org/2000/svg" viewBox="0 0 416.57 416.57"><defs><style>.cls-1{fill:#1c998c;}.cls-2{fill:#00003f;}.cls-3{font-size:36px;font-family:Poppins-SemiBold, Poppins;font-weight:600;}.cls-3,.cls-5{fill:#fff;}.cls-4{isolation:isolate;}</style></defs><g id="Vector_Smart_Object_Image" data-name="Vector Smart Object Image"><path class="cls-1" d="M216,7.07C101,7.07,7.75,100.32,7.75,215.35S101,423.64,216,423.64s208.29-93.25,208.29-208.29S331.07,7.07,216,7.07Zm0,349.68a141.4,141.4,0,1,1,141.4-141.4A141.39,141.39,0,0,1,216,356.75Z" transform="translate(-7.75 -7.07)"/><path class="cls-2" d="M351.81,199.76l-42.63,56-43.63-56.08,17.25-.41c1.3-48-17.06-65.45-47.69-80.29-24-11.61-55.85-5.89-79.58,1.52C90.87,145,94.09,229.42,94.09,229.42a119.06,119.06,0,0,1-.91-14.83A121.84,121.84,0,0,1,215,92.74a119.59,119.59,0,0,1,39.59,7.11l.24.08c19.53,6.11,36.37,17.3,50.51,32.92,17.16,18.93,24.91,41.14,27.78,66.73Z" transform="translate(-7.75 -7.07)"/><path class="cls-2" d="M336.89,214.59A121.93,121.93,0,0,1,167.23,326.71l.13-.13c-37.32-15.75-63-50.94-68-96.36l-19.81,0,42.9-55.8L165.72,230l-20.14-.17c-4,37.65,17.76,66.43,49.74,81.35C214,320,250.25,316.78,273.51,310,315.93,293.63,333,243.54,336.89,214.59Z" transform="translate(-7.75 -7.07)"/><path class="cls-2" d="M213.6,212.31c-1.1-1-2.18-2-3.31-2.93-1-.79-1-1-.7-2.19a6.42,6.42,0,0,0,.12-2c0-.52-.29-.66-.76-.45a19.72,19.72,0,0,0-2,1.06c-.86.55-1.67,1.18-2.53,1.71a2.77,2.77,0,0,1-3.16,0,7.27,7.27,0,0,1-3.08-3.49,6.42,6.42,0,0,1-.35-1.5,7.24,7.24,0,0,0-1.19-3.26,6.07,6.07,0,0,1-.88-2.74,5.5,5.5,0,0,1-.09-1.45,2.15,2.15,0,0,1,.19-.62,9.61,9.61,0,0,0-4.67.22,14.11,14.11,0,0,0-3,10.57c3.33,2.05,6.55-.85,10.34.28-.85,2.87-.13,14.2.88,17.58a3.63,3.63,0,0,0,.48.48l3.62-.59a4.18,4.18,0,0,0,2.24-1.13,21.64,21.64,0,0,1,5-3.6,6.81,6.81,0,0,0,3.31-4.25A1.53,1.53,0,0,0,213.6,212.31ZM204.26,199c-1.35-.93-2.68-1.91-4.06-2.75a22.78,22.78,0,0,1,.71,2.21,3.41,3.41,0,0,0,.93,1.41,12.81,12.81,0,0,0,3.33,2.19,6.75,6.75,0,0,0,1.59.53A6.55,6.55,0,0,1,204.26,199Zm-14.17,40.69c.39-.48.8-.95,1.17-1.45a10.91,10.91,0,0,0,.63-1A16.21,16.21,0,0,0,190.09,239.72Zm23.51-27.41c-1.1-1-2.18-2-3.31-2.93-1-.79-1-1-.7-2.19a6.42,6.42,0,0,0,.12-2c0-.52-.29-.66-.76-.45a19.72,19.72,0,0,0-2,1.06c-.86.55-1.67,1.18-2.53,1.71a2.77,2.77,0,0,1-3.16,0,7.27,7.27,0,0,1-3.08-3.49,6.42,6.42,0,0,1-.35-1.5,7.24,7.24,0,0,0-1.19-3.26,6.07,6.07,0,0,1-.88-2.74,5.5,5.5,0,0,1-.09-1.45,2.15,2.15,0,0,1,.19-.62,9.61,9.61,0,0,0-4.67.22,14.11,14.11,0,0,0-3,10.57c3.33,2.05,6.55-.85,10.34.28-.85,2.87-.13,14.2.88,17.58a3.63,3.63,0,0,0,.48.48l3.62-.59a4.18,4.18,0,0,0,2.24-1.13,21.64,21.64,0,0,1,5-3.6,6.81,6.81,0,0,0,3.31-4.25A1.53,1.53,0,0,0,213.6,212.31ZM204.26,199c-1.35-.93-2.68-1.91-4.06-2.75a22.78,22.78,0,0,1,.71,2.21,3.41,3.41,0,0,0,.93,1.41,12.81,12.81,0,0,0,3.33,2.19,6.75,6.75,0,0,0,1.59.53A6.55,6.55,0,0,1,204.26,199ZM192.6,232.12c-1,0-1.9.07-2.84.16a39.33,39.33,0,0,1-10.34-.14c-.39-.07-.56-.2-.59-.57a5.28,5.28,0,0,0-.63-1.67,4.81,4.81,0,0,1-.56-2,5.36,5.36,0,0,0-1.27-2.83,42.29,42.29,0,0,1-3.3-5.31,7.19,7.19,0,0,1-.66-3.52,8.81,8.81,0,0,0-1.23-4.38,4.51,4.51,0,0,1-.35-1.22,9.09,9.09,0,0,1-.2-1.79c0-1.38.14-2.76.21-4.13a2.69,2.69,0,0,0-.07-1.24,9.62,9.62,0,0,1-.71-2.9,26.66,26.66,0,0,1-.27-3.09c-.06-1-.09-2-.15-2.93,0-.7-.06-1.38-.06-2.08,0-1.45.44-2,1.61-1.94,0-.31-.09-.62-.13-.93-.29-2.22-.44-4.47-.67-6.7a8.52,8.52,0,0,1-1.17-.49,7.16,7.16,0,0,0-3.59-1,3.94,3.94,0,0,1-2.73-1.27c-1.46-1.33-2.84-2.72-4.21-4.14a5.54,5.54,0,0,1-.82-1.4c-.61-1.27-2.94-1.74-3.82-.21a5.24,5.24,0,0,1-1.81,1.75c-1.89,1.19-4-.17-4.21-2.32a6.67,6.67,0,0,1,.26-2.83,1.33,1.33,0,0,0-.55-1.76c-.36-.27-.74-.52-1.1-.79-1.48-1.1-1.25-2.13-.39-3.22s1.78-2.08,2.66-3.12c.26-.32.46-.69.72-1a.72.72,0,0,0-.2-1.12c-.69-.53-1.38-1.07-2.12-1.54-1.67-1-3.37-2-5-3a5.8,5.8,0,0,0-4-.54,1.77,1.77,0,0,0-.41.12c-.92.19-.87.17-1.22-.67a6.44,6.44,0,0,0-1-1.54.76.76,0,0,0-.68-.14c-.76.22-1.5.52-2.25.76a6.22,6.22,0,0,1-1.5.33,4.22,4.22,0,0,0-3.46,1.84c-.81,1-1.65,2.08-2.48,3.11a3.77,3.77,0,0,1-2,1.34,8.1,8.1,0,0,0-3.4,2.07,24.7,24.7,0,0,0-4.17,4.5c-.86,1.33-1.69,2.69-2.44,4.07-1.18,2.19-2.31,4.41-3.44,6.61a21.8,21.8,0,0,0-1.78,4.33c-.27,1-.67,2-.9,3-.27,1.26-1.45,6.26-1.63,7.54,2.19-2.26,17.16-21,17.16-21l47.6,60.93-21.92.68c-2.13,20,3.19,33.84,13.66,47.84.39-.11.75-.24,1.12-.36a4.89,4.89,0,0,0,2.81-1.82,5.64,5.64,0,0,0,.7-2.26,32.66,32.66,0,0,0,.2-3.95,12.91,12.91,0,0,0-.17-2.06.73.73,0,0,0-.32-.46c-1.06-.57-1.25-1.62-1.51-2.62a7.35,7.35,0,0,1-.14-2.48,24.37,24.37,0,0,0-.08-3.08c-.08-1.48.06-2.85,1.41-3.8a23.18,23.18,0,0,0,2.72-2.62,26.65,26.65,0,0,1,2.85-2.23A14.5,14.5,0,0,1,173,251.9a15.3,15.3,0,0,1,1.88-.79c.8-.3,1.62-.57,2.42-.86,1.12-.43,2.22-.93,3.35-1.29a10.45,10.45,0,0,0,4-2.56,34.28,34.28,0,0,0,4.85-6c.18-.25.36-.49.56-.73.39-.48.8-.95,1.17-1.45a10.91,10.91,0,0,0,.63-1l.31-.59a5.24,5.24,0,0,1,.45-.92,6.57,6.57,0,0,0,.92-2.29A.94.94,0,0,0,192.6,232.12Zm-17.88-88.45a48.56,48.56,0,0,0-3.58-10.26c-.13-.24-.25-.49-.36-.73a2.86,2.86,0,0,1-1.61,0,6.72,6.72,0,0,0-2.41-.05,3.35,3.35,0,0,0-1.16.64c-.56.38-1.1.82-1.68,1.17a2,2,0,0,1-.9.22c-1.24,0-2.48-.06-3.71-.06-.9,0-1.79.08-2.68.08a2.65,2.65,0,0,1-1.21-.27c-.65-.33-1.23-.14-1.39.57a2.8,2.8,0,0,0-.07.59,4.57,4.57,0,0,1-1.92,3.63,11.21,11.21,0,0,0-2.78,3c-.16.26-.5.42-.74.63-.18-.26-.34-.5-.51-.77a15,15,0,0,0-1.2-1.85c-1.34-1.51-2.2-1.47-3.54-.11a17.14,17.14,0,0,1-2.17,2.09c-1.83,1.37-3.1,3.24-4.65,4.87a2.87,2.87,0,0,0-.54,1.14c-.18.64-.08.74.65.75,0,.76,0,1.52,0,2.29,0,.41.08.66.58.51s.74-.05.83.45a.82.82,0,0,0,.89.66,4.57,4.57,0,0,0,3.26-1c1-.94,2-1.88,3-2.89a2.14,2.14,0,0,1,2.39-.65c.3.09.63.13.93.19a1.06,1.06,0,0,0,1.18-.49,3.86,3.86,0,0,1,2.11-1.33,1.67,1.67,0,0,1,1.77.63,1.24,1.24,0,0,0,1.06.39c.74,0,1.49,0,2.24.05s.81.24.7,1a3,3,0,0,1-1.12,1.92c-.8.69-.61,1.62-.54,2.49,0,.14.29.31.49.39.74.27.84.35.87,1.13s0,1.33,0,2a5.45,5.45,0,0,0,.05,1.21c.06.37-.11.51-.4.63s-.46.23-.69.33a1.18,1.18,0,0,0-.84,1.41l-2.5-.37a2.3,2.3,0,0,0-.68-.06c-.13,0-.32.23-.3.32a7.49,7.49,0,0,0,.55,2c.61,1.12,1.5,1.24,2.65.46.45-.32,1-.59.8-1.34-.09-.43.29-.5.55-.32a1.75,1.75,0,0,0,2.14-.17,5.4,5.4,0,0,1,1.07-.55,1.64,1.64,0,0,0,1.07-2.06c-.24-.9-.51-1.8-.82-2.69a3,3,0,0,1,0-2c.24-.69.41-1.42.68-2.11a25.18,25.18,0,0,1,1.11-2.55c.35-.68.65-.65,1.08,0a6.48,6.48,0,0,1,.67,2.63c.18,1,.14,2.06.24,3.09a6.9,6.9,0,0,0,.33,1.6,1.87,1.87,0,0,1-.5,2.29,2,2,0,0,0-.56,2.19,4.69,4.69,0,0,1-.49,3.7,8.25,8.25,0,0,0-.38.93c-.13.39-.23.78-.33,1.16s-.13.65-.23,1.13a2.35,2.35,0,0,1,2.43.28c0-.43.07-.79.1-1.13l.19-.06.64.92c.06-.44.11-.87.2-1.46l1,.92c0-.49,0-.84,0-1.2a5.58,5.58,0,0,1,1.2-3.31,1.07,1.07,0,0,1,1.26-.48,4.84,4.84,0,0,0,1.22.26,37.29,37.29,0,0,1,3.51-8.95A13.16,13.16,0,0,0,174.72,143.67Zm-5.93,20.87a16.31,16.31,0,0,0-.59,4.52,2.15,2.15,0,0,0,.49,1.41,31.71,31.71,0,0,1,.63-6.9A2,2,0,0,0,168.79,164.54ZM319.05,255c-.34-.74-.74-.77-1.22-.12-.79,1.08-1.54,2.19-2.36,3.25a37.7,37.7,0,0,1-6.18,6.38,14.62,14.62,0,0,1-4.08,2.36,9.37,9.37,0,0,0-1.4.64c-.31.19-.51.16-.71-.12a.88.88,0,0,0-1.19-.34,4.68,4.68,0,0,1-1.77.3,2.33,2.33,0,0,0-1.72.64,1.46,1.46,0,0,1-1.15.42h-2c-.89,0-1-.19-1.07-1a4,4,0,0,1,.75-2.8,4,4,0,0,0,.58-1.84c.07-1.08-.38-1.55-1.47-1.56a1.64,1.64,0,0,1-1.7-1.75,2.3,2.3,0,0,1,.43-1.26,3.91,3.91,0,0,0,.58-2.36c-.05-1.33.06-2.65.1-4,.09-2.41.07-2.37-1.7-4a23,23,0,0,1-2.49-2.72,3.86,3.86,0,0,1-.77-2.41c0-1.38,0-2.76,0-4.14a.82.82,0,0,1,0-.27c.47-1.21.47-2.57,1.09-3.75a3.39,3.39,0,0,1,.34-.5l-29.31-37.14,19.21.09c1.14-42.38-13.19-57.12-38.4-70.77-1.23-.66-2.48-1.32-3.77-2a.57.57,0,0,0,0,.12c.13.94.33,1.86.53,2.79,0,.16.31.31.5.39a7.56,7.56,0,0,0,1,.27l.25.07a5.83,5.83,0,0,0,1.09.15c.44,0,.89.13,1,.55a3.84,3.84,0,0,1,0,1.51c0,.28-.35.21-.56.07-.44-.26-.86-.55-1.3-.8-.59-.32-.81-.21-.89.45,0,.4,0,.81,0,1.21,0,.66-.23.79-.86.6A2.06,2.06,0,0,1,237,130.1l-.12-.39a6.84,6.84,0,0,1-.2-1.62c0-1.1,0-2.19,0-3.28a3,3,0,0,0-.19-1.15,2.9,2.9,0,0,0-.25-.57c-.41-.74-1.1-.93-1.69-.39a.2.2,0,0,0-.07.06,2.74,2.74,0,0,0-1,2,6.19,6.19,0,0,1,0,1.29,4.07,4.07,0,0,1-.33,1.13.57.57,0,0,1-.91.29c-.92-.52-1.86-1-2.79-1.47-.06,0-.08-.11-.12-.12-.39-.1-.77-.18-1.15-.29,0,.36,0,.71.08,1.06a6,6,0,0,0,.06.61c0,.39-.15.57-.54.6a5.93,5.93,0,0,0-1.26.21c-.51.15-.9,0-1-.46-.34-1.15-1.19-1.38-2.21-1.3-1.28.1-2.57.27-3.86.4a1.14,1.14,0,0,0-.94.75c-.14.25-.25.57-.47.67a1.19,1.19,0,0,1-.89,0c-.12,0-.18-.43-.18-.64s.17-.56.2-.84a4.13,4.13,0,0,0,0-.93.69.69,0,0,0-.74-.59,1,1,0,0,0-.72.32,15.59,15.59,0,0,0-1.29,1.91.85.85,0,0,1-.91.48,8.22,8.22,0,0,0-.86,0,1.67,1.67,0,0,0-1.65,1c-.37.79-.77.9-1.53.57a.45.45,0,0,1-.27-.29c-.11-.87-.8-.4-1.22-.51s-.58.23-.59.64-.29.51-.67.45c-.84-.15-1-.39-.94-1.21s.18-1.36.32-2a3.05,3.05,0,0,1,.36-.78c.28-.47.47-.51.87-.18s.74.72,1.1,1.09c.23.22.45.45.68.66s.29.28.42.28a5.08,5.08,0,0,0,2.82-.52.94.94,0,0,0-.17-1.75.9.9,0,0,1-.65-1,1,1,0,0,0-.65-1.21,9.77,9.77,0,0,1-2-1.56.77.77,0,0,1-.17-.6,4.18,4.18,0,0,1,.34-.79c.22-.49.17-.54-.36-.69-.94-.26-1.85-.59-2.79-.79s-1.77-.56-2.58.26c-.33.36-.8.21-1.22-.12a1.51,1.51,0,0,0-.82-.38c-.85,0-1.72,0-2.58.07-.55,0-1.08.14-1.62.12a1.69,1.69,0,0,1-.88-.3c-.35-.24-.7-.3-.81.15-.28,1.29-1.45,1.24-2.34,1.61a21.42,21.42,0,0,1-2.11.64c-1.18.34-2.41.55-3.54,1a11.49,11.49,0,0,1-4.51.35,2.58,2.58,0,0,0-1.88.65,17.63,17.63,0,0,0-3.75,4c-.1.17-.16.37-.27.52-.32.46-.15.8.26,1.09a1.11,1.11,0,0,0,1.27,0,1.38,1.38,0,0,1,2.14.15c-.36.35-.73.72-1.08,1.09-.5.51-1,1-1.49,1.55a11.1,11.1,0,0,1-1.19,1c-.44.34-1.18.59-.92,1.29s1,.57,1.52.66c.17,0,.52-.12.56-.27.3-.83,1-.66,1.51-.52a1.37,1.37,0,0,0,1.31-.33,27.86,27.86,0,0,1,3-2,3.66,3.66,0,0,1,2.61-.62.79.79,0,0,0,.94-.64,3.43,3.43,0,0,1,1.36-1.93c1.14-.81,2.41-1.36,3.55-2.13a1.86,1.86,0,0,1,1.66-.17,2.33,2.33,0,0,0,2.79-.8,1.58,1.58,0,0,1,1.29-.58,2.69,2.69,0,0,0,1.61-.52,4.32,4.32,0,0,1,.83-.33,2.46,2.46,0,0,1-1.1,1.72,6.7,6.7,0,0,1-4,1.43,2.55,2.55,0,0,0-1.68.72,10.94,10.94,0,0,1-2.22,1.38c-.57.32-1.13.65-1.71,1-.42.22-.36.49-.08.75a5.11,5.11,0,0,0,.87.68,14.49,14.49,0,0,1,1.55.74c.45.31,1.28.14,1.92.12s1.48-.1,2.26-.15a1.8,1.8,0,0,1-.63,1.68,3.94,3.94,0,0,1-2.24.42c-.59,0-.89-.38-1.14-.78a1.27,1.27,0,0,0-1.29-.64c-.63,0-1.26-.06-1.9-.05a.84.84,0,0,0-.88.78.46.46,0,0,0,.19.38,10.85,10.85,0,0,0,1.05.39l-1.19,1.56c-.07.08-.13.22-.22.24a2.33,2.33,0,0,1-.89.14c-.1,0-.22-.41-.23-.63,0-.93,0-.93-.94-1a1.62,1.62,0,0,0-1.49.47c-.49.48-1.05.9-1.51,1.41a1.17,1.17,0,0,1-1,.37,4.49,4.49,0,0,0-2.53.42c-.25.17-.49.1-.57-.25s-.35-.46-.71-.42c-.57.07-1.15.13-1.72.18a6,6,0,0,1-1.12,0c-.45,0-.55-.29-.35-.7,0-.05.05-.1.09-.16.31-.59.31-.57-.3-.81a9.62,9.62,0,0,1-1.12-.53,6.93,6.93,0,0,1,.87-1c1-.84,2.11-1.66,3.21-2.41.35-.24.27-.35.07-.57a2.61,2.61,0,0,0-3.3-.26c-.74.63-1.4,1.38-2.14,2a3.65,3.65,0,0,1-1.58.92,2.86,2.86,0,0,1-1.61,0,6.72,6.72,0,0,0-2.41-.05,3.35,3.35,0,0,0-1.16.64c-.56.38-1.1.82-1.68,1.17a2,2,0,0,1-.9.22c-1.24,0-2.48-.06-3.71-.06-.9,0-1.79.08-2.68.08a2.65,2.65,0,0,1-1.21-.27c-.65-.33-1.23-.14-1.39.57a2.8,2.8,0,0,0-.07.59,4.57,4.57,0,0,1-1.92,3.63,11.21,11.21,0,0,0-2.78,3c-.16.26-.5.42-.74.63-.18-.26-.34-.5-.51-.77a15,15,0,0,0-1.2-1.85c-1.34-1.51-2.2-1.47-3.54-.11a17.14,17.14,0,0,1-2.17,2.09c-1.83,1.37-3.1,3.24-4.65,4.87a2.87,2.87,0,0,0-.54,1.14c-.18.64-.08.74.65.75,0,.76,0,1.52,0,2.29,0,.41.08.66.58.51s.74-.05.83.45a.82.82,0,0,0,.89.66,4.57,4.57,0,0,0,3.26-1c1-.94,2-1.88,3-2.89a2.14,2.14,0,0,1,2.39-.65c.3.09.63.13.93.19a1.06,1.06,0,0,0,1.18-.49,3.86,3.86,0,0,1,2.11-1.33,1.67,1.67,0,0,1,1.77.63,1.24,1.24,0,0,0,1.06.39c.74,0,1.49,0,2.24.05s.81.24.7,1a3,3,0,0,1-1.12,1.92c-.8.69-.61,1.62-.54,2.49,0,.14.29.31.49.39.74.27.84.35.87,1.13s0,1.33,0,2a5.45,5.45,0,0,0,.05,1.21c.06.37-.11.51-.4.63s-.46.23-.69.33a1.18,1.18,0,0,0-.84,1.41l-2.5-.37a2.3,2.3,0,0,0-.68-.06c-.13,0-.32.23-.3.32a7.49,7.49,0,0,0,.55,2c.61,1.12,1.5,1.24,2.65.46.45-.32,1-.59.8-1.34-.09-.43.29-.5.55-.32a1.75,1.75,0,0,0,2.14-.17,5.4,5.4,0,0,1,1.07-.55,1.64,1.64,0,0,0,1.07-2.06c-.24-.9-.51-1.8-.82-2.69a3,3,0,0,1,0-2c.24-.69.41-1.42.68-2.11a25.18,25.18,0,0,1,1.11-2.55c.35-.68.65-.65,1.08,0a6.48,6.48,0,0,1,.67,2.63c.18,1,.14,2.06.24,3.09a6.9,6.9,0,0,0,.33,1.6,1.87,1.87,0,0,1-.5,2.29,2,2,0,0,0-.56,2.19,4.69,4.69,0,0,1-.49,3.7,8.25,8.25,0,0,0-.38.93c-.13.39-.23.78-.33,1.16s-.13.65-.23,1.13a2.35,2.35,0,0,1,2.43.28c0-.43.07-.79.1-1.13l.19-.06.64.92c.06-.44.11-.87.2-1.46l1,.92c0-.49,0-.84,0-1.2a5.58,5.58,0,0,1,1.2-3.31,1.07,1.07,0,0,1,1.26-.48,4.84,4.84,0,0,0,1.22.26,6.64,6.64,0,0,0,2.8-.44,6.16,6.16,0,0,0,1.48-.65,4.38,4.38,0,0,0,1-1.11,19.27,19.27,0,0,1,5.35-5,3,3,0,0,1,2.87-.41c.58.24,1.2.35,1.76.63s.53.46,0,.74c-.81.42-.86.51-.76,1.4a7,7,0,0,0,.16.77c.17.86.41,1,1.25.65a5.91,5.91,0,0,1,1.44-.27c.33,0,.48-.14.45-.46a1.11,1.11,0,0,0,0-.26c-.42-1.14.54-1.6,1.12-2.24a.51.51,0,0,1,.38-.14,26.64,26.64,0,0,1,2.68.06c.86.1,1,.55.59,1.33a4.72,4.72,0,0,1-1.82,1.65c-.32.18-.47.33-.33.66.28.64.6,1.27.89,1.91a6.46,6.46,0,0,0,1.76,2.19,3,3,0,0,1,1.28,2.16,2.73,2.73,0,0,1-2.29,2.76,15.31,15.31,0,0,0-1.79.2A4.12,4.12,0,0,1,186.4,167c-.9-.77-1.71-1.63-2.59-2.45a9.15,9.15,0,0,0-1.57-1.28,1.54,1.54,0,0,0-1.23,0,9.93,9.93,0,0,1-4.26.37c-.42,0-.85-.4-1.24-.65a2.23,2.23,0,0,1-.42-.53c-.67-.85-.67-.85-1.71-.47-.06,0-.1.08-.15.08a9.07,9.07,0,0,0-3.16,1,2.1,2.1,0,0,0-1.28,1.47,16.31,16.31,0,0,0-.59,4.52,2.15,2.15,0,0,0,.49,1.41,1.84,1.84,0,0,0,.6.48c.66.38,1.25.87,1.91,1.24a1.89,1.89,0,0,0,1.14.29,2.58,2.58,0,0,1,2.48,1.2,2.06,2.06,0,0,0,2.24.84c.45-.08.91-.16,1.37-.21a1.94,1.94,0,0,1,.68,0c.82.15,1,.59.78,1.38a10.63,10.63,0,0,1-2.56,4c-1,1.05-2,2.11-3,3.16a1.45,1.45,0,0,1-1.05.51,7.09,7.09,0,0,1-2.87-.44c-.4-.13-.37,7.53.8,7.63a4.3,4.3,0,0,1,.65.1.8.8,0,0,1,.5.39,4.16,4.16,0,0,1,.47,1.19c.13.77.28,1.53.39,2.3a14.67,14.67,0,0,1,.22,2.29,23.8,23.8,0,0,0,.53,3.84,2.65,2.65,0,0,0,.58,1.13,3.53,3.53,0,0,1,.72,2.33c0,.91-.07,1.85-.09,2.76a4.15,4.15,0,0,0,.76,2.75,10.2,10.2,0,0,1,1.58,5,1.18,1.18,0,0,0,.66,1,1.08,1.08,0,0,1,.63,1v7.51a4.93,4.93,0,0,1-.1.86,2,2,0,0,0,2,2.38c1.23,0,2.47.16,3.7.16s2.71-.08,4.06-.19a8.29,8.29,0,0,0,3-1.19,2.79,2.79,0,0,1,1.12-.33,14,14,0,0,0,2.43-.27,16,16,0,0,0,2.5-.76c.28-.12.45-.29.39-.54-.14-.47.18-.46.46-.5l1.55-.26,3.62-.59a4.18,4.18,0,0,0,2.24-1.13,21.64,21.64,0,0,1,5-3.6,6.81,6.81,0,0,0,3.31-4.25,1.53,1.53,0,0,0-.48-1.71c-1.1-1-2.18-2-3.31-2.93-1-.79-1-1-.7-2.19a6.42,6.42,0,0,0,.12-2c0-.52-.29-.66-.76-.45a19.72,19.72,0,0,0-2,1.06c-.86.55-1.67,1.18-2.53,1.71a2.77,2.77,0,0,1-3.16,0,7.27,7.27,0,0,1-3.08-3.49,6.42,6.42,0,0,1-.35-1.5,7.24,7.24,0,0,0-1.19-3.26,6.07,6.07,0,0,1-.88-2.74,5.5,5.5,0,0,1-.09-1.45,2.15,2.15,0,0,1,.19-.62,1.76,1.76,0,0,1,2.13-.83,2.65,2.65,0,0,1,1.75,1.59c.18.34.35.7.5,1.06a22.78,22.78,0,0,1,.71,2.21,3.41,3.41,0,0,0,.93,1.41,12.81,12.81,0,0,0,3.33,2.19,6.75,6.75,0,0,0,1.59.53,10.69,10.69,0,0,0,1.81.16A6.25,6.25,0,0,1,210,203l.38.11a1.12,1.12,0,0,1,.78,1.22,1,1,0,0,0,.72,1.1c1.27.61,2.51,1.23,3.77,1.81,1,.47,2,.92,3.05,1.32a3.52,3.52,0,0,0,1.17.22c2.36,0,4.72,0,7.08,0a4.44,4.44,0,0,1,3.42,1.76A8.91,8.91,0,0,1,232,214.3a8.41,8.41,0,0,0,2,4.09,2.94,2.94,0,0,0,1.44.83,30,30,0,0,1,3.44,1,2,2,0,0,1,1.38,1.71,7.55,7.55,0,0,1,0,.95c0,1.84,0,3.69,0,5.53a3.29,3.29,0,0,0,.61,2.19,8.51,8.51,0,0,1,1.3,3.37c.42,1.58.79,3.15,1.25,4.71s.91,2.81,1.36,4.22c.23.68.45,1.34.64,2a3.48,3.48,0,0,0,1.8,2.07,1.84,1.84,0,0,0,.74.14,20.4,20.4,0,0,0,2.07,0,1,1,0,0,1,1.06.6,5.84,5.84,0,0,1,.58,1.86,2.1,2.1,0,0,0,3.22,1.6,2.18,2.18,0,0,0,.84-2.07,8.67,8.67,0,0,0-1.11-3.57c-.54-1-1.17-1.87-1.71-2.83a.91.91,0,0,1-.05-.8,7.2,7.2,0,0,0,.57-2.4c.22-1.12.37-2.26.55-3.39s.37-2.08.54-3.13a3.52,3.52,0,0,1,1.41-2.43c.71-.5,1.38-1,2.06-1.52a6.42,6.42,0,0,0,1.36-1.1,17.73,17.73,0,0,1,2.31-2.2,5,5,0,0,0,1.05-1.33,5,5,0,0,1,1.86-2,6.46,6.46,0,0,0,1.86-1.79,5.41,5.41,0,0,1,4.2-2.5,1.53,1.53,0,0,0,1.46-.72,1.77,1.77,0,0,1,1.72-1,1.71,1.71,0,0,1,1.5,1.25,4.84,4.84,0,0,0,1,1.48,4.21,4.21,0,0,1,.61,1.28,1.32,1.32,0,0,0,.79.84c.2.07.35.34.46.54.36.71.67,1.45,1,2.14a4.17,4.17,0,0,1,.51,2.06c0,.82,0,1.62,0,2.42,0,.43.08.94.44,1a2.23,2.23,0,0,0,1.49-.12,6.64,6.64,0,0,0,1.89-1.39c.52-.57.91-.4,1.19.32a16.23,16.23,0,0,1,1,5.38c.09,2.09.14,4.2.21,6.3,0,.4.08.8.11,1.2a6.19,6.19,0,0,1-.08,2.64c-.27.76.22,1.29.67,1.82.64.75,1.25,1.54,1.91,2.29a2.38,2.38,0,0,1,.46,2.18,8.11,8.11,0,0,1-1,2.65,1.51,1.51,0,0,1-2.51,0,10.21,10.21,0,0,0-.92-1.07,3.7,3.7,0,0,0-3-1.19,4.91,4.91,0,0,1-1.27-.16c-.38-.09-.52.11-.46.39a5.42,5.42,0,0,0,.46,1.56c.79,1.35,1.59,2.68,2.49,4s1.94,2.53,2.89,3.81a13.66,13.66,0,0,1,1.17,1.68,1.76,1.76,0,0,1,.16,1.48,2.71,2.71,0,0,0,.58,2.63,14.37,14.37,0,0,0,4.22,3.85,2.6,2.6,0,0,1,.71.91c.17.26.28.45.64.45a9,9,0,0,0,2.37,0,22.74,22.74,0,0,1,3.12-.5,4.13,4.13,0,0,0,1.36-.46,4.16,4.16,0,0,1,2.54-.6,4.43,4.43,0,0,0,2.88-.87,3.31,3.31,0,0,1,.81-.2c.36-.1.49.11.67.36a1,1,0,0,0,1.18,0,3,3,0,0,0,.65-1c.26-.64.38-.71,1-.31s.63.41,1.2-.14c1.65-1.64,3.3-3.28,5-4.89.36-.36.78-.64,1.17-1l.16.13c-.15.24-.31.48-.48.7-.48.67-1.34,1-1.6,1.87,0,.05-.07.12-.11.11-.85-.14-1.16.65-1.55,1.09a12.51,12.51,0,0,1-2,2.16,1.1,1.1,0,0,0-.53,1.33c.12.38-.13.66-.52.75a2.38,2.38,0,0,1-.59.12.81.81,0,0,0-.81.61,8.54,8.54,0,0,1-.84,1.58,1.23,1.23,0,0,1-.63.56,1.58,1.58,0,0,0-1.07,1.4,1.87,1.87,0,0,1-.79,1.27,1.75,1.75,0,0,0-.59.8,3.61,3.61,0,0,1-1.71,1.74c-.28.14-.56.28-.82.43a1.44,1.44,0,0,0-.78,1.43c0,.45.05.92,0,1.38,0,.74-.2,1-.91.91a2,2,0,0,0-2.13,1c-.6.93-1.33,1.79-2,2.66-.25.32-.53.61-.79.91a1.13,1.13,0,0,1-1.3.43,2.28,2.28,0,0,0-2.39.72c-2.08,2-4.17,4-6.24,6a2.17,2.17,0,0,0-.7,1.31,7.56,7.56,0,0,1-.52,2.08,5,5,0,0,1-1.16,1.43c-1.21,1.08-2.47,2.09-3.68,3.16a6,6,0,0,0-.85,1,1.65,1.65,0,0,0-.21.38c19.35-10.09,32.48-27.84,41-46.11l-.39-.63C319.32,255.71,319.22,255.33,319.05,255ZM211.42,163.91a7.52,7.52,0,0,1-2.89,1.72c-.74.3-.79.5-.28,1.11.34.4.68.81,1,1.25a3,3,0,0,1,.49,2.75,23,23,0,0,0-.52,2.6,2.72,2.72,0,0,0,.54,2.43,1,1,0,0,1,.31.5,7,7,0,0,1-.29,4.12,2,2,0,0,1-2.07,1.17,4.41,4.41,0,0,1-2.52-1,10.7,10.7,0,0,0-1.4-.89,3.33,3.33,0,0,1-1.57-1.53,1.23,1.23,0,0,1,0-1c.45-.94,1-1.84,1.49-2.76.24-.42.5-.84.7-1.27a1.3,1.3,0,0,0-.07-1.29,12,12,0,0,1-1.84-5.54,4,4,0,0,1,2.33-4,13.32,13.32,0,0,1,5.07-1.51,1.83,1.83,0,0,1,2,1.09A1.79,1.79,0,0,1,211.42,163.91Zm-21.33,75.81c.39-.48.8-.95,1.17-1.45a10.91,10.91,0,0,0,.63-1A16.21,16.21,0,0,0,190.09,239.72ZM204.26,199c-1.35-.93-2.68-1.91-4.06-2.75a22.78,22.78,0,0,1,.71,2.21,3.41,3.41,0,0,0,.93,1.41,12.81,12.81,0,0,0,3.33,2.19,6.75,6.75,0,0,0,1.59.53A6.55,6.55,0,0,1,204.26,199Zm9.34,13.28c-1.1-1-2.18-2-3.31-2.93-1-.79-1-1-.7-2.19a6.42,6.42,0,0,0,.12-2c0-.52-.29-.66-.76-.45a19.72,19.72,0,0,0-2,1.06c-.86.55-1.67,1.18-2.53,1.71a2.77,2.77,0,0,1-3.16,0,7.27,7.27,0,0,1-3.08-3.49,6.42,6.42,0,0,1-.35-1.5,7.24,7.24,0,0,0-1.19-3.26,6.07,6.07,0,0,1-.88-2.74,5.5,5.5,0,0,1-.09-1.45,2.15,2.15,0,0,1,.19-.62,9.61,9.61,0,0,0-4.67.22,14.11,14.11,0,0,0-3,10.57c3.33,2.05,6.55-.85,10.34.28-.85,2.87-.13,14.2.88,17.58a3.63,3.63,0,0,0,.48.48l3.62-.59a4.18,4.18,0,0,0,2.24-1.13,21.64,21.64,0,0,1,5-3.6,6.81,6.81,0,0,0,3.31-4.25A1.53,1.53,0,0,0,213.6,212.31Z" transform="translate(-7.75 -7.07)"/><path class="cls-2" d="M184.26,284.28a12.27,12.27,0,0,1-1.68,3.71c-.86,1.36-1.65,2.78-2.4,4.21a18,18,0,0,1-2.12,3.49,2.62,2.62,0,0,1-.65.56,2.45,2.45,0,0,1-1.72.29,4.71,4.71,0,0,1-3.24-2,6.82,6.82,0,0,1-.78-1.44,5.42,5.42,0,0,1-.38-2.11c0-.31,0-.63.06-.94a3,3,0,0,1,.73-1.41,2,2,0,0,0,.49-1.63,26,26,0,0,1-.21-2.66c0-1.31.37-1.78,1.65-2a10.22,10.22,0,0,1,2.13-.18,2.85,2.85,0,0,0,2.79-1.35,5.59,5.59,0,0,1,2.16-1.93,11.72,11.72,0,0,0,1.71-1.25c.14.25.29.48.43.72a5.4,5.4,0,0,1,.4.75A8,8,0,0,1,184.26,284.28Z" transform="translate(-7.75 -7.07)"/><path class="cls-2" d="M160,128.92l-1.12.17c-.46.06-.65-.08-.67-.54a1.79,1.79,0,0,1,.86-1.91c1.32-.71,2.61-1.49,4-2.18a1.32,1.32,0,0,1,1,0,3.12,3.12,0,0,0,3.23-.44,12.39,12.39,0,0,0,1.92-1.37,1.67,1.67,0,0,1,1.5-.42c.65.07,1.31.19,2,.3.37.06.84.12.87.55a1.55,1.55,0,0,1-.37,1.07,6.93,6.93,0,0,1-1.46,1.18c-1.43.91-2.89,1.76-4.33,2.65a1.45,1.45,0,0,0-.67,1.33,3.32,3.32,0,0,1-1.5,2.66,25.45,25.45,0,0,1-2.14,1.56,1.72,1.72,0,0,1-.38.2c-1.09.45-3.57-.24-4.16-1.25a3,3,0,0,1-.26-1.4c0-.24.2-.45.48-.63C159.25,130.11,159.93,129.82,160,128.92Z" transform="translate(-7.75 -7.07)"/><path class="cls-2" d="M229,120.35c-.45.3-1,.5-1.45.77a2.07,2.07,0,0,0-1.11,2.66,1.74,1.74,0,0,1,.06.51c.05.35-.09.51-.45.56-1.49.2-1.67,0-2.41-1.07-.13-.19-.33-.36-.36-.57a3,3,0,0,1,0-1.27c0-.21.43-.38.69-.5a3.57,3.57,0,0,0,1.48-1.09,4.1,4.1,0,0,1,1-.88C227.24,119.74,228.12,120,229,120.35Z" transform="translate(-7.75 -7.07)"/><path class="cls-2" d="M155.78,149.49a22.34,22.34,0,0,1-3.05,4.9,11.68,11.68,0,0,1-1.28,1.35c-.67.58-1.17.38-1.29-.51-.11-.74-.1-1.41.77-1.78a1.46,1.46,0,0,0,.66-.83,4.83,4.83,0,0,1,3.81-3.2C155.5,149.39,155.62,149.46,155.78,149.49Z" transform="translate(-7.75 -7.07)"/><path class="cls-2" d="M308,256.85a4.46,4.46,0,0,0-.27,1.76,2.89,2.89,0,0,1-1.73,2.52c-.39.14-.7,0-1-.45s-.46-.49-.92-.24a16.62,16.62,0,0,1-1.56.84,1.93,1.93,0,0,1-2.44-.62,2.4,2.4,0,0,1-.37-1.1,5.89,5.89,0,0,1,0-1h.06c0-1.7.1-3.39.1-5.08,0-.54.3-.8.71-.76.87.09,1.25-.31,1.6-1.06a7.83,7.83,0,0,1,.62-1l2.85,3.67S308.64,255.54,308,256.85Z" transform="translate(-7.75 -7.07)"/></g><g id="Patnaik_Steel_International_Ltd." data-name="Patnaik Steel International Ltd."><text id="Patnaik_Steel_International_Ltd.-2" data-name="Patnaik Steel International Ltd." class="cls-3" transform="translate(63.1 269.94) rotate(-108.74)">P</text><text class="cls-3" transform="matrix(-0.18, -0.98, 0.98, -0.18, 56.02, 249.48)">A</text><text class="cls-3" transform="translate(51.73 224.44) rotate(-91.95)">T</text><text class="cls-3" transform="translate(50.82 204.31) rotate(-83.67)">N</text><text class="cls-3" transform="translate(53.72 178.4) rotate(-74.33)">A</text><text class="cls-3" transform="translate(61.05 153.95) rotate(-67.86)">I</text><text class="cls-3" transform="matrix(0.47, -0.88, 0.88, 0.47, 64.48, 144.58)">K</text><text class="cls-3" transform="matrix(0.56, -0.83, 0.83, 0.56, 76.07, 123.89)"> </text><text class="cls-3" transform="translate(80.4 116.95) rotate(-50.6)">S</text><text class="cls-3" transform="matrix(0.73, -0.68, 0.68, 0.73, 93.96, 100.51)">T</text><text class="cls-3" transform="translate(108.78 86.69) rotate(-36.03)">E</text><text class="cls-3" transform="matrix(0.87, -0.49, 0.49, 0.87, 124.22, 75.48)">E</text><text class="cls-3" transform="matrix(0.92, -0.38, 0.38, 0.92, 140.95, 66.24)">L</text><text class="cls-3" transform="translate(156.73 59.89) rotate(-17.96)"> </text><text class="cls-3" transform="translate(164.7 57.29) rotate(-14.56)">I</text><text class="cls-3" transform="matrix(0.99, -0.14, 0.14, 0.99, 174.19, 54.35)">N</text><text class="cls-3" transform="matrix(1, 0.02, -0.02, 1, 200.06, 50.85)">T</text><text class="cls-3" transform="translate(220.39 51.12) rotate(7.4)">E</text><text class="cls-3" transform="matrix(0.97, 0.26, -0.26, 0.97, 239.26, 53.47)">R</text><text class="cls-3" transform="translate(260.73 59.03) rotate(23.73)">N</text><text class="cls-3" transform="translate(284.58 69.55) rotate(33.04)">A</text><text class="cls-3" transform="matrix(0.75, 0.66, -0.66, 0.75, 305.77, 83.56)">T</text><text class="cls-3" transform="translate(320.92 97.2) rotate(46.74)">I</text><text class="cls-3" transform="matrix(0.59, 0.81, -0.81, 0.59, 328.09, 104.01)">O</text><text class="cls-3" transform="translate(344.81 126.89) rotate(63.51)">N</text><text class="cls-3" transform="translate(356.43 150.27) rotate(72.88)">A</text><text class="cls-3" transform="translate(363.62 174.63) rotate(80.56)">L</text><text class="cls-3" transform="matrix(0.08, 1, -1, 0.08, 366.23, 191.46)"> </text><text class="cls-3" transform="translate(366.99 199.63) rotate(89.07)">L</text><text class="cls-3" transform="translate(367.27 216.52) rotate(96.32)">T</text><text class="cls-3" transform="matrix(-0.25, 0.97, -0.97, -0.25, 365.27, 236.57)">D</text><text class="cls-3" transform="matrix(-0.36, 0.93, -0.93, -0.36, 358.06, 261.94)">.</text></g><g id="Shape_1" data-name="Shape 1" class="cls-4"><g id="Shape_1-2" data-name="Shape 1"><polygon class="cls-5" points="215.54 384.97 217.1 375.71 208.8 380.11 200.48 375.77 202.09 385.01 195.39 391.59 204.69 392.91 208.87 401.32 213 392.88 222.29 391.5 215.54 384.97"/></g></g><g id="Shape_1_copy_3" data-name="Shape 1 copy 3" class="cls-4"><g id="Shape_1_copy_3-2" data-name="Shape 1 copy 3"><polygon class="cls-5" points="253.94 380.89 255.5 371.63 247.2 376.03 238.88 371.69 240.5 380.94 233.79 387.51 243.09 388.83 247.27 397.24 251.4 388.8 260.69 387.42 253.94 380.89"/></g></g><g id="Shape_1_copy_4" data-name="Shape 1 copy 4" class="cls-4"><g id="Shape_1_copy_4-2" data-name="Shape 1 copy 4"><polygon class="cls-5" points="292.34 368.17 293.9 358.91 285.6 363.31 277.28 358.97 278.89 368.21 272.19 374.79 281.49 376.11 285.67 384.52 289.8 376.08 299.09 374.7 292.34 368.17"/></g></g><g id="Shape_1_copy" data-name="Shape 1 copy" class="cls-4"><g id="Shape_1_copy-2" data-name="Shape 1 copy"><polygon class="cls-5" points="177.14 380.89 178.7 371.63 170.4 376.03 162.08 371.69 163.69 380.94 156.99 387.51 166.29 388.83 170.47 397.24 174.6 388.8 183.89 387.42 177.14 380.89"/></g></g><g id="Shape_1_copy_2" data-name="Shape 1 copy 2" class="cls-4"><g id="Shape_1_copy_2-2" data-name="Shape 1 copy 2"><polygon class="cls-5" points="138.74 368.17 140.3 358.91 132 363.31 123.68 358.97 125.3 368.21 118.59 374.79 127.89 376.11 132.07 384.52 136.2 376.08 145.49 374.7 138.74 368.17"/></g></g></svg>